<svg width="248" height="132" viewBox="0 0 248 132" fill="none" xmlns="http://www.w3.org/2000/svg">
<path d="M80.4763 79.5535L103.509 4.15014C103.844 3.14551 104.489 2.27285 105.351 1.65719C106.213 1.04152 107.248 0.714427 108.307 0.722719L244.581 4.56142C245.112 4.56699 245.633 4.69451 246.106 4.93412C246.579 5.17373 246.991 5.51901 247.309 5.94318C247.627 6.36736 247.843 6.85906 247.941 7.38022C248.038 7.90138 248.015 8.438 247.872 8.94854L221.138 100.941C220.815 102.064 220.094 103.031 219.11 103.662C218.126 104.292 216.946 104.543 215.791 104.368L83.4924 83.9406C82.9787 83.913 82.4782 83.7679 82.0295 83.5163C81.5808 83.2647 81.1959 82.9134 80.9044 82.4895C80.613 82.0656 80.4229 81.5804 80.3487 81.0713C80.2744 80.5623 80.318 80.043 80.4763 79.5535Z" fill="#22272E"/>
<path d="M79.2421 83.3918L0 90.795L135.863 124.247C139.148 125.071 142.586 125.071 145.871 124.247L219.629 105.19L79.2421 83.3918Z" fill="#63687A"/>
<path d="M136 124.247L0.137207 90.7956C0.14635 92.0492 0.567315 93.2651 1.33526 94.2559C2.1032 95.2468 3.17555 95.9578 4.38722 96.2795L132.436 130.28C137.841 131.698 143.532 131.603 148.888 130.005L216.065 110.263C217.19 109.94 218.176 109.254 218.871 108.312C219.565 107.369 219.928 106.224 219.904 105.054L146.146 124.11C142.834 125.044 139.336 125.091 136 124.247Z" fill="#22272E"/>
<path d="M170 17.4479L160.403 50.077C160.263 50.4748 160.003 50.8197 159.66 51.065C159.316 51.3102 158.906 51.4439 158.484 51.448L104.605 46.7866C104.333 46.7659 104.069 46.6854 103.832 46.5509C103.595 46.4164 103.391 46.2312 103.234 46.0085C103.077 45.7859 102.971 45.5313 102.923 45.2629C102.876 44.9945 102.888 44.719 102.96 44.456L112.008 14.5688C112.119 14.1797 112.353 13.8366 112.674 13.5898C112.994 13.3431 113.386 13.2057 113.79 13.1978L168.218 15.1172C168.499 15.1258 168.774 15.1969 169.024 15.3252C169.274 15.4535 169.492 15.6358 169.663 15.859C169.834 16.0822 169.952 16.3406 170.011 16.6154C170.069 16.8902 170.065 17.1746 170 17.4479Z" fill="white"/>
<path d="M159.718 23.3436L153.686 42.9484L111.734 39.9323L113.242 35.5452L128.734 28.6903L137.508 35.5452L159.718 23.3436Z" fill="#F4C2C9"/>
<path d="M128.323 63.3759L124.347 75.7146C124.207 76.1309 123.922 76.4836 123.546 76.7097C123.169 76.9358 122.724 77.0204 122.291 76.9485L96.3793 73.5211C96.1133 73.496 95.8566 73.411 95.6282 73.2724C95.3998 73.1339 95.2057 72.9454 95.0606 72.7211C94.9155 72.4968 94.823 72.2426 94.7902 71.9775C94.7574 71.7124 94.7851 71.4433 94.8712 71.1904L98.2987 59.6743C98.4393 59.2765 98.6989 58.9315 99.0422 58.6863C99.3856 58.441 99.7961 58.3073 100.218 58.3033L126.678 61.0453C126.961 61.0341 127.243 61.0939 127.497 61.2194C127.751 61.3448 127.97 61.5319 128.134 61.7635C128.297 61.9952 128.4 62.2641 128.433 62.5457C128.466 62.8273 128.428 63.1127 128.323 63.3759Z" fill="#FFE779"/>
<path d="M168.904 67.4884L164.517 81.061C164.377 81.4773 164.093 81.8301 163.716 82.0561C163.339 82.2822 162.894 82.3668 162.461 82.2949L137.783 79.0046C137.508 78.9698 137.243 78.8735 137.01 78.7227C136.777 78.5719 136.581 78.3705 136.436 78.1335C136.291 77.8964 136.201 77.6298 136.173 77.3535C136.146 77.0771 136.18 76.798 136.275 76.5369L140.388 63.7868C140.513 63.3892 140.774 63.0479 141.124 62.8225C141.475 62.597 141.894 62.5017 142.307 62.5529L167.259 65.0207C167.547 65.0361 167.827 65.1184 168.077 65.261C168.327 65.4036 168.54 65.6026 168.7 65.8422C168.86 66.0818 168.962 66.3554 168.997 66.6412C169.032 66.927 169.001 67.2171 168.904 67.4884Z" fill="#6D7AAF"/>
<path d="M215.517 72.1497L210.855 87.2304C210.715 87.6467 210.431 87.9994 210.054 88.2255C209.677 88.4516 209.232 88.5362 208.799 88.4643L179.049 84.4885C178.773 84.4537 178.509 84.3574 178.276 84.2066C178.042 84.0558 177.846 83.8544 177.701 83.6173C177.556 83.3803 177.467 83.1137 177.439 82.8373C177.411 82.561 177.446 82.2818 177.541 82.0207L182.065 67.8998C182.19 67.5021 182.451 67.1608 182.801 66.9354C183.152 66.7099 183.571 66.6146 183.984 66.6659L213.734 69.682C214.029 69.688 214.319 69.7624 214.581 69.8994C214.842 70.0364 215.068 70.2323 215.241 70.4715C215.414 70.7108 215.528 70.9869 215.576 71.2782C215.624 71.5694 215.604 71.8677 215.517 72.1497Z" fill="#F4C2C9"/>
<path d="M199.477 24.0287C198.937 26.0737 197.723 27.8766 196.031 29.1456C194.339 30.4145 192.268 31.0752 190.154 31.0207C186.178 30.7465 184.122 27.319 185.219 23.4803C185.825 21.6507 186.978 20.0514 188.523 18.8989C190.068 17.7464 191.929 17.0964 193.856 17.0368C194.728 17.0018 195.595 17.1716 196.389 17.5327C197.184 17.8938 197.882 18.4361 198.429 19.116C198.975 19.796 199.355 20.5946 199.537 21.4478C199.719 22.3009 199.698 23.1849 199.477 24.0287Z" fill="#FFE779"/>
<path d="M209.21 19.5051L229.226 20.1906" stroke="#63687A" stroke-width="1.8" stroke-linecap="round" stroke-linejoin="round"/>
<path d="M177.952 45.5536L220.864 48.5697" stroke="#63687A" stroke-width="1.8" stroke-linecap="round" stroke-linejoin="round"/>
<path d="M206.88 27.593L226.896 28.4156" stroke="#63687A" stroke-width="1.8" stroke-linecap="round" stroke-linejoin="round"/>
</svg>
