<svg width="248" height="166" viewBox="0 0 248 166" fill="none" xmlns="http://www.w3.org/2000/svg">
<path d="M217.414 149.105L26.3913 143.631C22.0963 143.512 17.9922 141.831 14.8477 138.903C11.7032 135.975 9.73421 132.001 9.30951 127.725L0.0890008 36.6219C-0.156482 34.1833 0.107201 31.7203 0.863338 29.3889C1.61947 27.0575 2.85158 24.9086 4.48161 23.0783C6.11164 21.2479 8.10404 19.7761 10.3326 18.756C12.5612 17.7359 14.9773 17.1898 17.428 17.1523L230.051 14.2135C232.579 14.1793 235.086 14.687 237.401 15.7024C239.717 16.7178 241.789 18.2173 243.477 20.1001C245.165 21.983 246.43 24.2054 247.187 26.618C247.944 29.0307 248.176 31.5775 247.867 34.0872L235.487 133.603C234.936 137.969 232.78 141.973 229.44 144.839C226.099 147.704 221.813 149.224 217.414 149.105Z" fill="#EAEDF9"/>
<mask id="mask0_348_6294" style="mask-type:luminance" maskUnits="userSpaceOnUse" x="0" y="14" width="248" height="136">
<path d="M217.414 149.105L26.3913 143.631C22.0963 143.512 17.9922 141.831 14.8477 138.903C11.7032 135.975 9.73421 132.001 9.30951 127.725L0.0890008 36.6219C-0.156482 34.1833 0.107201 31.7203 0.863338 29.3889C1.61947 27.0575 2.85158 24.9086 4.48161 23.0783C6.11164 21.2479 8.10404 19.7761 10.3326 18.756C12.5612 17.7359 14.9773 17.1898 17.428 17.1523L230.051 14.2135C232.579 14.1793 235.086 14.687 237.401 15.7024C239.717 16.7178 241.789 18.2173 243.477 20.1001C245.165 21.983 246.43 24.2054 247.187 26.618C247.944 29.0307 248.176 31.5775 247.867 34.0872L235.487 133.603C234.936 137.969 232.78 141.973 229.44 144.839C226.099 147.704 221.813 149.224 217.414 149.105Z" fill="white"/>
</mask>
<g mask="url(#mask0_348_6294)">
<path d="M61.51 165.636H-91.1243C-92.5857 165.636 -93.9872 165.055 -95.0206 164.022C-96.054 162.988 -96.6345 161.587 -96.6345 160.125V73.5774C-96.6345 72.116 -96.054 70.7144 -95.0206 69.6811C-93.9872 68.6477 -92.5857 68.0671 -91.1243 68.0671H61.51C62.9714 68.0671 64.373 68.6477 65.4063 69.6811C66.4397 70.7144 67.0203 72.116 67.0203 73.5774V160.125C67.0203 161.587 66.4397 162.988 65.4063 164.022C64.373 165.055 62.9714 165.636 61.51 165.636Z" stroke="#B8BED8" stroke-width="1.8" stroke-linecap="round" stroke-linejoin="round"/>
<path d="M263.222 159.831H109.266C107.804 159.831 106.403 159.251 105.369 158.217C104.336 157.184 103.755 155.783 103.755 154.321V27.8422C103.755 26.3808 104.336 24.9793 105.369 23.9459C106.403 22.9125 107.804 22.332 109.266 22.332H263.222C264.684 22.332 266.085 22.9125 267.119 23.9459C268.152 24.9793 268.733 26.3808 268.733 27.8422V154.321C268.733 155.783 268.152 157.184 267.119 158.217C266.085 159.251 264.684 159.831 263.222 159.831Z" stroke="#B8BED8" stroke-width="1.8" stroke-linecap="round" stroke-linejoin="round"/>
<path d="M19.3381 68.0671H11.8809C11.4923 68.0682 11.1169 67.9266 10.8258 67.6693C10.5347 67.4121 10.348 67.0569 10.3013 66.6712L9.7135 61.3814C9.68926 61.1594 9.71204 60.9348 9.78035 60.7221C9.84866 60.5095 9.96097 60.3137 10.11 60.1474C10.259 59.981 10.4413 59.8479 10.6452 59.7567C10.849 59.6656 11.0698 59.6183 11.2931 59.6181H19.9259C20.149 59.6189 20.3695 59.6665 20.573 59.7579C20.7766 59.8493 20.9587 59.9824 21.1076 60.1486C21.2565 60.3148 21.3689 60.5104 21.4374 60.7227C21.5059 60.9351 21.5291 61.1595 21.5055 61.3814L20.9177 66.6712C20.8643 67.0541 20.6757 67.4052 20.386 67.6612C20.0963 67.9172 19.7246 68.0612 19.3381 68.0671Z" stroke="#B8BED8" stroke-width="1.8" stroke-linecap="round" stroke-linejoin="round"/>
<path d="M14.7094 59.6181C14.7094 59.6181 11.7706 59.3242 11.1829 55.3568C11.1829 55.3568 13.8278 56.1282 14.6727 58.0017C14.6727 58.0017 15.04 53.8139 17.0237 53.4099C17.0237 53.4099 17.9054 56.5323 16.5094 58.0752C16.5094 58.0752 17.5748 56.3119 20.2932 56.3487C20.0363 57.1223 19.5941 57.8214 19.005 58.3849C18.4159 58.9484 17.6979 59.3591 16.9135 59.5814" fill="#B8BED8"/>
<path d="M60.3344 86.3245H27.1994C26.7911 86.3216 26.4003 86.1581 26.1116 85.8694C25.8229 85.5807 25.6594 85.1899 25.6565 84.7816V74.7162C25.6594 74.3079 25.8229 73.9171 26.1116 73.6284C26.4003 73.3397 26.7911 73.1762 27.1994 73.1733H60.3344C60.7427 73.1762 61.1335 73.3397 61.4222 73.6284C61.7109 73.9171 61.8744 74.3079 61.8773 74.7162V84.7816C61.8823 84.9856 61.8459 85.1885 61.7701 85.378C61.6944 85.5674 61.5809 85.7395 61.4366 85.8838C61.2923 86.0281 61.1202 86.1416 60.9308 86.2173C60.7413 86.2931 60.5384 86.3295 60.3344 86.3245Z" stroke="#B8BED8" stroke-width="1.8" stroke-linecap="round" stroke-linejoin="round"/>
<path d="M47.5874 76.6999H39.9465C39.8016 76.6962 39.6636 76.6369 39.561 76.5344C39.4585 76.4318 39.3992 76.2938 39.3955 76.1489C39.3992 76.0039 39.4585 75.8659 39.561 75.7634C39.6636 75.6608 39.8016 75.6016 39.9465 75.5978H47.5874C47.7324 75.6016 47.8704 75.6608 47.9729 75.7634C48.0755 75.8659 48.1347 76.0039 48.1385 76.1489C48.14 76.2216 48.1267 76.294 48.0996 76.3615C48.0724 76.429 48.0319 76.4904 47.9804 76.5418C47.9289 76.5933 47.8676 76.6339 47.8001 76.661C47.7325 76.6882 47.6602 76.7014 47.5874 76.6999Z" fill="#B8BED8"/>
<path d="M60.3344 103.149H27.1994C26.7911 103.146 26.4003 102.983 26.1116 102.694C25.8229 102.405 25.6594 102.015 25.6565 101.606V91.5409C25.6594 91.1326 25.8229 90.7418 26.1116 90.4531C26.4003 90.1643 26.7911 90.0009 27.1994 89.998H60.3344C60.7427 90.0009 61.1335 90.1643 61.4222 90.4531C61.7109 90.7418 61.8744 91.1326 61.8773 91.5409V101.606C61.8823 101.81 61.8459 102.013 61.7701 102.203C61.6944 102.392 61.5809 102.564 61.4366 102.708C61.2923 102.853 61.1202 102.966 60.9308 103.042C60.7413 103.118 60.5384 103.154 60.3344 103.149Z" stroke="#B8BED8" stroke-width="1.8" stroke-linecap="round" stroke-linejoin="round"/>
<path d="M47.5874 93.5246H39.9465C39.8016 93.5208 39.6636 93.4616 39.561 93.3591C39.4585 93.2565 39.3992 93.1185 39.3955 92.9735C39.3992 92.8286 39.4585 92.6906 39.561 92.588C39.6636 92.4855 39.8016 92.4262 39.9465 92.4225H47.5874C47.7324 92.4262 47.8704 92.4855 47.9729 92.588C48.0755 92.6906 48.1347 92.8286 48.1385 92.9735C48.14 93.0463 48.1267 93.1186 48.0996 93.1862C48.0724 93.2537 48.0319 93.3151 47.9804 93.3665C47.9289 93.418 47.8676 93.4585 47.8001 93.4857C47.7325 93.5128 47.6602 93.5261 47.5874 93.5246Z" fill="#B8BED8"/>
<path d="M230.491 115.015H197.356C196.948 115.012 196.557 114.848 196.269 114.559C195.98 114.271 195.816 113.88 195.813 113.472V103.406C195.816 102.998 195.98 102.607 196.269 102.318C196.557 102.03 196.948 101.866 197.356 101.863H230.491C230.9 101.866 231.29 102.03 231.579 102.318C231.868 102.607 232.031 102.998 232.034 103.406V113.472C232.039 113.676 232.003 113.879 231.927 114.068C231.851 114.257 231.738 114.43 231.594 114.574C231.449 114.718 231.277 114.832 231.088 114.907C230.898 114.983 230.695 115.02 230.491 115.015Z" stroke="#B8BED8" stroke-width="1.8" stroke-linecap="round" stroke-linejoin="round"/>
<path d="M217.744 105.427H210.103C209.958 105.423 209.82 105.364 209.718 105.261C209.615 105.159 209.556 105.021 209.552 104.876C209.556 104.731 209.615 104.593 209.718 104.49C209.82 104.388 209.958 104.328 210.103 104.325H217.744C217.889 104.328 218.027 104.388 218.13 104.49C218.232 104.593 218.291 104.731 218.295 104.876C218.291 105.021 218.232 105.159 218.13 105.261C218.027 105.364 217.889 105.423 217.744 105.427Z" fill="#B8BED8"/>
<path d="M187.952 115.015H154.817C154.409 115.012 154.018 114.848 153.729 114.559C153.441 114.271 153.277 113.88 153.274 113.472V103.406C153.277 102.998 153.441 102.607 153.729 102.318C154.018 102.03 154.409 101.866 154.817 101.863H187.952C188.36 101.866 188.751 102.03 189.04 102.318C189.329 102.607 189.492 102.998 189.495 103.406V113.472C189.492 113.88 189.329 114.271 189.04 114.559C188.751 114.848 188.36 115.012 187.952 115.015Z" stroke="#B8BED8" stroke-width="1.8" stroke-linecap="round" stroke-linejoin="round"/>
<path d="M175.205 105.427H167.564C167.419 105.423 167.281 105.364 167.179 105.261C167.076 105.159 167.017 105.021 167.013 104.876C167.017 104.731 167.076 104.593 167.179 104.49C167.281 104.388 167.419 104.328 167.564 104.325H175.205C175.35 104.328 175.488 104.388 175.591 104.49C175.693 104.593 175.752 104.731 175.756 104.876C175.752 105.021 175.693 105.159 175.591 105.261C175.488 105.364 175.35 105.423 175.205 105.427Z" fill="#B8BED8"/>
<path d="M18.0891 86.3245H-15.046C-15.4543 86.3216 -15.8451 86.1581 -16.1338 85.8694C-16.4225 85.5807 -16.586 85.1899 -16.5889 84.7816V74.7162C-16.586 74.3079 -16.4225 73.9171 -16.1338 73.6284C-15.8451 73.3397 -15.4543 73.1762 -15.046 73.1733H18.0891C18.4974 73.1762 18.8881 73.3397 19.1768 73.6284C19.4656 73.9171 19.629 74.3079 19.6319 74.7162V84.7816C19.637 84.9856 19.6005 85.1885 19.5247 85.378C19.449 85.5674 19.3355 85.7395 19.1912 85.8838C19.047 86.0281 18.8749 86.1416 18.6854 86.2173C18.4959 86.2931 18.293 86.3295 18.0891 86.3245Z" stroke="#B8BED8" stroke-width="1.8" stroke-linecap="round" stroke-linejoin="round"/>
<path d="M5.34207 76.6999H-2.29883C-2.4438 76.6962 -2.5818 76.6369 -2.68434 76.5344C-2.78689 76.4318 -2.84613 76.2938 -2.84985 76.1489C-2.84613 76.0039 -2.78689 75.8659 -2.68434 75.7634C-2.5818 75.6608 -2.4438 75.6016 -2.29883 75.5978H5.34207C5.48704 75.6016 5.62505 75.6608 5.72759 75.7634C5.83013 75.8659 5.88938 76.0039 5.8931 76.1489C5.89737 76.2223 5.88604 76.2959 5.85986 76.3647C5.83368 76.4335 5.79324 76.4959 5.74119 76.548C5.68915 76.6 5.62668 76.6405 5.55789 76.6667C5.4891 76.6928 5.41555 76.7042 5.34207 76.6999Z" fill="#B8BED8"/>
<path d="M18.0891 103.149H-15.046C-15.4543 103.146 -15.8451 102.983 -16.1338 102.694C-16.4225 102.405 -16.586 102.015 -16.5889 101.606V91.5409C-16.586 91.1326 -16.4225 90.7418 -16.1338 90.4531C-15.8451 90.1643 -15.4543 90.0009 -15.046 89.998H18.0891C18.4974 90.0009 18.8881 90.1643 19.1768 90.4531C19.4656 90.7418 19.629 91.1326 19.6319 91.5409V101.606C19.637 101.81 19.6005 102.013 19.5247 102.203C19.449 102.392 19.3355 102.564 19.1912 102.708C19.047 102.853 18.8749 102.966 18.6854 103.042C18.4959 103.118 18.293 103.154 18.0891 103.149Z" stroke="#B8BED8" stroke-width="1.8" stroke-linecap="round" stroke-linejoin="round"/>
<path d="M5.34207 93.5246H-2.29883C-2.4438 93.5208 -2.5818 93.4616 -2.68434 93.3591C-2.78689 93.2565 -2.84613 93.1185 -2.84985 92.9735C-2.84613 92.8286 -2.78689 92.6906 -2.68434 92.588C-2.5818 92.4855 -2.4438 92.4262 -2.29883 92.4225H5.34207C5.48704 92.4262 5.62505 92.4855 5.72759 92.588C5.83013 92.6906 5.88938 92.8286 5.8931 92.9735C5.89737 93.047 5.88604 93.1206 5.85986 93.1894C5.83368 93.2581 5.79324 93.3206 5.74119 93.3727C5.68915 93.4247 5.62668 93.4651 5.55789 93.4913C5.4891 93.5175 5.41555 93.5288 5.34207 93.5246Z" fill="#B8BED8"/>
<path d="M278.725 60.8303H111.58C111.133 60.8256 110.706 60.646 110.39 60.3301C110.074 60.0143 109.895 59.5872 109.89 59.1405V29.8627C109.895 29.416 110.074 28.9889 110.39 28.6731C110.706 28.3572 111.133 28.1776 111.58 28.1729H278.725C279.171 28.1776 279.598 28.3572 279.914 28.6731C280.23 28.9889 280.41 29.416 280.414 29.8627V59.1405C280.418 59.3634 280.377 59.5847 280.293 59.7913C280.209 59.9979 280.085 60.1855 279.927 60.3431C279.77 60.5007 279.582 60.6251 279.375 60.7088C279.169 60.7925 278.947 60.8338 278.725 60.8303Z" stroke="#B8BED8" stroke-width="1.8" stroke-linecap="round" stroke-linejoin="round"/>
<path d="M278.725 97.1981H111.58C111.133 97.1933 110.706 97.0137 110.39 96.6979C110.074 96.382 109.895 95.9549 109.89 95.5083V66.2304C109.895 65.7837 110.074 65.3567 110.39 65.0408C110.706 64.7249 111.133 64.5454 111.58 64.5406H278.725C279.171 64.5454 279.598 64.7249 279.914 65.0408C280.23 65.3567 280.41 65.7837 280.414 66.2304V95.5083C280.415 95.7303 280.371 95.9503 280.287 96.1555C280.202 96.3607 280.078 96.5472 279.921 96.7042C279.764 96.8612 279.577 96.9857 279.372 97.0704C279.167 97.1552 278.947 97.1986 278.725 97.1981Z" stroke="#B8BED8" stroke-width="1.8" stroke-linecap="round" stroke-linejoin="round"/>
<path d="M124.805 42.3526H121.168V60.8303H124.805V42.3526Z" stroke="#B8BED8" stroke-width="1.8" stroke-linecap="round" stroke-linejoin="round"/>
<path d="M128.552 47.3853H124.768V60.8303H128.552V47.3853Z" stroke="#B8BED8" stroke-width="1.8" stroke-linecap="round" stroke-linejoin="round"/>
<path d="M234.385 78.6469H230.749V97.1246H234.385V78.6469Z" stroke="#B8BED8" stroke-width="1.8" stroke-linecap="round" stroke-linejoin="round"/>
<path d="M238.169 83.6795H234.385V97.1246H238.169V83.6795Z" stroke="#B8BED8" stroke-width="1.8" stroke-linecap="round" stroke-linejoin="round"/>
<path d="M227.002 78.6469H223.365V97.1246H227.002V78.6469Z" stroke="#B8BED8" stroke-width="1.8" stroke-linecap="round" stroke-linejoin="round"/>
<path d="M219.935 78.226L214.373 95.8466L217.841 96.9414L223.403 79.3208L219.935 78.226Z" stroke="#B8BED8" stroke-width="1.8" stroke-linecap="round" stroke-linejoin="round"/>
<path d="M230.785 83.6795H227.001V97.1246H230.785V83.6795Z" stroke="#B8BED8" stroke-width="1.8" stroke-linecap="round" stroke-linejoin="round"/>
<path d="M185.344 42.3526H181.707V60.8303H185.344V42.3526Z" stroke="#B8BED8" stroke-width="1.8" stroke-linecap="round" stroke-linejoin="round"/>
<path d="M189.128 47.3853H185.344V60.8303H189.128V47.3853Z" stroke="#B8BED8" stroke-width="1.8" stroke-linecap="round" stroke-linejoin="round"/>
<path d="M149.417 42.3526H145.78V60.8303H149.417V42.3526Z" stroke="#B8BED8" stroke-width="1.8" stroke-linecap="round" stroke-linejoin="round"/>
<path d="M142.353 41.9296L136.79 59.5502L140.258 60.645L145.821 43.0244L142.353 41.9296Z" stroke="#B8BED8" stroke-width="1.8" stroke-linecap="round" stroke-linejoin="round"/>
<path d="M153.201 47.3853H149.417V60.8303H153.201V47.3853Z" stroke="#B8BED8" stroke-width="1.8" stroke-linecap="round" stroke-linejoin="round"/>
<path d="M234.349 44.7771L234.753 39.3036C234.76 39.2179 234.75 39.1315 234.722 39.0502C234.694 38.9689 234.649 38.8945 234.59 38.8319C234.531 38.7694 234.459 38.7201 234.379 38.6874C234.3 38.6548 234.214 38.6394 234.128 38.6424H230.969C230.884 38.6427 230.8 38.6604 230.722 38.6942C230.644 38.728 230.573 38.7774 230.515 38.8392C230.457 38.901 230.411 38.9741 230.382 39.0539C230.353 39.1337 230.34 39.2187 230.344 39.3036L230.748 44.7771C230.748 44.7771 227.442 46.9077 227.479 48.671C227.516 50.0302 228.324 56.5323 228.691 59.3977C228.738 59.7834 228.925 60.1385 229.216 60.3958C229.507 60.6531 229.882 60.7946 230.271 60.7936H234.826C235.215 60.7946 235.59 60.6531 235.881 60.3958C236.172 60.1385 236.359 59.7834 236.406 59.3977C236.773 56.5323 237.581 50.0302 237.618 48.671C237.655 46.9077 234.349 44.7771 234.349 44.7771Z" fill="#B8BED8"/>
<path d="M219.691 44.7771L220.095 39.3036C220.103 39.2179 220.093 39.1315 220.065 39.0502C220.037 38.9689 219.992 38.8945 219.932 38.8319C219.873 38.7694 219.802 38.7201 219.722 38.6874C219.643 38.6548 219.557 38.6394 219.471 38.6424H216.312C216.227 38.6427 216.143 38.6604 216.065 38.6942C215.987 38.728 215.916 38.7774 215.858 38.8392C215.799 38.901 215.754 38.9741 215.725 39.0539C215.696 39.1337 215.683 39.2187 215.687 39.3036L216.091 44.7771C216.091 44.7771 212.785 46.9077 212.822 48.671C212.859 50.0302 213.667 56.5323 214.034 59.3977C214.081 59.7834 214.268 60.1385 214.559 60.3958C214.85 60.6531 215.225 60.7946 215.614 60.7936H220.169C220.557 60.7946 220.933 60.6531 221.224 60.3958C221.515 60.1385 221.702 59.7834 221.748 59.3977C222.116 56.5323 222.924 50.0302 222.961 48.671C222.997 46.9077 219.691 44.7771 219.691 44.7771Z" fill="#B8BED8"/>
<path d="M-0.462158 131.876H350.652" stroke="#B8BED8" stroke-width="1.8" stroke-linecap="round" stroke-linejoin="round"/>
</g>
<path d="M125.98 99.7695L125.503 102.084C125.404 102.558 125.146 102.984 124.772 103.291C124.398 103.599 123.93 103.769 123.445 103.774H118.707C118.222 103.77 117.753 103.6 117.379 103.293C117.005 102.985 116.747 102.558 116.649 102.084L116.172 99.7695L121.058 99.5491L125.98 99.7695Z" fill="#22272E"/>
<path d="M122.343 102.635H119.698V140.839H122.343V102.635Z" fill="#22272E"/>
<path d="M122.307 143.264H119.772C119.568 143.263 119.372 143.181 119.228 143.037C119.083 142.892 119.001 142.697 119 142.492V135.256C119.001 135.051 119.083 134.856 119.228 134.711C119.372 134.567 119.568 134.485 119.772 134.484H122.307C122.511 134.485 122.707 134.567 122.851 134.711C122.996 134.856 123.077 135.051 123.078 135.256V142.492C123.064 142.692 122.979 142.881 122.837 143.023C122.695 143.164 122.507 143.25 122.307 143.264Z" fill="#22272E"/>
<path d="M121.315 141.06C121.315 141.06 118.633 143.227 117.2 151.346" stroke="#22272E" stroke-width="4" stroke-linecap="round" stroke-linejoin="round"/>
<path d="M120.36 141.537C120.36 141.537 112.278 139.59 107.87 149.178" stroke="#22272E" stroke-width="4" stroke-linecap="round" stroke-linejoin="round"/>
<path d="M121.756 141.354C121.756 141.354 128.992 140.068 133.548 150.354" stroke="#22272E" stroke-width="4" stroke-linecap="round" stroke-linejoin="round"/>
<path d="M107.87 152.448C109.675 152.448 111.139 150.984 111.139 149.178C111.139 147.373 109.675 145.909 107.87 145.909C106.064 145.909 104.6 147.373 104.6 149.178C104.6 150.984 106.064 152.448 107.87 152.448Z" fill="#6D7AAF"/>
<path d="M132.152 152.448C133.957 152.448 135.421 150.984 135.421 149.178C135.421 147.373 133.957 145.909 132.152 145.909C130.346 145.909 128.882 147.373 128.882 149.178C128.882 150.984 130.346 152.448 132.152 152.448Z" stroke="#22272E" stroke-width="1.8" stroke-linecap="round" stroke-linejoin="round"/>
<path d="M116.796 156.929C118.602 156.929 120.066 155.466 120.066 153.66C120.066 151.854 118.602 150.39 116.796 150.39C114.991 150.39 113.527 151.854 113.527 153.66C113.527 155.466 114.991 156.929 116.796 156.929Z" fill="#6D7AAF"/>
<path d="M121.094 100.467C133.45 100.467 143.466 98.4939 143.466 96.0593C143.466 93.6247 133.45 91.6511 121.094 91.6511C108.739 91.6511 98.7227 93.6247 98.7227 96.0593C98.7227 98.4939 108.739 100.467 121.094 100.467Z" fill="#FFE779"/>
<path d="M121.094 98.1899C133.45 98.1899 143.466 96.2163 143.466 93.7817C143.466 91.3471 133.45 89.3735 121.094 89.3735C108.739 89.3735 98.7227 91.3471 98.7227 93.7817C98.7227 96.2163 108.739 98.1899 121.094 98.1899Z" fill="#22272E"/>
<path d="M94.498 144.219C94.7552 145.946 95.0858 148.37 94.9389 149.252C94.9389 149.252 95.5634 150.758 99.0165 150.537C102.47 150.317 104.233 148.443 104.233 148.443C104.233 148.443 104.123 146.386 103.976 144.292C100.843 144.894 97.6214 144.869 94.498 144.219Z" fill="#F4C2C9"/>
<path d="M94.2041 142.419C94.2041 142.419 94.3511 143.19 94.498 144.256C97.6337 144.906 100.867 144.931 104.012 144.329C103.902 142.272 103.792 140.178 103.792 139.737C103.755 138.819 93.7633 139.664 94.2041 142.419Z" fill="#E26E85"/>
<path d="M94.9757 148.444C94.67 149.298 94.4125 150.169 94.2043 151.052C93.6533 153.146 88.5471 158.876 88.694 160.125C88.841 161.374 89.7593 162.513 93.5431 162.513C97.3268 162.513 101.808 162.733 103.057 162.219C103.51 161.981 103.891 161.626 104.159 161.191C105.098 159.814 105.503 158.142 105.298 156.489C105.004 153.807 104.49 149.362 104.49 148.958C104.492 148.587 104.403 148.222 104.233 147.893C104.233 147.893 103.204 149.325 101.955 149.582C100.706 149.839 100.596 148.297 98.6125 147.893C96.6288 147.488 95.7472 149.362 95.4166 149.435C95.0492 149.435 94.9757 148.737 94.9757 148.444Z" fill="#22272E"/>
<path d="M136.964 146.864C137.588 144.99 138.213 143.043 138.397 142.345C138.801 140.913 128.919 138.966 128.258 142.015L127.89 143.778C130.352 145.835 133.768 147.709 136.964 146.864Z" fill="#E26E85"/>
<path d="M127.89 143.778L126.751 149.141C126.751 149.141 127.339 150.207 130.021 151.015C132.703 151.823 135.605 151.015 135.605 151.015C135.605 151.015 136.266 148.958 136.964 146.827C133.768 147.709 130.351 145.835 127.89 143.778Z" fill="#F4C2C9"/>
<path d="M127.119 147.488C126.592 148.135 126.181 148.868 125.907 149.656C125.319 151.125 119.184 158.178 119.074 159.391C118.964 160.603 120.213 161.778 121.498 162.219C122.784 162.66 131.454 163.762 133.033 163.211C134.613 162.66 135.384 159.391 135.421 156.011C135.485 153.712 135.768 151.424 136.266 149.178C136.131 149.48 135.928 149.746 135.673 149.956C135.418 150.166 135.118 150.315 134.797 150.39C133.695 150.684 133.29 148.223 131.49 147.378C129.69 146.533 127.927 148.333 127.523 148.627C127.119 148.921 127.045 147.782 127.119 147.488Z" fill="#22272E"/>
<path d="M109.119 75.5243C109.119 75.5243 105.482 78.4631 101.221 81.5122C96.9594 84.5612 84.2124 91.651 84.2491 99.5491C84.2858 104.472 87.041 120.121 88.8043 127.872C90.5675 135.623 88.5838 138.782 90.8982 141.501C93.2125 144.219 100.082 143.521 103.021 142.309C105.96 141.096 107.613 138.047 106.18 133.566C104.747 129.084 103.719 120.929 104.233 114.831C104.537 110.76 104.574 106.674 104.343 102.598C106.276 101.423 108.318 100.439 110.441 99.6593C112.285 99.0222 114.088 98.2739 115.841 97.4185C115.841 97.4185 127.045 97.3082 127.743 97.6389C128.441 97.9695 132.115 104.141 132.335 105.059C132.335 105.059 131.637 107.521 130.903 116.557C130.168 125.594 125.172 134.594 126.09 138.341C127.009 142.088 129.25 143.741 132.299 144.66C135.348 145.578 139.719 145.468 141.666 141.317C143.613 137.166 145.009 127.247 146.956 121.664C148.903 116.08 151.952 106.786 151.731 102.414C151.511 98.0429 145.854 82.8714 142.437 77.5815C139.021 72.2917 111.911 69.5733 109.119 75.5243Z" fill="#22272E"/>
<path d="M104.306 102.635C104.306 102.635 104.086 100.174 103.755 99.2552" stroke="#63687A" stroke-width="1.8" stroke-linecap="round" stroke-linejoin="round"/>
<path d="M132.335 105.059C132.335 105.059 132.923 102.341 133.584 100.908" stroke="#63687A" stroke-width="1.8" stroke-linecap="round" stroke-linejoin="round"/>
<path d="M92.9552 106.088C96.2419 106.088 98.9063 103.424 98.9063 100.137C98.9063 96.8502 96.2419 94.1858 92.9552 94.1858C89.6685 94.1858 87.0042 96.8502 87.0042 100.137C87.0042 103.424 89.6685 106.088 92.9552 106.088Z" stroke="#63687A" stroke-width="1.8" stroke-linecap="round" stroke-linejoin="round"/>
<path d="M142.841 107.594C146.128 107.594 148.793 104.93 148.793 101.643C148.793 98.3563 146.128 95.6919 142.841 95.6919C139.555 95.6919 136.89 98.3563 136.89 101.643C136.89 104.93 139.555 107.594 142.841 107.594Z" stroke="#63687A" stroke-width="1.8" stroke-linecap="round" stroke-linejoin="round"/>
<path d="M94.1675 154.027C94.1675 154.027 97.5104 151.493 102.249 154.284" stroke="white" stroke-width="1.8" stroke-linecap="round" stroke-linejoin="round"/>
<path d="M92.9553 156.488C92.9553 156.488 96.2982 153.954 101.037 156.746" stroke="white" stroke-width="1.8" stroke-linecap="round" stroke-linejoin="round"/>
<path d="M125.503 152.962C125.503 152.962 129.727 151.088 133.842 155.166" stroke="white" stroke-width="1.8" stroke-linecap="round" stroke-linejoin="round"/>
<path d="M124.253 155.35C124.253 155.35 128.478 153.476 132.592 157.554" stroke="white" stroke-width="1.8" stroke-linecap="round" stroke-linejoin="round"/>
<path d="M102.359 61.8222C102.359 61.8222 101.478 61.3814 100.67 59.4711C99.8614 57.5609 102.58 56.9364 102.837 58.0017C103.094 59.067 102.359 61.8222 102.359 61.8222Z" fill="#22272E"/>
<path d="M88.8777 58.112C88.8777 58.112 90.3471 61.5651 95.49 61.4916C99.5309 61.4549 111.543 57.4875 112.315 57.1569C113.086 56.8263 116.87 52.0874 115.547 46.9813C114.225 41.8751 110.588 42.2792 110.588 42.2792C110.588 42.2792 106.327 43.8221 98.2819 49.4793C90.2369 55.1365 89.0246 55.3936 88.8777 58.112Z" fill="#F4C2C9"/>
<path d="M101.037 54.4017C101.037 54.4017 102.139 58.516 102.36 61.8222C102.36 61.8222 112.645 58.2589 113.527 57.5242C114.409 56.7895 116.319 49.8465 114.666 46.3934C113.013 42.9403 110.772 41.6546 110.772 41.6546C107.605 43.3568 104.527 45.2205 101.551 47.2383C96.7758 50.5078 101.037 54.4017 101.037 54.4017Z" fill="#6D7AAF"/>
<path d="M104.453 61.0875C104.453 61.0875 103.829 53.0793 101.184 47.2384" stroke="#22272E" stroke-width="1.8" stroke-linecap="round" stroke-linejoin="round"/>
<path d="M147.213 43.7485C142.107 39.524 135.2 40.5526 131.747 40.6995C128.294 40.8464 125.245 40.626 118.559 40.0383C114.923 39.7077 112.572 40.5158 111.176 41.3607C110.126 41.9917 109.362 43.0059 109.045 44.1893C108.516 46.527 108.27 48.9196 108.31 51.3159C108.386 53.5095 108.619 55.6947 109.008 57.8548C109.302 60.7569 109.559 63.8426 109.559 65.2385C109.559 68.2875 107.319 75.4142 107.429 77.9489C107.539 80.4836 114.666 82.651 121.388 82.9448C128.111 83.2387 139.609 80.1897 141.556 79.6754C143.503 79.1611 143.429 77.1407 142.878 73.5774C142.474 71.0427 142.547 64.5773 143.172 59.1038C144.237 60.0221 145.743 61.3079 147.103 62.5201C150.041 59.4344 153.348 56.5691 156.544 53.6302C153.237 49.5894 149.601 45.7322 147.213 43.7485Z" fill="#FFE779"/>
<mask id="mask1_348_6294" style="mask-type:luminance" maskUnits="userSpaceOnUse" x="107" y="39" width="50" height="44">
<path d="M147.213 43.7485C142.107 39.524 135.2 40.5526 131.747 40.6995C128.294 40.8464 125.245 40.626 118.559 40.0383C114.923 39.7077 112.572 40.5158 111.176 41.3607C110.126 41.9917 109.362 43.0059 109.045 44.1893C108.516 46.527 108.27 48.9196 108.31 51.3159C108.386 53.5095 108.619 55.6947 109.008 57.8548C109.302 60.7569 109.559 63.8426 109.559 65.2385C109.559 68.2875 107.319 75.4142 107.429 77.9489C107.539 80.4836 114.666 82.651 121.388 82.9448C128.111 83.2387 139.609 80.1897 141.556 79.6754C143.503 79.1611 143.429 77.1407 142.878 73.5774C142.474 71.0427 142.547 64.5773 143.172 59.1038C144.237 60.0221 145.743 61.3079 147.103 62.5201C150.041 59.4344 153.348 56.5691 156.544 53.6302C153.237 49.5894 149.601 45.7322 147.213 43.7485Z" fill="white"/>
</mask>
<g mask="url(#mask1_348_6294)">
<path d="M111.139 77.4346L111.469 77.8019C111.584 77.9199 111.649 78.0781 111.649 78.2427C111.649 78.4074 111.584 78.5656 111.469 78.6836L111.102 79.0142C110.984 79.1291 110.826 79.1934 110.661 79.1934C110.497 79.1934 110.338 79.1291 110.22 79.0142L109.89 78.6468C109.775 78.5289 109.711 78.3707 109.711 78.206C109.711 78.0413 109.775 77.8832 109.89 77.7652L110.257 77.4346C110.313 77.3736 110.381 77.3249 110.457 77.2915C110.533 77.2582 110.615 77.241 110.698 77.241C110.781 77.241 110.863 77.2582 110.939 77.2915C111.015 77.3249 111.083 77.3736 111.139 77.4346Z" fill="#F8AB5D"/>
<path d="M111.212 71.6672L111.543 72.0345C111.658 72.1525 111.722 72.3106 111.722 72.4753C111.722 72.64 111.658 72.7982 111.543 72.9161L111.176 73.2468C111.058 73.3616 110.899 73.4259 110.735 73.4259C110.57 73.4259 110.412 73.3616 110.294 73.2468L109.963 72.8794C109.848 72.7614 109.784 72.6033 109.784 72.4386C109.784 72.2739 109.848 72.1157 109.963 71.9978L110.331 71.6672C110.387 71.6061 110.455 71.5574 110.531 71.5241C110.607 71.4908 110.689 71.4736 110.772 71.4736C110.854 71.4736 110.936 71.4908 111.012 71.5241C111.088 71.5574 111.156 71.6061 111.212 71.6672Z" fill="#F8AB5D"/>
<path d="M111.286 65.8997L111.616 66.2671C111.731 66.3851 111.796 66.5432 111.796 66.7079C111.796 66.8726 111.731 67.0308 111.616 67.1487L111.249 67.4794C111.131 67.5943 110.973 67.6585 110.808 67.6585C110.644 67.6585 110.485 67.5943 110.367 67.4794L110.037 67.112C109.922 66.994 109.858 66.8359 109.858 66.6712C109.858 66.5065 109.922 66.3483 110.037 66.2304L110.404 65.8997C110.46 65.8387 110.528 65.79 110.604 65.7567C110.68 65.7234 110.762 65.7062 110.845 65.7062C110.928 65.7062 111.01 65.7234 111.086 65.7567C111.162 65.79 111.23 65.8387 111.286 65.8997Z" fill="#F8AB5D"/>
<path d="M111.396 60.1324L111.727 60.4997C111.842 60.6177 111.906 60.7759 111.906 60.9405C111.906 61.1052 111.842 61.2634 111.727 61.3814L111.359 61.712C111.241 61.8269 111.083 61.8911 110.919 61.8911C110.754 61.8911 110.596 61.8269 110.478 61.712L110.147 61.3446C110.032 61.2266 109.968 61.0685 109.968 60.9038C109.968 60.7391 110.032 60.581 110.147 60.463L110.515 60.1324C110.571 60.0714 110.639 60.0226 110.715 59.9893C110.791 59.956 110.873 59.9388 110.955 59.9388C111.038 59.9388 111.12 59.956 111.196 59.9893C111.272 60.0226 111.34 60.0714 111.396 60.1324Z" fill="#F8AB5D"/>
<path d="M116.319 77.508L116.649 77.8754C116.764 77.9934 116.828 78.1515 116.828 78.3162C116.828 78.4809 116.764 78.6391 116.649 78.757L116.282 79.0876C116.164 79.2025 116.006 79.2668 115.841 79.2668C115.676 79.2668 115.518 79.2025 115.4 79.0876L115.07 78.7203C114.955 78.6023 114.89 78.4442 114.89 78.2795C114.89 78.1148 114.955 77.9566 115.07 77.8387L115.437 77.508C115.493 77.447 115.561 77.3983 115.637 77.365C115.713 77.3317 115.795 77.3145 115.878 77.3145C115.961 77.3145 116.043 77.3317 116.118 77.365C116.194 77.3983 116.262 77.447 116.319 77.508Z" fill="#F8AB5D"/>
<path d="M116.392 71.7406L116.723 72.108C116.838 72.226 116.902 72.3841 116.902 72.5488C116.902 72.7135 116.838 72.8717 116.723 72.9896L116.355 73.3202C116.237 73.4351 116.079 73.4994 115.914 73.4994C115.75 73.4994 115.592 73.4351 115.474 73.3202L115.143 72.9529C115.028 72.8349 114.964 72.6767 114.964 72.5121C114.964 72.3474 115.028 72.1892 115.143 72.0713L115.51 71.7406C115.566 71.6796 115.635 71.6309 115.71 71.5976C115.786 71.5643 115.868 71.5471 115.951 71.5471C116.034 71.5471 116.116 71.5643 116.192 71.5976C116.268 71.6309 116.336 71.6796 116.392 71.7406Z" fill="#F8AB5D"/>
<path d="M116.466 65.9732L116.796 66.3406C116.911 66.4585 116.975 66.6167 116.975 66.7814C116.975 66.9461 116.911 67.1042 116.796 67.2222L116.429 67.5528C116.311 67.6677 116.153 67.732 115.988 67.732C115.823 67.732 115.665 67.6677 115.547 67.5528L115.217 67.1855C115.102 67.0675 115.037 66.9093 115.037 66.7447C115.037 66.58 115.102 66.4218 115.217 66.3038L115.584 65.9732C115.64 65.9122 115.708 65.8635 115.784 65.8302C115.86 65.7969 115.942 65.7797 116.025 65.7797C116.108 65.7797 116.19 65.7969 116.265 65.8302C116.341 65.8635 116.409 65.9122 116.466 65.9732Z" fill="#F8AB5D"/>
<path d="M116.576 60.2058L116.907 60.5732C117.021 60.6911 117.086 60.8493 117.086 61.014C117.086 61.1787 117.021 61.3368 116.907 61.4548L116.539 61.7854C116.421 61.9003 116.263 61.9646 116.098 61.9646C115.934 61.9646 115.775 61.9003 115.657 61.7854L115.327 61.4181C115.212 61.3001 115.148 61.1419 115.148 60.9773C115.148 60.8126 115.212 60.6544 115.327 60.5364L115.694 60.2058C115.812 60.0909 115.97 60.0266 116.135 60.0266C116.3 60.0266 116.458 60.0909 116.576 60.2058Z" fill="#F8AB5D"/>
<path d="M121.498 77.5815L121.829 77.9489C121.944 78.0668 122.008 78.225 122.008 78.3897C122.008 78.5544 121.944 78.7125 121.829 78.8305L121.462 79.1611C121.344 79.276 121.185 79.3403 121.021 79.3403C120.856 79.3403 120.698 79.276 120.58 79.1611L120.249 78.7938C120.134 78.6758 120.07 78.5176 120.07 78.3529C120.07 78.1883 120.134 78.0301 120.249 77.9121L120.617 77.5815C120.673 77.5205 120.741 77.4718 120.817 77.4385C120.893 77.4052 120.975 77.388 121.057 77.388C121.14 77.388 121.222 77.4052 121.298 77.4385C121.374 77.4718 121.442 77.5205 121.498 77.5815Z" fill="#F8AB5D"/>
<path d="M121.572 71.8141L121.902 72.1815C122.017 72.2994 122.082 72.4576 122.082 72.6223C122.082 72.787 122.017 72.9451 121.902 73.0631L121.535 73.3937C121.417 73.5086 121.259 73.5729 121.094 73.5729C120.929 73.5729 120.771 73.5086 120.653 73.3937L120.323 73.0264C120.208 72.9084 120.144 72.7502 120.144 72.5856C120.144 72.4209 120.208 72.2627 120.323 72.1447L120.69 71.8141C120.746 71.7531 120.814 71.7044 120.89 71.6711C120.966 71.6378 121.048 71.6206 121.131 71.6206C121.214 71.6206 121.296 71.6378 121.372 71.6711C121.448 71.7044 121.516 71.7531 121.572 71.8141Z" fill="#F8AB5D"/>
<path d="M121.682 66.0467L122.012 66.4141C122.127 66.532 122.192 66.6902 122.192 66.8549C122.192 67.0196 122.127 67.1777 122.012 67.2957L121.645 67.6263C121.527 67.7412 121.369 67.8055 121.204 67.8055C121.04 67.8055 120.881 67.7412 120.763 67.6263L120.433 67.259C120.318 67.141 120.254 66.9828 120.254 66.8181C120.254 66.6535 120.318 66.4953 120.433 66.3773L120.8 66.0467C120.918 65.9318 121.076 65.8675 121.241 65.8675C121.406 65.8675 121.564 65.9318 121.682 66.0467Z" fill="#F8AB5D"/>
<path d="M121.755 60.2793L122.086 60.6466C122.201 60.7646 122.265 60.9228 122.265 61.0874C122.265 61.2521 122.201 61.4103 122.086 61.5283L121.719 61.8589C121.601 61.9738 121.442 62.0381 121.278 62.0381C121.113 62.0381 120.955 61.9738 120.837 61.8589L120.506 61.4915C120.391 61.3736 120.327 61.2154 120.327 61.0507C120.327 60.886 120.391 60.7279 120.506 60.6099L120.874 60.2793C120.992 60.1644 121.15 60.1001 121.315 60.1001C121.479 60.1001 121.637 60.1644 121.755 60.2793Z" fill="#F8AB5D"/>
<path d="M126.678 77.655L127.009 78.0223C127.123 78.1403 127.188 78.2985 127.188 78.4632C127.188 78.6278 127.123 78.786 127.009 78.904L126.641 79.2346C126.523 79.3495 126.365 79.4138 126.2 79.4138C126.036 79.4138 125.878 79.3495 125.76 79.2346L125.429 78.8672C125.314 78.7493 125.25 78.5911 125.25 78.4264C125.25 78.2617 125.314 78.1036 125.429 77.9856L125.796 77.655C125.852 77.594 125.921 77.5453 125.996 77.512C126.072 77.4786 126.154 77.4614 126.237 77.4614C126.32 77.4614 126.402 77.4786 126.478 77.512C126.554 77.5453 126.622 77.594 126.678 77.655Z" fill="#F8AB5D"/>
<path d="M126.788 71.8876L127.119 72.2549C127.234 72.3729 127.298 72.5311 127.298 72.6957C127.298 72.8604 127.234 73.0186 127.119 73.1366L126.751 73.4672C126.633 73.5821 126.475 73.6464 126.31 73.6464C126.146 73.6464 125.988 73.5821 125.87 73.4672L125.539 73.0998C125.424 72.9819 125.36 72.8237 125.36 72.659C125.36 72.4943 125.424 72.3362 125.539 72.2182L125.906 71.8876C125.962 71.8266 126.031 71.7779 126.106 71.7445C126.182 71.7112 126.264 71.694 126.347 71.694C126.43 71.694 126.512 71.7112 126.588 71.7445C126.664 71.7779 126.732 71.8266 126.788 71.8876Z" fill="#F8AB5D"/>
<path d="M126.862 66.1202L127.192 66.4875C127.307 66.6055 127.371 66.7637 127.371 66.9283C127.371 67.093 127.307 67.2512 127.192 67.3691L126.825 67.6998C126.707 67.8147 126.549 67.879 126.384 67.879C126.219 67.879 126.061 67.8147 125.943 67.6998L125.613 67.3324C125.498 67.2144 125.433 67.0563 125.433 66.8916C125.433 66.7269 125.498 66.5687 125.613 66.4508L125.98 66.1202C126.098 66.0053 126.256 65.941 126.421 65.941C126.585 65.941 126.744 66.0053 126.862 66.1202Z" fill="#F8AB5D"/>
<path d="M126.935 60.3895L127.266 60.7568C127.381 60.8748 127.445 61.033 127.445 61.1977C127.445 61.3623 127.381 61.5205 127.266 61.6385L126.898 61.9691C126.78 62.084 126.622 62.1483 126.457 62.1483C126.293 62.1483 126.135 62.084 126.017 61.9691L125.686 61.6018C125.571 61.4838 125.507 61.3256 125.507 61.1609C125.507 60.9963 125.571 60.8381 125.686 60.7201L126.053 60.3895C126.109 60.3285 126.178 60.2798 126.253 60.2465C126.329 60.2132 126.411 60.196 126.494 60.196C126.577 60.196 126.659 60.2132 126.735 60.2465C126.811 60.2798 126.879 60.3285 126.935 60.3895Z" fill="#F8AB5D"/>
<path d="M131.894 77.7284L132.225 78.0958C132.34 78.2138 132.404 78.3719 132.404 78.5366C132.404 78.7013 132.34 78.8595 132.225 78.9774L131.858 79.3081C131.74 79.4229 131.581 79.4872 131.417 79.4872C131.252 79.4872 131.094 79.4229 130.976 79.3081L130.645 78.9407C130.53 78.8227 130.466 78.6646 130.466 78.4999C130.466 78.3352 130.53 78.177 130.645 78.0591L131.013 77.7284C131.069 77.6674 131.137 77.6187 131.213 77.5854C131.289 77.5521 131.371 77.5349 131.453 77.5349C131.536 77.5349 131.618 77.5521 131.694 77.5854C131.77 77.6187 131.838 77.6674 131.894 77.7284Z" fill="#F8AB5D"/>
<path d="M131.968 71.961L132.298 72.3284C132.413 72.4464 132.478 72.6045 132.478 72.7692C132.478 72.9339 132.413 73.0921 132.298 73.21L131.931 73.5407C131.813 73.6555 131.655 73.7198 131.49 73.7198C131.325 73.7198 131.167 73.6555 131.049 73.5407L130.719 73.1733C130.604 73.0553 130.54 72.8972 130.54 72.7325C130.54 72.5678 130.604 72.4096 130.719 72.2917L131.086 71.961C131.204 71.8462 131.362 71.7819 131.527 71.7819C131.692 71.7819 131.85 71.8462 131.968 71.961Z" fill="#F8AB5D"/>
<path d="M132.041 66.2304L132.372 66.5977C132.487 66.7157 132.551 66.8739 132.551 67.0386C132.551 67.2032 132.487 67.3614 132.372 67.4794L132.004 67.81C131.887 67.9249 131.728 67.9892 131.564 67.9892C131.399 67.9892 131.241 67.9249 131.123 67.81L130.792 67.4426C130.677 67.3247 130.613 67.1665 130.613 67.0018C130.613 66.8371 130.677 66.679 130.792 66.561L131.16 66.2304C131.216 66.1694 131.284 66.1207 131.36 66.0873C131.436 66.054 131.518 66.0368 131.6 66.0368C131.683 66.0368 131.765 66.054 131.841 66.0873C131.917 66.1207 131.985 66.1694 132.041 66.2304Z" fill="#F8AB5D"/>
<path d="M132.152 60.463L132.482 60.8303C132.597 60.9483 132.661 61.1065 132.661 61.2711C132.661 61.4358 132.597 61.594 132.482 61.712L132.115 62.0426C131.997 62.1575 131.839 62.2217 131.674 62.2217C131.509 62.2217 131.351 62.1575 131.233 62.0426L130.903 61.6752C130.788 61.5572 130.723 61.3991 130.723 61.2344C130.723 61.0697 130.788 60.9116 130.903 60.7936L131.27 60.463C131.326 60.402 131.394 60.3533 131.47 60.3199C131.546 60.2866 131.628 60.2694 131.711 60.2694C131.794 60.2694 131.876 60.2866 131.951 60.3199C132.027 60.3533 132.095 60.402 132.152 60.463Z" fill="#F8AB5D"/>
<path d="M137.074 77.8019L137.405 78.1693C137.519 78.2872 137.584 78.4454 137.584 78.6101C137.584 78.7748 137.519 78.9329 137.405 79.0509L137.037 79.3815C136.919 79.4964 136.761 79.5607 136.596 79.5607C136.432 79.5607 136.274 79.4964 136.156 79.3815L135.825 79.0142C135.71 78.8962 135.646 78.738 135.646 78.5734C135.646 78.4087 135.71 78.2505 135.825 78.1325L136.192 77.8019C136.31 77.687 136.468 77.6227 136.633 77.6227C136.798 77.6227 136.956 77.687 137.074 77.8019Z" fill="#F8AB5D"/>
<path d="M137.147 72.0713L137.478 72.4386C137.593 72.5566 137.657 72.7148 137.657 72.8794C137.657 73.0441 137.593 73.2023 137.478 73.3203L137.111 73.6509C136.993 73.7658 136.835 73.8301 136.67 73.8301C136.505 73.8301 136.347 73.7658 136.229 73.6509L135.898 73.2835C135.784 73.1655 135.719 73.0074 135.719 72.8427C135.719 72.678 135.784 72.5199 135.898 72.4019L136.266 72.0713C136.322 72.0103 136.39 71.9615 136.466 71.9282C136.542 71.8949 136.624 71.8777 136.707 71.8777C136.789 71.8777 136.871 71.8949 136.947 71.9282C137.023 71.9615 137.091 72.0103 137.147 72.0713Z" fill="#F8AB5D"/>
<path d="M137.258 66.3038L137.588 66.6712C137.703 66.7892 137.767 66.9473 137.767 67.112C137.767 67.2767 137.703 67.4348 137.588 67.5528L137.221 67.8834C137.103 67.9983 136.945 68.0626 136.78 68.0626C136.615 68.0626 136.457 67.9983 136.339 67.8834L136.009 67.5161C135.894 67.3981 135.829 67.2399 135.829 67.0753C135.829 66.9106 135.894 66.7524 136.009 66.6344L136.376 66.3038C136.432 66.2428 136.5 66.1941 136.576 66.1608C136.652 66.1275 136.734 66.1103 136.817 66.1103C136.9 66.1103 136.982 66.1275 137.057 66.1608C137.133 66.1941 137.201 66.2428 137.258 66.3038Z" fill="#F8AB5D"/>
<path d="M137.331 60.5364L137.662 60.9038C137.777 61.0218 137.841 61.1799 137.841 61.3446C137.841 61.5093 137.777 61.6675 137.662 61.7854L137.294 62.1161C137.176 62.2309 137.018 62.2952 136.853 62.2952C136.689 62.2952 136.531 62.2309 136.413 62.1161L136.082 61.7487C135.967 61.6307 135.903 61.4726 135.903 61.3079C135.903 61.1432 135.967 60.985 136.082 60.8671L136.449 60.5364C136.505 60.4754 136.574 60.4267 136.649 60.3934C136.725 60.3601 136.807 60.3429 136.89 60.3429C136.973 60.3429 137.055 60.3601 137.131 60.3934C137.207 60.4267 137.275 60.4754 137.331 60.5364Z" fill="#F8AB5D"/>
<path d="M142.254 77.9121L142.584 78.2795C142.699 78.3975 142.763 78.5556 142.763 78.7203C142.763 78.885 142.699 79.0431 142.584 79.1611L142.217 79.4917C142.099 79.6066 141.941 79.6709 141.776 79.6709C141.611 79.6709 141.453 79.6066 141.335 79.4917L141.005 79.1244C140.89 79.0064 140.825 78.8482 140.825 78.6836C140.825 78.5189 140.89 78.3607 141.005 78.2427L141.372 77.9121C141.428 77.8511 141.496 77.8024 141.572 77.7691C141.648 77.7358 141.73 77.7186 141.813 77.7186C141.896 77.7186 141.978 77.7358 142.053 77.7691C142.129 77.8024 142.198 77.8511 142.254 77.9121Z" fill="#F8AB5D"/>
<path d="M142.327 72.1447L142.658 72.5121C142.773 72.63 142.837 72.7882 142.837 72.9529C142.837 73.1176 142.773 73.2757 142.658 73.3937L142.29 73.7243C142.172 73.8392 142.014 73.9035 141.85 73.9035C141.685 73.9035 141.527 73.8392 141.409 73.7243L141.078 73.357C140.963 73.239 140.899 73.0808 140.899 72.9162C140.899 72.7515 140.963 72.5933 141.078 72.4753L141.445 72.1447C141.502 72.0837 141.57 72.035 141.646 72.0017C141.721 71.9684 141.803 71.9512 141.886 71.9512C141.969 71.9512 142.051 71.9684 142.127 72.0017C142.203 72.035 142.271 72.0837 142.327 72.1447Z" fill="#F8AB5D"/>
<path d="M142.437 66.3773L142.768 66.7447C142.883 66.8627 142.947 67.0208 142.947 67.1855C142.947 67.3502 142.883 67.5083 142.768 67.6263L142.4 67.9569C142.282 68.0718 142.124 68.1361 141.96 68.1361C141.795 68.1361 141.637 68.0718 141.519 67.9569L141.188 67.5896C141.073 67.4716 141.009 67.3134 141.009 67.1488C141.009 66.9841 141.073 66.8259 141.188 66.7079L141.556 66.3773C141.612 66.3163 141.68 66.2676 141.756 66.2343C141.832 66.201 141.914 66.1838 141.996 66.1838C142.079 66.1838 142.161 66.201 142.237 66.2343C142.313 66.2676 142.381 66.3163 142.437 66.3773Z" fill="#F8AB5D"/>
<path d="M142.511 60.6099L142.841 60.9773C142.956 61.0952 143.021 61.2534 143.021 61.4181C143.021 61.5828 142.956 61.7409 142.841 61.8589L142.474 62.1895C142.356 62.3044 142.198 62.3687 142.033 62.3687C141.868 62.3687 141.71 62.3044 141.592 62.1895L141.262 61.8222C141.147 61.7042 141.083 61.546 141.083 61.3814C141.083 61.2167 141.147 61.0585 141.262 60.9405L141.629 60.6099C141.685 60.5489 141.753 60.5002 141.829 60.4669C141.905 60.4336 141.987 60.4164 142.07 60.4164C142.153 60.4164 142.235 60.4336 142.311 60.4669C142.386 60.5002 142.455 60.5489 142.511 60.6099Z" fill="#F8AB5D"/>
<path d="M111.47 54.3649L111.8 54.7323C111.915 54.8503 111.979 55.0084 111.979 55.1731C111.979 55.3378 111.915 55.496 111.8 55.6139L111.433 55.9445C111.315 56.0594 111.157 56.1237 110.992 56.1237C110.827 56.1237 110.669 56.0594 110.551 55.9445L110.221 55.5772C110.106 55.4592 110.042 55.3011 110.042 55.1364C110.042 54.9717 110.106 54.8135 110.221 54.6956L110.588 54.3649C110.706 54.2501 110.864 54.1858 111.029 54.1858C111.194 54.1858 111.352 54.2501 111.47 54.3649Z" fill="#F8AB5D"/>
<path d="M111.543 48.5975L111.874 48.9649C111.989 49.0828 112.053 49.241 112.053 49.4057C112.053 49.5704 111.989 49.7285 111.874 49.8465L111.506 50.1771C111.388 50.292 111.23 50.3563 111.066 50.3563C110.901 50.3563 110.743 50.292 110.625 50.1771L110.294 49.8098C110.179 49.6918 110.115 49.5336 110.115 49.369C110.115 49.2043 110.179 49.0461 110.294 48.9281L110.662 48.5975C110.78 48.4826 110.938 48.4183 111.102 48.4183C111.267 48.4183 111.425 48.4826 111.543 48.5975Z" fill="#F8AB5D"/>
<path d="M111.653 42.8669L111.984 43.2342C112.099 43.3522 112.163 43.5104 112.163 43.675C112.163 43.8397 112.099 43.9979 111.984 44.1159L111.617 44.4465C111.499 44.5614 111.34 44.6256 111.176 44.6256C111.011 44.6256 110.853 44.5614 110.735 44.4465L110.404 44.0791C110.289 43.9611 110.225 43.803 110.225 43.6383C110.225 43.4736 110.289 43.3155 110.404 43.1975L110.772 42.8669C110.828 42.8059 110.896 42.7571 110.972 42.7238C111.048 42.6905 111.13 42.6733 111.212 42.6733C111.295 42.6733 111.377 42.6905 111.453 42.7238C111.529 42.7571 111.597 42.8059 111.653 42.8669Z" fill="#F8AB5D"/>
<path d="M116.649 54.4384L116.98 54.8058C117.095 54.9237 117.159 55.0819 117.159 55.2466C117.159 55.4112 117.095 55.5694 116.98 55.6874L116.612 56.018C116.494 56.1329 116.336 56.1972 116.172 56.1972C116.007 56.1972 115.849 56.1329 115.731 56.018L115.4 55.6507C115.285 55.5327 115.221 55.3745 115.221 55.2098C115.221 55.0452 115.285 54.887 115.4 54.769L115.767 54.4384C115.885 54.3235 116.044 54.2592 116.208 54.2592C116.373 54.2592 116.531 54.3235 116.649 54.4384Z" fill="#F8AB5D"/>
<path d="M116.759 48.7077L117.09 49.0751C117.205 49.1931 117.269 49.3512 117.269 49.5159C117.269 49.6806 117.205 49.8388 117.09 49.9567L116.723 50.2873C116.605 50.4022 116.447 50.4665 116.282 50.4665C116.117 50.4665 115.959 50.4022 115.841 50.2873L115.51 49.92C115.396 49.802 115.331 49.6439 115.331 49.4792C115.331 49.3145 115.396 49.1563 115.51 49.0384L115.878 48.7077C115.934 48.6467 116.002 48.598 116.078 48.5647C116.154 48.5314 116.236 48.5142 116.319 48.5142C116.402 48.5142 116.483 48.5314 116.559 48.5647C116.635 48.598 116.703 48.6467 116.759 48.7077Z" fill="#F8AB5D"/>
<path d="M116.833 42.9403L117.164 43.3077C117.278 43.4257 117.343 43.5838 117.343 43.7485C117.343 43.9132 117.278 44.0714 117.164 44.1893L116.796 44.52C116.678 44.6348 116.52 44.6991 116.355 44.6991C116.191 44.6991 116.033 44.6348 115.915 44.52L115.584 44.1526C115.469 44.0346 115.405 43.8765 115.405 43.7118C115.405 43.5471 115.469 43.3889 115.584 43.2709L115.951 42.9403C116.007 42.8793 116.076 42.8306 116.151 42.7973C116.227 42.764 116.309 42.7468 116.392 42.7468C116.475 42.7468 116.557 42.764 116.633 42.7973C116.709 42.8306 116.777 42.8793 116.833 42.9403Z" fill="#F8AB5D"/>
<path d="M121.829 54.5486L122.159 54.916C122.274 55.0339 122.339 55.1921 122.339 55.3568C122.339 55.5215 122.274 55.6796 122.159 55.7976L121.792 56.1282C121.674 56.2431 121.516 56.3074 121.351 56.3074C121.187 56.3074 121.028 56.2431 120.91 56.1282L120.58 55.7609C120.465 55.6429 120.401 55.4847 120.401 55.3201C120.401 55.1554 120.465 54.9972 120.58 54.8792L120.947 54.5486C121.003 54.4876 121.071 54.4389 121.147 54.4056C121.223 54.3723 121.305 54.3551 121.388 54.3551C121.471 54.3551 121.553 54.3723 121.629 54.4056C121.705 54.4389 121.773 54.4876 121.829 54.5486Z" fill="#F8AB5D"/>
<path d="M121.939 48.7812L122.27 49.1486C122.385 49.2665 122.449 49.4247 122.449 49.5894C122.449 49.7541 122.385 49.9122 122.27 50.0302L121.902 50.3608C121.784 50.4757 121.626 50.54 121.462 50.54C121.297 50.54 121.139 50.4757 121.021 50.3608L120.69 49.9935C120.575 49.8755 120.511 49.7173 120.511 49.5527C120.511 49.388 120.575 49.2298 120.69 49.1118L121.058 48.7812C121.114 48.7202 121.182 48.6715 121.258 48.6382C121.333 48.6049 121.415 48.5877 121.498 48.5877C121.581 48.5877 121.663 48.6049 121.739 48.6382C121.815 48.6715 121.883 48.7202 121.939 48.7812Z" fill="#F8AB5D"/>
<path d="M122.013 43.0138L122.343 43.3812C122.458 43.4991 122.522 43.6573 122.522 43.822C122.522 43.9866 122.458 44.1448 122.343 44.2628L121.976 44.5934C121.858 44.7083 121.7 44.7726 121.535 44.7726C121.37 44.7726 121.212 44.7083 121.094 44.5934L120.764 44.2261C120.649 44.1081 120.584 43.9499 120.584 43.7852C120.584 43.6206 120.649 43.4624 120.764 43.3444L121.131 43.0138C121.187 42.9528 121.255 42.9041 121.331 42.8708C121.407 42.8375 121.489 42.8203 121.572 42.8203C121.655 42.8203 121.737 42.8375 121.813 42.8708C121.888 42.9041 121.957 42.9528 122.013 43.0138Z" fill="#F8AB5D"/>
<path d="M127.045 54.6221L127.376 54.9894C127.491 55.1074 127.555 55.2656 127.555 55.4302C127.555 55.5949 127.491 55.7531 127.376 55.8711L127.009 56.2017C126.891 56.3166 126.732 56.3809 126.568 56.3809C126.403 56.3809 126.245 56.3166 126.127 56.2017L125.796 55.8343C125.681 55.7164 125.617 55.5582 125.617 55.3935C125.617 55.2288 125.681 55.0707 125.796 54.9527L126.164 54.6221C126.22 54.5611 126.288 54.5124 126.364 54.479C126.44 54.4457 126.522 54.4285 126.605 54.4285C126.687 54.4285 126.769 54.4457 126.845 54.479C126.921 54.5124 126.989 54.5611 127.045 54.6221Z" fill="#F8AB5D"/>
<path d="M127.119 48.8547L127.449 49.222C127.564 49.34 127.629 49.4982 127.629 49.6628C127.629 49.8275 127.564 49.9857 127.449 50.1037L127.082 50.4343C126.964 50.5492 126.806 50.6135 126.641 50.6135C126.477 50.6135 126.318 50.5492 126.2 50.4343L125.87 50.0669C125.755 49.949 125.691 49.7908 125.691 49.6261C125.691 49.4614 125.755 49.3033 125.87 49.1853L126.237 48.8547C126.293 48.7937 126.361 48.745 126.437 48.7116C126.513 48.6783 126.595 48.6611 126.678 48.6611C126.761 48.6611 126.843 48.6783 126.919 48.7116C126.995 48.745 127.063 48.7937 127.119 48.8547Z" fill="#F8AB5D"/>
<path d="M127.192 43.0873L127.523 43.4546C127.638 43.5726 127.702 43.7308 127.702 43.8955C127.702 44.0601 127.638 44.2183 127.523 44.3363L127.155 44.6669C127.037 44.7818 126.879 44.8461 126.715 44.8461C126.55 44.8461 126.392 44.7818 126.274 44.6669L125.943 44.2995C125.828 44.1816 125.764 44.0234 125.764 43.8587C125.764 43.694 125.828 43.5359 125.943 43.4179L126.31 43.0873C126.367 43.0263 126.435 42.9776 126.511 42.9443C126.586 42.9109 126.668 42.8937 126.751 42.8937C126.834 42.8937 126.916 42.9109 126.992 42.9443C127.068 42.9776 127.136 43.0263 127.192 43.0873Z" fill="#F8AB5D"/>
<path d="M132.225 54.6956L132.555 55.0629C132.67 55.1809 132.735 55.3391 132.735 55.5037C132.735 55.6684 132.67 55.8266 132.555 55.9445L132.188 56.2752C132.07 56.3901 131.912 56.4544 131.747 56.4544C131.583 56.4544 131.424 56.3901 131.306 56.2752L130.976 55.9078C130.861 55.7898 130.797 55.6317 130.797 55.467C130.797 55.3023 130.861 55.1441 130.976 55.0262L131.343 54.6956C131.399 54.6345 131.467 54.5858 131.543 54.5525C131.619 54.5192 131.701 54.502 131.784 54.502C131.867 54.502 131.949 54.5192 132.025 54.5525C132.101 54.5858 132.169 54.6345 132.225 54.6956Z" fill="#F8AB5D"/>
<path d="M132.298 48.9281L132.629 49.2955C132.744 49.4135 132.808 49.5716 132.808 49.7363C132.808 49.901 132.744 50.0592 132.629 50.1771L132.262 50.5077C132.144 50.6226 131.985 50.6869 131.821 50.6869C131.656 50.6869 131.498 50.6226 131.38 50.5077L131.049 50.1404C130.934 50.0224 130.87 49.8642 130.87 49.6996C130.87 49.5349 130.934 49.3767 131.049 49.2588L131.417 48.9281C131.473 48.8671 131.541 48.8184 131.617 48.7851C131.693 48.7518 131.775 48.7346 131.857 48.7346C131.94 48.7346 132.022 48.7518 132.098 48.7851C132.174 48.8184 132.242 48.8671 132.298 48.9281Z" fill="#F8AB5D"/>
<path d="M132.409 43.1607L132.739 43.5281C132.854 43.6461 132.918 43.8042 132.918 43.9689C132.918 44.1336 132.854 44.2917 132.739 44.4097L132.372 44.7403C132.254 44.8552 132.096 44.9195 131.931 44.9195C131.766 44.9195 131.608 44.8552 131.49 44.7403L131.16 44.373C131.045 44.255 130.98 44.0968 130.98 43.9322C130.98 43.7675 131.045 43.6093 131.16 43.4913L131.527 43.1607C131.583 43.0997 131.651 43.051 131.727 43.0177C131.803 42.9844 131.885 42.9672 131.968 42.9672C132.051 42.9672 132.133 42.9844 132.209 43.0177C132.284 43.051 132.353 43.0997 132.409 43.1607Z" fill="#F8AB5D"/>
<path d="M137.404 54.769L137.735 55.1364C137.85 55.2543 137.914 55.4125 137.914 55.5772C137.914 55.7419 137.85 55.9 137.735 56.018L137.368 56.3486C137.25 56.4635 137.092 56.5278 136.927 56.5278C136.762 56.5278 136.604 56.4635 136.486 56.3486L136.155 55.9813C136.041 55.8633 135.976 55.7051 135.976 55.5405C135.976 55.3758 136.041 55.2176 136.155 55.0996L136.523 54.769C136.579 54.708 136.647 54.6593 136.723 54.626C136.799 54.5927 136.881 54.5755 136.964 54.5755C137.047 54.5755 137.128 54.5927 137.204 54.626C137.28 54.6593 137.348 54.708 137.404 54.769Z" fill="#F8AB5D"/>
<path d="M137.515 49.0016L137.845 49.369C137.96 49.4869 138.025 49.6451 138.025 49.8098C138.025 49.9745 137.96 50.1326 137.845 50.2506L137.478 50.5812C137.36 50.6961 137.202 50.7604 137.037 50.7604C136.873 50.7604 136.714 50.6961 136.596 50.5812L136.266 50.2139C136.151 50.0959 136.087 49.9377 136.087 49.7731C136.087 49.6084 136.151 49.4502 136.266 49.3322L136.633 49.0016C136.689 48.9406 136.757 48.8919 136.833 48.8586C136.909 48.8253 136.991 48.8081 137.074 48.8081C137.157 48.8081 137.239 48.8253 137.315 48.8586C137.391 48.8919 137.459 48.9406 137.515 49.0016Z" fill="#F8AB5D"/>
<path d="M137.588 43.2342L137.919 43.6016C138.034 43.7196 138.098 43.8777 138.098 44.0424C138.098 44.2071 138.034 44.3652 137.919 44.4832L137.552 44.8138C137.434 44.9287 137.275 44.993 137.111 44.993C136.946 44.993 136.788 44.9287 136.67 44.8138L136.339 44.4465C136.224 44.3285 136.16 44.1703 136.16 44.0057C136.16 43.841 136.224 43.6828 136.339 43.5648L136.707 43.2342C136.763 43.1732 136.831 43.1245 136.907 43.0912C136.983 43.0579 137.065 43.0407 137.148 43.0407C137.23 43.0407 137.312 43.0579 137.388 43.0912C137.464 43.1245 137.532 43.1732 137.588 43.2342Z" fill="#F8AB5D"/>
<path d="M142.584 54.8425L142.915 55.2098C143.03 55.3278 143.094 55.486 143.094 55.6507C143.094 55.8153 143.03 55.9735 142.915 56.0915L142.547 56.4221C142.429 56.537 142.271 56.6013 142.107 56.6013C141.942 56.6013 141.784 56.537 141.666 56.4221L141.335 56.0548C141.22 55.9368 141.156 55.7786 141.156 55.6139C141.156 55.4493 141.22 55.2911 141.335 55.1731L141.703 54.8425C141.759 54.7815 141.827 54.7328 141.903 54.6995C141.979 54.6662 142.061 54.649 142.143 54.649C142.226 54.649 142.308 54.6662 142.384 54.6995C142.46 54.7328 142.528 54.7815 142.584 54.8425Z" fill="#F8AB5D"/>
<path d="M142.694 49.0751L143.025 49.4424C143.14 49.5604 143.204 49.7186 143.204 49.8832C143.204 50.0479 143.14 50.2061 143.025 50.3241L142.658 50.6547C142.54 50.7696 142.381 50.8339 142.217 50.8339C142.052 50.8339 141.894 50.7696 141.776 50.6547L141.445 50.2873C141.33 50.1694 141.266 50.0112 141.266 49.8465C141.266 49.6818 141.33 49.5237 141.445 49.4057L141.813 49.0751C141.869 49.0141 141.937 48.9654 142.013 48.9321C142.089 48.8987 142.171 48.8815 142.253 48.8815C142.336 48.8815 142.418 48.8987 142.494 48.9321C142.57 48.9654 142.638 49.0141 142.694 49.0751Z" fill="#F8AB5D"/>
<path d="M142.768 43.3077L143.098 43.675C143.213 43.793 143.278 43.9512 143.278 44.1159C143.278 44.2805 143.213 44.4387 143.098 44.5567L142.731 44.8873C142.613 45.0022 142.455 45.0665 142.29 45.0665C142.126 45.0665 141.967 45.0022 141.849 44.8873L141.519 44.52C141.404 44.402 141.34 44.2438 141.34 44.0791C141.34 43.9145 141.404 43.7563 141.519 43.6383L141.886 43.3077C142.004 43.1928 142.162 43.1285 142.327 43.1285C142.492 43.1285 142.65 43.1928 142.768 43.3077Z" fill="#F8AB5D"/>
</g>
<path d="M120.617 44.5567C120.617 44.5567 120.543 48.8914 125.356 49.1853C130.168 49.4792 133.915 44.5199 133.18 41.177C132.445 37.8342 120.617 39.6709 120.617 44.5567Z" fill="#F4C2C9"/>
<path d="M130.609 43.4179C128.294 46.0628 123.739 47.4588 120.727 45.5485C120.918 46.4593 121.379 47.2914 122.05 47.9363C125.686 49.1853 129.176 46.871 130.609 43.4179Z" fill="#E26E85"/>
<path d="M117.2 30.0463C117.449 32.3908 117.449 34.755 117.2 37.0995C116.796 41.177 119.478 46.173 123.85 46.8343C128.552 47.569 133.033 44.9608 134.356 36.879C135.678 28.7973 133.878 23.7646 127.854 23.2871C121.829 22.8095 117.164 23.5442 117.2 30.0463Z" fill="#F4C2C9"/>
<path d="M136.854 30.8912C136.726 32.284 136.379 33.6479 135.825 34.9321C135.127 36.4382 134.392 36.9158 134.392 36.9158L129.984 34.4913C129.984 34.4913 117.568 37.3933 117.237 30.0463C117.198 29.2365 117.235 28.4247 117.347 27.6218C117.554 25.968 118.215 24.404 119.258 23.1034C119.41 22.9026 119.582 22.7179 119.772 22.5524C121.976 20.385 125.356 19.4666 129.323 20.0911C136.376 21.1564 137.368 26.1157 136.854 30.8912Z" fill="#F4C2C9"/>
<path d="M124.731 23.2136C120.286 23.2871 116.87 24.4993 117.2 30.0463C117.2 30.0463 117.237 30.4504 117.311 31.1484C118.192 29.8259 120.139 29.8994 121.278 28.8708C123.015 27.4116 124.227 25.4251 124.731 23.2136Z" fill="#E26E85"/>
<path d="M137.478 28.4668C137.482 27.9097 137.301 27.3671 136.964 26.9239C137.081 26.6189 137.143 26.2955 137.147 25.9688C137.147 25.5063 137.025 25.0522 136.792 24.6523C136.56 24.2523 136.226 23.9208 135.825 23.6912C135.776 23.0455 135.49 22.4406 135.023 21.9929C134.555 21.5453 133.938 21.2866 133.29 21.2667C132.968 20.692 132.444 20.2573 131.82 20.0469C131.195 19.8365 130.515 19.8654 129.911 20.1279C129.666 19.8406 129.362 19.6098 129.02 19.4512C128.677 19.2927 128.304 19.2102 127.927 19.2095C127.342 19.2119 126.775 19.4054 126.311 19.7606C125.883 19.4835 125.387 19.3309 124.878 19.3197C124.451 19.3196 124.031 19.4232 123.654 19.6216C123.276 19.82 122.952 20.1072 122.711 20.4585C122.505 20.4138 122.296 20.3892 122.086 20.3851C121.528 20.3842 120.985 20.5621 120.535 20.8927C120.086 21.2232 119.754 21.689 119.588 22.2218C118.965 22.3188 118.398 22.6348 117.987 23.1128C117.576 23.5909 117.349 24.1997 117.347 24.83C117.339 24.9536 117.352 25.0777 117.384 25.1974C116.906 26.1525 116.98 27.6586 117.311 27.5851C118.577 27.2735 119.912 27.4031 121.094 27.9525C123.225 29.0178 124.18 28.7607 126.494 27.9525C129.066 27.0708 133.107 26.5565 133.694 31.1117C133.841 32.2872 132.519 34.8954 134.356 35.7036C134.833 35.924 135.347 35.5566 135.825 34.8587C135.994 34.5175 136.129 34.1607 136.229 33.7934C136.614 33.5605 136.932 33.2314 137.151 32.8385C137.37 32.4455 137.482 32.0023 137.478 31.5525C137.482 30.9955 137.301 30.4528 136.964 30.0096C137.307 29.5693 137.488 29.0248 137.478 28.4668Z" fill="#22272E"/>
<path d="M133.805 36.0709C133.805 36.0709 134.723 33.977 135.862 34.6015C136.817 35.1158 135.972 39.9281 133.401 39.9648" fill="#F4C2C9"/>
<path d="M123.299 34.6015C123.49 35.1301 123.553 35.6968 123.482 36.2546C123.456 36.5427 123.395 36.8265 123.299 37.0995C123.188 37.3566 123.115 37.577 123.005 37.8342C122.929 38.0351 122.88 38.245 122.858 38.4587C122.882 38.6546 122.972 38.8363 123.115 38.9729C123.282 39.1536 123.487 39.2938 123.717 39.383C123.946 39.4721 124.192 39.5078 124.437 39.4872C124.181 39.632 123.888 39.6987 123.594 39.6791C123.301 39.6596 123.019 39.5545 122.784 39.377C122.643 39.2808 122.525 39.1556 122.436 39.01C122.347 38.8643 122.291 38.7014 122.27 38.5321C122.256 38.2192 122.306 37.9066 122.417 37.6137C122.527 37.3566 122.637 37.0995 122.747 36.879C122.855 36.6551 122.941 36.4214 123.005 36.1811C123.115 35.6668 123.188 35.1525 123.299 34.6015Z" fill="#22272E"/>
<path d="M123.886 41.9485C124.403 41.8004 124.95 41.7903 125.472 41.9192C125.994 42.0481 126.473 42.3115 126.862 42.6832" stroke="#22272E" stroke-width="1.8" stroke-linecap="round" stroke-linejoin="round"/>
<path d="M119.147 32.3974C119.625 32.2872 120.066 31.9198 121.058 31.8831C121.719 31.8463 122.123 31.8831 122.196 31.4055C122.27 31.0382 121.829 30.5606 121.094 30.5606C119.662 30.5606 117.825 32.728 119.147 32.3974Z" fill="#22272E"/>
<path d="M130.535 32.9116C130.058 32.7647 129.69 32.3606 128.698 32.2137C128.037 32.1035 127.633 32.1035 127.633 31.6259C127.596 31.2218 128.074 30.8177 128.809 30.8912C130.168 31.0382 131.821 33.3525 130.535 32.9116Z" fill="#22272E"/>
<path d="M121.058 36.0342C121.22 36.0328 121.377 35.9725 121.499 35.8644C121.62 35.7563 121.698 35.6078 121.719 35.4464V35.079C121.717 34.9164 121.657 34.7597 121.549 34.6381C121.441 34.5165 121.292 34.4383 121.131 34.4178C120.968 34.4192 120.812 34.4795 120.69 34.5876C120.569 34.6957 120.49 34.8442 120.47 35.0056V35.3729C120.461 35.4557 120.47 35.5394 120.495 35.6187C120.521 35.6979 120.562 35.771 120.618 35.8332C120.673 35.8955 120.741 35.9455 120.817 35.9801C120.892 36.0147 120.974 36.0331 121.058 36.0342Z" fill="#22272E"/>
<path d="M128.258 36.328C128.42 36.3267 128.577 36.2663 128.699 36.1583C128.82 36.0502 128.898 35.9017 128.919 35.7403V35.3729C128.917 35.2103 128.857 35.0536 128.749 34.932C128.641 34.8104 128.492 34.7321 128.331 34.7117C128.168 34.7131 128.012 34.7734 127.89 34.8815C127.769 34.9896 127.69 35.1381 127.67 35.2995V35.6668C127.664 35.7491 127.674 35.8317 127.701 35.9098C127.727 35.9879 127.769 36.0599 127.824 36.1215C127.879 36.1832 127.945 36.2332 128.02 36.2687C128.094 36.3042 128.175 36.3243 128.258 36.328Z" fill="#22272E"/>
<path d="M135.384 36.4015C135.237 36.3648 135.09 36.3648 135.054 36.4382C135.002 36.5139 134.977 36.604 134.98 36.6954C134.948 36.815 134.936 36.9391 134.943 37.0627C134.943 37.2097 134.907 37.3199 134.907 37.4668C134.867 37.7604 134.78 38.0457 134.65 38.3117C134.605 38.3994 134.542 38.4771 134.467 38.5402C134.391 38.6033 134.303 38.6505 134.209 38.6791C134.042 38.6999 133.872 38.6609 133.731 38.5689C133.878 38.4954 134.025 38.4587 134.062 38.3852C134.093 38.3506 134.115 38.3095 134.128 38.265C134.141 38.2205 134.143 38.1737 134.135 38.128C134.172 37.9076 134.172 37.6505 134.209 37.3566C134.245 37.2097 134.245 37.0627 134.282 36.9525C134.311 36.7942 134.374 36.6439 134.466 36.5117C134.511 36.421 134.579 36.3432 134.662 36.2855C134.746 36.2277 134.843 36.1918 134.943 36.1811C134.987 36.1656 135.033 36.1591 135.079 36.1619C135.125 36.1647 135.17 36.1768 135.211 36.1974C135.252 36.2179 135.289 36.2466 135.318 36.2817C135.348 36.3168 135.371 36.3575 135.384 36.4015Z" fill="#22272E"/>
<path d="M113.306 36.6219C113.306 36.6219 111.653 38.0179 108.715 43.3077C106.363 47.569 104.343 53.9241 101.478 57.4874C100.884 58.2903 100.134 58.965 99.2736 59.4711C98.7105 59.7913 98.1205 60.0617 97.5103 60.2793C93.1756 61.712 87.0408 60.6099 88.6939 54.1078C90.347 47.6057 101.478 39.7077 105.114 33.977C108.751 28.2463 113.417 34.4913 113.306 36.6219Z" fill="#F4C2C9"/>
<path d="M101.478 57.4875C100.884 58.2903 100.135 58.965 99.2738 59.4711C98.7106 59.7913 98.1206 60.0617 97.5105 60.2793" stroke="#E26E85" stroke-width="1.8" stroke-linecap="round" stroke-linejoin="round"/>
<path d="M113.674 25.1974C113.674 25.1974 115.658 24.2422 116.356 23.9116C117.054 23.581 118.67 23.2504 119.258 23.0667C119.845 22.883 119.919 23.8382 118.927 24.7198C117.935 25.6014 116.172 27.9892 114.96 28.2464C113.747 28.5035 113.086 25.9321 113.674 25.1974Z" fill="#E26E85"/>
<path d="M104.784 34.6015C104.784 34.6015 106.951 31.0382 107.576 29.7157C109.119 26.5198 111.36 25.1973 112.094 24.6095C112.829 24.0218 117.494 23.0667 118.67 22.6259C119.772 22.2218 119.625 23.1401 119.184 23.5442C117.972 24.6463 115.547 25.0871 115.253 25.4177C115.253 25.4177 116.98 24.9034 117.862 24.5361C119.099 24.1212 120.363 23.7898 121.645 23.5442C122.233 23.434 122.6 24.0953 121.645 24.7198C120.69 25.3442 118.964 26.1157 118.743 26.2626C118.523 26.4096 116.796 27.4749 116.796 27.4749C116.796 27.4749 118.523 27.4749 119.147 27.4381C119.772 27.4014 121.094 27.4749 121.425 27.4749C122.307 27.4749 122.454 28.5769 120.653 28.8708C118.853 29.1647 117.715 29.6423 116.76 30.4137C115.658 31.2953 117.127 33.7933 112.682 37.2097C112.719 37.2097 105.849 39.2668 104.784 34.6015Z" fill="#F4C2C9"/>
<path d="M116.796 27.4749C116.569 27.5258 116.348 27.5996 116.135 27.6953C115.747 27.9035 115.389 28.163 115.07 28.4668" stroke="#E26E85" stroke-width="1.8" stroke-linecap="round" stroke-linejoin="round"/>
<path d="M115.253 25.4177C115.253 25.4177 114.629 25.6014 114.188 25.7851C113.831 25.9751 113.508 26.2234 113.233 26.5198" stroke="#E26E85" stroke-width="1.8" stroke-linecap="round" stroke-linejoin="round"/>
<path d="M105.335 33.5729C106.253 33.5362 109.413 33.8668 111.066 39.3036C111.091 39.3713 111.098 39.4446 111.085 39.5158C111.072 39.5869 111.04 39.6532 110.992 39.7077L109.559 41.875C109.553 41.8834 109.545 41.8902 109.535 41.8949C109.525 41.8996 109.515 41.902 109.504 41.902C109.494 41.902 109.483 41.8996 109.474 41.8949C109.464 41.8902 109.456 41.8834 109.449 41.875C109.192 41.0669 107.576 36.1811 103.792 35.8505C103.759 35.8481 103.727 35.8372 103.7 35.8187C103.672 35.8003 103.65 35.775 103.635 35.7454C103.62 35.7157 103.613 35.6827 103.615 35.6496C103.617 35.6165 103.627 35.5845 103.645 35.5566C103.976 35.079 104.637 34.1607 104.931 33.7933C104.976 33.7273 105.036 33.6729 105.106 33.6346C105.177 33.5963 105.255 33.5751 105.335 33.5729Z" fill="#22272E"/>
<path d="M108.422 36.4101C108.94 35.5141 108.676 34.3929 107.832 33.906C106.989 33.4191 105.886 33.7508 105.368 34.6469C104.851 35.5429 105.115 36.6641 105.959 37.151C106.802 37.6379 107.905 37.3062 108.422 36.4101Z" fill="white"/>
<path d="M148.388 65.6059C148.388 65.6059 150.152 65.1284 153.421 61.2712C156.691 57.414 150.85 61.1242 150.519 61.2712C150.188 61.4181 148.388 65.6059 148.388 65.6059Z" fill="#22272E"/>
<path d="M164.882 66.0468C163.854 63.1814 160.364 58.2589 156.58 53.6671C153.384 56.6059 150.078 59.4712 147.139 62.5569C149.123 64.3202 150.886 65.8631 150.886 65.8631C150.372 66.1202 149.417 66.6345 148.425 67.1121C150.152 69.9407 151.401 73.1734 151.621 76.4061C155.037 76.4795 158.895 76.553 160.695 75.8183C163.927 74.5326 166.829 71.4468 164.882 66.0468Z" fill="#F4C2C9"/>
<path d="M145.156 68.7284C145.156 68.7284 144.531 67.8468 144.238 67.5162C143.944 67.1855 142.254 66.0468 141.556 65.459C140.858 64.8712 140.27 65.7161 140.895 66.7447C141.519 67.7733 141.886 69.5366 142.364 70.0141C142.842 70.4917 145.229 70.0509 145.156 68.7284Z" fill="#F4C2C9"/>
<path d="M157.94 55.3201C157.94 55.3201 152.062 59.5814 148.388 65.6427C148.388 65.6427 142.144 59.6181 141.005 57.561C139.866 55.5038 139.976 49.6996 142.621 46.3935C145.266 43.0873 147.58 44.0792 147.58 44.0792C151.424 47.4466 154.897 51.215 157.94 55.3201Z" fill="#6D7AAF"/>
<path d="M146.735 63.9896C146.735 63.9896 150.629 57.0466 156.507 53.4466" stroke="#22272E" stroke-width="1.8" stroke-linecap="round" stroke-linejoin="round"/>
<path d="M150.85 65.8631C150.85 65.8631 154.707 63.4018 157.903 64.0263" stroke="#E26E85" stroke-width="1.8" stroke-linecap="round" stroke-linejoin="round"/>
<path d="M126.495 59.4344L142.952 56.8262C143.124 56.7991 143.299 56.8124 143.465 56.865C143.631 56.9177 143.782 57.0081 143.907 57.1293C144.032 57.2505 144.126 57.3991 144.184 57.5632C144.241 57.7274 144.26 57.9027 144.238 58.0752L141.519 76.6264C141.483 76.8449 141.383 77.0481 141.233 77.2112C141.083 77.3742 140.889 77.4901 140.674 77.5448L124.548 81.4754C124.377 81.5173 124.198 81.5176 124.027 81.4764C123.856 81.4352 123.698 81.3537 123.565 81.2386C123.431 81.1235 123.328 80.9782 123.262 80.8149C123.197 80.6516 123.172 80.4751 123.188 80.2999L124.658 61.3814C124.692 60.8946 124.894 60.4347 125.228 60.0798C125.563 59.7249 126.011 59.4968 126.495 59.4344Z" fill="#22272E"/>
<path d="M131.417 58.2589L131.307 59.618C131.307 59.8017 131.49 59.9487 131.747 59.9119L138.286 58.7364C138.414 58.729 138.535 58.6772 138.629 58.5901C138.723 58.5029 138.784 58.3858 138.801 58.2589L138.874 57.267C138.871 57.2195 138.857 57.1734 138.834 57.1318C138.811 57.0902 138.779 57.0542 138.74 57.0262C138.702 56.9982 138.658 56.979 138.611 56.9698C138.564 56.9606 138.516 56.9618 138.47 56.9731L131.968 57.7813C131.838 57.7942 131.715 57.847 131.617 57.9326C131.518 58.0181 131.448 58.1321 131.417 58.2589Z" fill="#6D7AAF"/>
<path d="M145.156 68.7284C145.156 68.7284 142.952 68.2141 142.437 68.3611C141.923 68.508 140.123 68.7284 138.801 69.0223C137.478 69.3162 135.09 69.206 134.209 69.5366C134.094 69.57 133.988 69.627 133.897 69.704C133.806 69.781 133.732 69.8762 133.68 69.9835C133.628 70.0909 133.6 70.2079 133.596 70.3271C133.592 70.4463 133.613 70.5649 133.658 70.6754C133.658 70.6754 132.739 70.4917 132.446 70.9693C132.005 71.6672 132.923 72.108 132.923 72.108C132.188 71.8876 131.564 72.3652 131.895 73.0632C132.152 73.5775 133.364 74.3489 134.429 74.8632C135.449 75.3081 136.492 75.7004 137.552 76.0387C137.552 76.0387 136.597 75.9285 135.458 75.8183C134.393 75.7448 133.915 76.2591 134.539 76.8469C135.164 77.4346 139.021 78.5367 140.454 78.2061C141.886 77.8755 143.466 76.9938 145.597 76.4428C146.515 76.2224 148.903 76.2958 151.585 76.3693C151.364 73.1366 150.152 69.9039 148.389 67.0753C146.809 67.9203 145.156 68.7284 145.156 68.7284Z" fill="#F4C2C9"/>
<path d="M132.923 72.1447C132.923 72.1447 134.797 72.9529 136.339 73.4672C137.882 73.9815 139.535 73.908 139.976 74.0917" stroke="#E26E85" stroke-width="1.8" stroke-linecap="round" stroke-linejoin="round"/>
<path d="M137.552 76.0387C137.552 76.0387 138.947 76.553 139.719 76.2958" stroke="#E26E85" stroke-width="1.8" stroke-linecap="round" stroke-linejoin="round"/>
<path d="M133.694 70.6753C134.659 71.037 135.655 71.3076 136.67 71.4835C137.882 71.6304 139.866 71.6304 140.123 71.6304" stroke="#E26E85" stroke-width="1.8" stroke-linecap="round" stroke-linejoin="round"/>
<path d="M126.495 51.4997C126.738 51.4997 126.935 51.3023 126.935 51.0588C126.935 50.8154 126.738 50.618 126.495 50.618C126.251 50.618 126.054 50.8154 126.054 51.0588C126.054 51.3023 126.251 51.4997 126.495 51.4997Z" fill="#22272E"/>
<path d="M124.878 49.1486C124.878 49.1486 124.437 50.067 124.731 54.1079" stroke="#22272E" stroke-width="1.8" stroke-linecap="round" stroke-linejoin="round"/>
<path d="M40.6079 92.6797L39.6895 164.35C39.6875 164.714 39.8289 165.065 40.0832 165.326C40.3375 165.587 40.6842 165.738 41.0487 165.746C41.4037 165.749 41.7456 165.612 42.0001 165.364C42.2546 165.116 42.4011 164.778 42.4079 164.423L45.4569 92.6797H40.6079Z" fill="#B0B8D7"/>
<path d="M205.512 92.6797L206.43 164.35C206.432 164.714 206.291 165.065 206.036 165.326C205.782 165.587 205.435 165.738 205.071 165.746C204.716 165.749 204.374 165.612 204.119 165.364C203.865 165.116 203.718 164.778 203.712 164.423L200.663 92.6797H205.512Z" fill="#B0B8D7"/>
<path d="M45.4937 92.6797H40.6079L40.5344 98.1532H45.2733L45.4937 92.6797Z" fill="#6D7AAF"/>
<path d="M205.512 92.6797H200.626L200.846 98.1532H205.585L205.512 92.6797Z" fill="#6D7AAF"/>
<path d="M61.4734 91.3572L60.7755 144.88C60.7719 145.016 60.7961 145.152 60.8466 145.278C60.897 145.404 60.9727 145.519 61.0689 145.615C61.1651 145.712 61.2799 145.787 61.4063 145.838C61.5327 145.888 61.668 145.912 61.8041 145.909C62.0695 145.905 62.3237 145.801 62.5148 145.617C62.7059 145.432 62.8196 145.182 62.8327 144.917L65.1102 91.3205H61.4734V91.3572Z" fill="#B0B8D7"/>
<path d="M184.609 91.3572L185.307 144.88C185.311 145.016 185.287 145.152 185.236 145.278C185.186 145.404 185.11 145.519 185.014 145.615C184.918 145.712 184.803 145.787 184.677 145.838C184.55 145.888 184.415 145.912 184.279 145.909C184.013 145.905 183.759 145.801 183.568 145.617C183.377 145.432 183.263 145.182 183.25 144.917L180.973 91.3205H184.609V91.3572Z" fill="#B0B8D7"/>
<path d="M215.724 91.2102H30.3955L52.8039 77.5815H193.316L215.724 91.2102Z" fill="white"/>
<path d="M215.724 91.2103H30.3955V94.1491H215.724V91.2103Z" fill="#B0B8D7"/>
<path d="M74.9919 78.4999L86.3798 86.398L88.8043 86.4347L104.343 79.4917L74.9919 78.4999Z" fill="#63687A"/>
<path d="M88.8042 86.4347L90.2736 86.4714C91.0084 86.4922 91.738 86.3413 92.4042 86.0306L103.608 80.704C103.84 80.601 104.034 80.4297 104.166 80.213C104.297 79.9963 104.359 79.7446 104.343 79.4917H104.306L88.8042 86.4347Z" fill="#22272E"/>
<path d="M50.8937 85.002L89.6492 86.5082C89.9064 86.5165 90.162 86.4656 90.3964 86.3595C90.6308 86.2533 90.8376 86.0947 91.0009 85.8959C91.1642 85.6971 91.2796 85.4634 91.3383 85.2128C91.3969 84.9623 91.3972 84.7017 91.339 84.451L85.792 61.712C85.6282 61.0618 85.2556 60.4834 84.7314 60.0653C84.2072 59.6473 83.5603 59.4128 82.89 59.3977L44.2814 58.8099C44.0918 58.808 43.9043 58.8497 43.7334 58.9317C43.5625 59.0137 43.4127 59.1339 43.2955 59.283C43.1784 59.4321 43.0971 59.6061 43.0578 59.7916C43.0186 59.977 43.0225 60.1691 43.0692 60.3528L49.3141 83.7163C49.399 84.0747 49.5998 84.3951 49.8855 84.6276C50.1711 84.8601 50.5256 84.9917 50.8937 85.002Z" fill="#22272E"/>
<path d="M67.6258 74.3121C68.4086 73.3018 68.0682 71.7272 66.8654 70.7952C65.6626 69.8632 64.0529 69.9268 63.27 70.9371C62.4872 71.9475 62.8276 73.522 64.0304 74.454C65.2332 75.386 66.8429 75.3225 67.6258 74.3121Z" fill="#63687A"/>
<path d="M110.331 16.8217C110.331 16.8217 108.715 18.585 106.547 16.8217C104.38 15.0585 107.172 11.6788 108.053 12.5972C108.935 13.5156 104.196 15.3156 104.049 13.0013C103.902 10.687 106.547 10.54 102.837 7.63797" stroke="#6D7AAF" stroke-width="1.8" stroke-linecap="round" stroke-linejoin="round"/>
<path d="M122.564 13.2217C122.564 13.2217 125.025 12.34 124.143 10.3564C123.262 8.37266 120.984 10.3564 122.564 10.3564C124.143 10.3564 125.282 8.66654 124.327 6.35223" stroke="#6D7AAF" stroke-width="1.8" stroke-linecap="round" stroke-linejoin="round"/>
<path d="M138.874 17.0054C138.874 17.0054 141.923 18.1074 141.115 15.9768C140.307 13.8461 140.38 13.1114 142.254 13.9563C144.127 14.8013 144.237 13.038 144.899 12.6339" stroke="#6D7AAF" stroke-width="1.8" stroke-linecap="round" stroke-linejoin="round"/>
<path d="M151.548 81.8428C150.705 82.9549 149.47 83.7037 148.095 83.9367C147.889 83.9793 147.68 84.0039 147.47 84.0102C144.09 84.2674 141.629 81.8428 141.629 81.8428H151.548Z" fill="#6D7AAF"/>
<path d="M168.997 79.7489C168.997 79.7489 167.895 83.349 164.368 83.9735C163.823 84.0697 163.267 84.0943 162.715 84.0469H147.47C147.68 84.0406 147.889 84.016 148.095 83.9735C149.459 83.711 150.684 82.9681 151.548 81.8796C152.051 81.2501 152.448 80.5429 152.723 79.7857H168.997V79.7489Z" fill="#22272E"/>
<path d="M182.332 59.4711C182.332 59.4711 182.368 55.9813 181.45 53.9608C181.45 53.9608 171.532 55.7609 169.695 56.8262C169.695 56.8262 171.348 58.4793 171.862 60.4997C172.376 62.5201 182.258 62.8875 182.332 59.4711Z" fill="white"/>
<path d="M182.626 62.0058C182.626 62.0058 183.25 55.6506 183.544 54.3282C183.544 54.3282 175.499 54.9894 172.487 56.716L173.295 63.4385L182.626 62.0058Z" fill="#F4C2C9"/>
<path d="M191.552 66.9284C191.552 66.9284 191.516 62.2263 192.801 59.9855C192.801 59.9855 185.234 60.1324 183.544 61.1243C181.854 62.1161 182.075 66.8917 182.075 66.8917C182.075 66.8917 191.222 67.4427 191.552 66.9284Z" fill="white"/>
<path d="M192.801 64.8712H184.462V87.8307H192.801V64.8712Z" fill="#6D7AAF"/>
<path d="M188.65 84.6714C189.543 84.6714 190.267 83.9477 190.267 83.055C190.267 82.1624 189.543 81.4387 188.65 81.4387C187.758 81.4387 187.034 82.1624 187.034 83.055C187.034 83.9477 187.758 84.6714 188.65 84.6714Z" stroke="#22272E" stroke-width="1.8" stroke-linecap="round" stroke-linejoin="round"/>
<path d="M176.123 87.8673V59.4711L171.127 60.6834V84.8918L176.123 87.8673Z" fill="#6D7AAF"/>
<path d="M184.462 59.4711H176.124V87.8673H184.462V59.4711Z" fill="#FFE779"/>
<path d="M180.275 84.6714C181.167 84.6714 181.891 83.9477 181.891 83.055C181.891 82.1624 181.167 81.4387 180.275 81.4387C179.382 81.4387 178.658 82.1624 178.658 83.055C178.658 83.9477 179.382 84.6714 180.275 84.6714Z" stroke="#22272E" stroke-width="1.8" stroke-linecap="round" stroke-linejoin="round"/>
<path d="M178.254 76.8468H182.332" stroke="#22272E" stroke-width="1.8" stroke-linecap="round" stroke-linejoin="round"/>
<path d="M178.254 78.4632H182.332" stroke="#22272E" stroke-width="1.8" stroke-linecap="round" stroke-linejoin="round"/>
</svg>
