<svg width="342" height="289" viewBox="0 0 342 289" fill="none" xmlns="http://www.w3.org/2000/svg">
<path d="M299.821 245.696L36.3945 238.147C30.4715 237.983 24.8118 235.665 20.4754 231.627C16.1391 227.589 13.4238 222.108 12.8381 216.212L0.122735 90.5781C-0.215793 87.2152 0.147834 83.8186 1.19057 80.6035C2.23331 77.3885 3.93243 74.4251 6.18029 71.901C8.42814 69.3769 11.1757 67.3472 14.249 65.9405C17.3223 64.5337 20.6542 63.7806 24.0337 63.7289L317.247 59.6762C320.734 59.629 324.191 60.3291 327.384 61.7294C330.578 63.1296 333.435 65.1975 335.762 67.794C338.09 70.3905 339.835 73.4554 340.879 76.7824C341.923 80.1095 342.243 83.6217 341.817 87.0826L324.745 224.317C323.993 230.342 321.022 235.87 316.414 239.823C311.806 243.776 305.89 245.87 299.821 245.696Z" fill="#EAEDF9"/>
<mask id="mask0_348_5603" style="mask-type:luminance" maskUnits="userSpaceOnUse" x="0" y="59" width="342" height="187">
<path d="M299.821 245.696L36.3945 238.147C30.4715 237.983 24.8118 235.665 20.4754 231.627C16.1391 227.589 13.4238 222.108 12.8381 216.212L0.122735 90.5781C-0.215793 87.2152 0.147834 83.8186 1.19057 80.6035C2.23331 77.3885 3.93243 74.4251 6.18029 71.901C8.42814 69.3769 11.1757 67.3472 14.249 65.9405C17.3223 64.5337 20.6542 63.7806 24.0337 63.7289L317.247 59.6762C320.734 59.629 324.191 60.3291 327.384 61.7294C330.578 63.1296 333.435 65.1975 335.762 67.794C338.09 70.3905 339.835 73.4554 340.879 76.7824C341.923 80.1095 342.243 83.6217 341.817 87.0826L324.745 224.317C323.993 230.342 321.022 235.87 316.414 239.823C311.806 243.776 305.89 245.87 299.821 245.696Z" fill="white"/>
</mask>
<g mask="url(#mask0_348_5603)">
<path d="M84.8244 268.492H-125.663C-127.679 268.492 -129.611 267.691 -131.036 266.266C-132.461 264.841 -133.262 262.909 -133.262 260.893V141.541C-133.262 139.526 -132.461 137.593 -131.036 136.168C-129.611 134.743 -127.679 133.942 -125.663 133.942H84.8244C86.8397 133.942 88.7725 134.743 90.1975 136.168C91.6226 137.593 92.4232 139.526 92.4232 141.541V260.893C92.4232 262.909 91.6226 264.841 90.1975 266.266C88.7725 267.691 86.8397 268.492 84.8244 268.492Z" stroke="#B8BED8" stroke-width="1.8" stroke-linecap="round" stroke-linejoin="round"/>
<path d="M362.992 260.488H150.681C148.666 260.488 146.733 259.687 145.308 258.262C143.883 256.837 143.082 254.904 143.082 252.889V78.4706C143.082 76.4553 143.883 74.5225 145.308 73.0974C146.733 71.6724 148.666 70.8718 150.681 70.8718H362.992C365.008 70.8718 366.94 71.6724 368.365 73.0974C369.79 74.5225 370.591 76.4553 370.591 78.4706V252.889C370.591 254.904 369.79 256.837 368.365 258.262C366.94 259.687 365.008 260.488 362.992 260.488Z" stroke="#B8BED8" stroke-width="1.8" stroke-linecap="round" stroke-linejoin="round"/>
<path d="M34.3681 98.2782H-11.1742V93.7696H34.3681C34.4881 93.7689 34.6069 93.7921 34.7179 93.8376C34.8288 93.8832 34.9296 93.9504 35.0144 94.0352C35.0992 94.12 35.1664 94.2208 35.2119 94.3317C35.2575 94.4426 35.2807 94.5615 35.28 94.6815V97.3157C35.2854 97.4393 35.2659 97.5628 35.2227 97.6787C35.1794 97.7946 35.1133 97.9006 35.0282 97.9904C34.9431 98.0802 34.8408 98.152 34.7274 98.2014C34.614 98.2509 34.4918 98.277 34.3681 98.2782Z" stroke="#B8BED8" stroke-width="1.8" stroke-linecap="round" stroke-linejoin="round"/>
<path d="M26.1108 93.7696H15.827C15.2912 93.771 14.7735 93.5758 14.3721 93.221C13.9706 92.8662 13.7132 92.3765 13.6487 91.8446L12.8382 84.5497C12.8047 84.2436 12.8361 83.9338 12.9303 83.6406C13.0245 83.3474 13.1794 83.0773 13.3849 82.848C13.5904 82.6186 13.8419 82.4351 14.123 82.3093C14.4041 82.1835 14.7085 82.1184 15.0165 82.1181H26.9213C27.229 82.1192 27.5331 82.1849 27.8138 82.3109C28.0946 82.4369 28.3457 82.6204 28.551 82.8496C28.7564 83.0788 28.9113 83.3486 29.0058 83.6414C29.1003 83.9343 29.1323 84.2437 29.0996 84.5497L28.2891 91.8446C28.2246 92.3765 27.9672 92.8662 27.5658 93.221C27.1643 93.5758 26.6466 93.771 26.1108 93.7696Z" stroke="#B8BED8" stroke-width="1.8" stroke-linecap="round" stroke-linejoin="round"/>
<path d="M19.7277 82.1687C19.7277 82.1687 15.675 81.7635 14.8645 76.2923C14.8645 76.2923 18.5119 77.3561 19.6771 79.9397C19.6771 79.9397 20.1837 74.1646 22.9193 73.6074C22.9193 73.6074 24.1351 77.9134 22.21 80.0411C22.21 80.0411 23.6791 77.6094 27.4279 77.6601C27.0737 78.727 26.4638 79.6911 25.6514 80.4681C24.8391 81.2452 23.8489 81.8116 22.7673 82.1181" fill="#B8BED8"/>
<path d="M297.49 124.013H287.207C286.671 124.014 286.153 123.819 285.752 123.464C285.35 123.11 285.093 122.62 285.028 122.088L284.218 114.793C284.184 114.487 284.216 114.177 284.31 113.884C284.404 113.591 284.559 113.321 284.764 113.091C284.97 112.862 285.221 112.678 285.502 112.553C285.784 112.427 286.088 112.362 286.396 112.361H298.301C298.609 112.363 298.913 112.428 299.193 112.554C299.474 112.68 299.725 112.864 299.931 113.093C300.136 113.322 300.291 113.592 300.385 113.885C300.48 114.178 300.512 114.487 300.479 114.793L299.669 122.088C299.595 122.616 299.335 123.1 298.935 123.453C298.536 123.806 298.023 124.005 297.49 124.013Z" stroke="#B8BED8" stroke-width="1.8" stroke-linecap="round" stroke-linejoin="round"/>
<path d="M291.158 112.361C291.158 112.361 287.105 111.956 286.295 106.485C286.295 106.485 289.942 107.549 291.107 110.132C291.107 110.132 291.614 104.357 294.349 103.8C294.349 103.8 295.565 108.106 293.64 110.234C293.64 110.234 295.109 107.802 298.858 107.853C298.504 108.92 297.894 109.884 297.082 110.661C296.269 111.438 295.279 112.004 294.197 112.311" fill="#B8BED8"/>
<path d="M83.2033 159.12H37.509C36.9459 159.116 36.4071 158.89 36.0089 158.492C35.6107 158.094 35.3853 157.555 35.3813 156.992V143.111C35.3853 142.548 35.6107 142.009 36.0089 141.611C36.4071 141.213 36.9459 140.988 37.509 140.984H83.2033C83.7664 140.988 84.3052 141.213 84.7034 141.611C85.1015 142.009 85.327 142.548 85.331 143.111V156.992C85.3379 157.273 85.2876 157.553 85.1832 157.814C85.0787 158.076 84.9222 158.313 84.7232 158.512C84.5243 158.711 84.2869 158.867 84.0257 158.972C83.7644 159.076 83.4846 159.127 83.2033 159.12Z" stroke="#B8BED8" stroke-width="1.8" stroke-linecap="round" stroke-linejoin="round"/>
<path d="M65.6247 145.898H55.0876C54.8877 145.892 54.6974 145.811 54.556 145.669C54.4146 145.528 54.3329 145.338 54.3278 145.138C54.3329 144.938 54.4146 144.747 54.556 144.606C54.6974 144.465 54.8877 144.383 55.0876 144.378H65.6247C65.8246 144.383 66.0149 144.465 66.1563 144.606C66.2977 144.747 66.3794 144.938 66.3846 145.138C66.3794 145.338 66.2977 145.528 66.1563 145.669C66.0149 145.811 65.8246 145.892 65.6247 145.898Z" fill="#B8BED8"/>
<path d="M83.2033 182.321H37.509C36.9459 182.317 36.4071 182.092 36.0089 181.694C35.6107 181.296 35.3853 180.757 35.3813 180.194V166.313C35.3853 165.75 35.6107 165.211 36.0089 164.813C36.4071 164.415 36.9459 164.189 37.509 164.185H83.2033C83.7664 164.189 84.3052 164.415 84.7034 164.813C85.1015 165.211 85.327 165.75 85.331 166.313V180.194C85.3379 180.475 85.2876 180.755 85.1832 181.016C85.0787 181.277 84.9222 181.515 84.7232 181.714C84.5243 181.913 84.2869 182.069 84.0257 182.173C83.7644 182.278 83.4846 182.328 83.2033 182.321Z" stroke="#B8BED8" stroke-width="1.8" stroke-linecap="round" stroke-linejoin="round"/>
<path d="M65.6247 169.099H55.0876C54.8877 169.094 54.6974 169.013 54.556 168.871C54.4146 168.73 54.3329 168.539 54.3278 168.339C54.3329 168.14 54.4146 167.949 54.556 167.808C54.6974 167.666 54.8877 167.585 55.0876 167.58H65.6247C65.8246 167.585 66.0149 167.666 66.1563 167.808C66.2977 167.949 66.3794 168.14 66.3846 168.339C66.3794 168.539 66.2977 168.73 66.1563 168.871C66.0149 169.013 65.8246 169.094 65.6247 169.099Z" fill="#B8BED8"/>
<path d="M317.855 198.735H272.161C271.598 198.731 271.059 198.505 270.661 198.107C270.263 197.709 270.037 197.17 270.033 196.607V182.727C270.037 182.164 270.263 181.625 270.661 181.226C271.059 180.828 271.598 180.603 272.161 180.599H317.855C318.418 180.603 318.957 180.828 319.355 181.226C319.753 181.625 319.979 182.164 319.983 182.727V196.607C319.99 196.888 319.939 197.168 319.835 197.429C319.731 197.691 319.574 197.928 319.375 198.127C319.176 198.326 318.939 198.483 318.678 198.587C318.416 198.691 318.136 198.742 317.855 198.735Z" stroke="#B8BED8" stroke-width="1.8" stroke-linecap="round" stroke-linejoin="round"/>
<path d="M300.277 185.462H289.739C289.54 185.457 289.349 185.375 289.208 185.234C289.066 185.092 288.985 184.902 288.98 184.702C288.985 184.502 289.066 184.312 289.208 184.171C289.349 184.029 289.54 183.948 289.739 183.942H300.277C300.476 183.948 300.667 184.029 300.808 184.171C300.95 184.312 301.031 184.502 301.036 184.702C301.038 184.803 301.02 184.902 300.983 184.995C300.945 185.089 300.889 185.173 300.818 185.244C300.747 185.315 300.663 185.371 300.57 185.409C300.477 185.446 300.377 185.464 300.277 185.462Z" fill="#B8BED8"/>
<path d="M259.192 198.735H213.498C212.935 198.731 212.396 198.505 211.998 198.107C211.6 197.709 211.374 197.17 211.37 196.607V182.727C211.374 182.164 211.6 181.625 211.998 181.226C212.396 180.828 212.935 180.603 213.498 180.599H259.192C259.755 180.603 260.294 180.828 260.692 181.226C261.09 181.625 261.316 182.164 261.32 182.727V196.607C261.316 197.17 261.09 197.709 260.692 198.107C260.294 198.505 259.755 198.731 259.192 198.735Z" stroke="#B8BED8" stroke-width="1.8" stroke-linecap="round" stroke-linejoin="round"/>
<path d="M241.614 185.462H231.077C230.877 185.457 230.686 185.375 230.545 185.234C230.403 185.092 230.322 184.902 230.317 184.702C230.322 184.502 230.403 184.312 230.545 184.171C230.686 184.029 230.877 183.948 231.077 183.942H241.614C241.813 183.948 242.004 184.029 242.145 184.171C242.287 184.312 242.368 184.502 242.373 184.702C242.376 184.803 242.357 184.902 242.32 184.995C242.282 185.089 242.226 185.173 242.156 185.244C242.085 185.315 242 185.371 241.907 185.409C241.814 185.446 241.714 185.464 241.614 185.462Z" fill="#B8BED8"/>
<path d="M200.124 198.735H154.43C153.867 198.731 153.328 198.505 152.93 198.107C152.531 197.709 152.306 197.17 152.302 196.607V182.727C152.306 182.164 152.531 181.625 152.93 181.226C153.328 180.828 153.867 180.603 154.43 180.599H200.124C200.687 180.603 201.226 180.828 201.624 181.226C202.022 181.625 202.248 182.164 202.252 182.727V196.607C202.259 196.888 202.208 197.168 202.104 197.429C201.999 197.691 201.843 197.928 201.644 198.127C201.445 198.326 201.208 198.483 200.946 198.587C200.685 198.691 200.405 198.742 200.124 198.735Z" stroke="#B8BED8" stroke-width="1.8" stroke-linecap="round" stroke-linejoin="round"/>
<path d="M182.545 185.462H172.008C171.808 185.457 171.618 185.375 171.477 185.234C171.335 185.092 171.254 184.902 171.248 184.702C171.254 184.502 171.335 184.312 171.477 184.171C171.618 184.029 171.808 183.948 172.008 183.942H182.545C182.745 183.948 182.936 184.029 183.077 184.171C183.218 184.312 183.3 184.502 183.305 184.702C183.307 184.803 183.289 184.902 183.252 184.995C183.214 185.089 183.158 185.173 183.087 185.244C183.016 185.315 182.932 185.371 182.839 185.409C182.745 185.446 182.646 185.464 182.545 185.462Z" fill="#B8BED8"/>
<path d="M24.9456 159.12H-20.7487C-21.3118 159.116 -21.8506 158.89 -22.2488 158.492C-22.647 158.094 -22.8724 157.555 -22.8764 156.992V143.111C-22.8724 142.548 -22.647 142.009 -22.2488 141.611C-21.8506 141.213 -21.3118 140.988 -20.7487 140.984H24.9456C25.5087 140.988 26.0475 141.213 26.4457 141.611C26.8438 142.009 27.0693 142.548 27.0733 143.111V156.992C27.0802 157.273 27.0299 157.553 26.9255 157.814C26.821 158.076 26.6645 158.313 26.4656 158.512C26.2666 158.711 26.0293 158.867 25.768 158.972C25.5067 159.076 25.2269 159.127 24.9456 159.12Z" stroke="#B8BED8" stroke-width="1.8" stroke-linecap="round" stroke-linejoin="round"/>
<path d="M7.36696 145.898H-3.17008C-3.37 145.892 -3.56031 145.811 -3.70172 145.669C-3.84313 145.528 -3.92483 145.338 -3.92996 145.138C-3.92483 144.938 -3.84313 144.747 -3.70172 144.606C-3.56031 144.465 -3.37 144.383 -3.17008 144.378H7.36696C7.56688 144.383 7.7572 144.465 7.89861 144.606C8.04002 144.747 8.12172 144.938 8.12685 145.138C8.12892 145.238 8.11068 145.338 8.07323 145.431C8.03577 145.524 7.97987 145.609 7.90889 145.68C7.83792 145.751 7.75332 145.806 7.66019 145.844C7.56706 145.881 7.46732 145.9 7.36696 145.898Z" fill="#B8BED8"/>
<path d="M24.9456 182.321H-20.7487C-21.3118 182.317 -21.8506 182.092 -22.2488 181.694C-22.647 181.296 -22.8724 180.757 -22.8764 180.194V166.313C-22.8724 165.75 -22.647 165.211 -22.2488 164.813C-21.8506 164.415 -21.3118 164.189 -20.7487 164.185H24.9456C25.5087 164.189 26.0475 164.415 26.4457 164.813C26.8438 165.211 27.0693 165.75 27.0733 166.313V180.194C27.0802 180.475 27.0299 180.755 26.9255 181.016C26.821 181.277 26.6645 181.515 26.4656 181.714C26.2666 181.913 26.0293 182.069 25.768 182.173C25.5067 182.278 25.2269 182.328 24.9456 182.321Z" stroke="#B8BED8" stroke-width="1.8" stroke-linecap="round" stroke-linejoin="round"/>
<path d="M7.36696 169.099H-3.17008C-3.37 169.094 -3.56031 169.013 -3.70172 168.871C-3.84313 168.73 -3.92483 168.539 -3.92996 168.339C-3.92483 168.14 -3.84313 167.949 -3.70172 167.808C-3.56031 167.666 -3.37 167.585 -3.17008 167.58H7.36696C7.56688 167.585 7.7572 167.666 7.89861 167.808C8.04002 167.949 8.12172 168.14 8.12685 168.339C8.12892 168.44 8.11068 168.54 8.07323 168.633C8.03577 168.726 7.97987 168.81 7.90889 168.881C7.83792 168.952 7.75332 169.008 7.66019 169.046C7.56706 169.083 7.46732 169.101 7.36696 169.099Z" fill="#B8BED8"/>
<path d="M384.37 124.013H153.872C153.256 124.006 152.668 123.759 152.232 123.323C151.796 122.888 151.549 122.299 151.542 121.683V81.3075C151.549 80.6915 151.796 80.1026 152.232 79.667C152.668 79.2314 153.256 78.9838 153.872 78.9772H384.37C384.986 78.9838 385.575 79.2314 386.011 79.667C386.446 80.1026 386.694 80.6915 386.701 81.3075V121.683C386.701 121.989 386.641 122.292 386.525 122.575C386.408 122.858 386.236 123.115 386.02 123.332C385.803 123.548 385.546 123.72 385.263 123.837C384.98 123.954 384.676 124.014 384.37 124.013Z" stroke="#B8BED8" stroke-width="1.8" stroke-linecap="round" stroke-linejoin="round"/>
<path d="M384.37 174.115H153.872C153.256 174.108 152.668 173.86 152.232 173.425C151.796 172.989 151.549 172.4 151.542 171.784V131.409C151.549 130.793 151.796 130.204 152.232 129.769C152.668 129.333 153.256 129.085 153.872 129.079H384.37C384.986 129.085 385.575 129.333 386.011 129.769C386.446 130.204 386.694 130.793 386.701 131.409V171.784C386.701 172.09 386.641 172.394 386.525 172.677C386.408 172.96 386.236 173.217 386.02 173.434C385.803 173.65 385.546 173.822 385.263 173.939C384.98 174.055 384.676 174.115 384.37 174.115Z" stroke="#B8BED8" stroke-width="1.8" stroke-linecap="round" stroke-linejoin="round"/>
<path d="M172.11 98.4809H167.094V123.962H172.11V98.4809Z" stroke="#B8BED8" stroke-width="1.8" stroke-linecap="round" stroke-linejoin="round"/>
<path d="M177.277 105.472H172.059V124.013H177.277V105.472Z" stroke="#B8BED8" stroke-width="1.8" stroke-linecap="round" stroke-linejoin="round"/>
<path d="M323.225 148.582H318.21V174.064H323.225V148.582Z" stroke="#B8BED8" stroke-width="1.8" stroke-linecap="round" stroke-linejoin="round"/>
<path d="M328.443 155.523H323.225V174.064H328.443V155.523Z" stroke="#B8BED8" stroke-width="1.8" stroke-linecap="round" stroke-linejoin="round"/>
<path d="M313.043 148.582H308.027V174.064H313.043V148.582Z" stroke="#B8BED8" stroke-width="1.8" stroke-linecap="round" stroke-linejoin="round"/>
<path d="M303.302 147.952L295.631 172.252L300.413 173.762L308.084 149.462L303.302 147.952Z" stroke="#B8BED8" stroke-width="1.8" stroke-linecap="round" stroke-linejoin="round"/>
<path d="M318.26 155.523H313.043V174.064H318.26V155.523Z" stroke="#B8BED8" stroke-width="1.8" stroke-linecap="round" stroke-linejoin="round"/>
<path d="M255.595 98.4809H250.58V123.962H255.595V98.4809Z" stroke="#B8BED8" stroke-width="1.8" stroke-linecap="round" stroke-linejoin="round"/>
<path d="M260.813 105.472H255.595V124.013H260.813V105.472Z" stroke="#B8BED8" stroke-width="1.8" stroke-linecap="round" stroke-linejoin="round"/>
<path d="M206.051 98.4809H201.036V123.962H206.051V98.4809Z" stroke="#B8BED8" stroke-width="1.8" stroke-linecap="round" stroke-linejoin="round"/>
<path d="M196.313 97.8985L188.642 122.198L193.424 123.708L201.095 99.4083L196.313 97.8985Z" stroke="#B8BED8" stroke-width="1.8" stroke-linecap="round" stroke-linejoin="round"/>
<path d="M211.269 105.472H206.051V124.013H211.269V105.472Z" stroke="#B8BED8" stroke-width="1.8" stroke-linecap="round" stroke-linejoin="round"/>
<path d="M323.174 101.824L323.732 94.2762C323.742 94.158 323.728 94.0389 323.689 93.9268C323.65 93.8146 323.588 93.712 323.507 93.6258C323.425 93.5395 323.326 93.4716 323.217 93.4265C323.107 93.3814 322.989 93.3602 322.87 93.3643H318.514C318.396 93.3649 318.28 93.3892 318.173 93.4358C318.065 93.4825 317.968 93.5505 317.888 93.6358C317.807 93.721 317.745 93.8218 317.704 93.9319C317.664 94.0419 317.646 94.1591 317.652 94.2762L318.21 101.824C318.21 101.824 313.65 104.763 313.701 107.194C313.752 109.069 314.866 118.035 315.373 121.987C315.437 122.518 315.695 123.008 316.096 123.363C316.498 123.718 317.015 123.913 317.551 123.912H323.833C324.369 123.913 324.886 123.718 325.288 123.363C325.689 123.008 325.947 122.518 326.011 121.987C326.518 118.035 327.632 109.069 327.683 107.194C327.734 104.763 323.174 101.824 323.174 101.824Z" fill="#B8BED8"/>
<path d="M272.414 152.027L272.971 144.479C272.982 144.361 272.968 144.242 272.929 144.13C272.89 144.018 272.828 143.915 272.747 143.829C272.665 143.742 272.566 143.675 272.457 143.629C272.347 143.584 272.229 143.563 272.11 143.567H267.753C267.636 143.568 267.52 143.592 267.413 143.639C267.305 143.685 267.208 143.753 267.128 143.839C267.047 143.924 266.985 144.025 266.944 144.135C266.904 144.245 266.886 144.362 266.892 144.479L267.45 152.027C267.45 152.027 262.89 154.966 262.941 157.397C262.992 159.272 264.106 168.238 264.613 172.19C264.677 172.721 264.934 173.211 265.336 173.566C265.737 173.921 266.255 174.116 266.791 174.115H273.073C273.608 174.116 274.126 173.921 274.528 173.566C274.929 173.211 275.186 172.721 275.251 172.19C275.758 168.238 276.872 159.272 276.923 157.397C276.973 154.966 272.414 152.027 272.414 152.027Z" fill="#B8BED8"/>
<path d="M-0.637146 227.002H483.56" stroke="#B8BED8" stroke-width="1.8" stroke-linecap="round" stroke-linejoin="round"/>
<path d="M54.1251 133.942H15.8777C15.0589 133.939 14.2745 133.613 13.6955 133.034C13.1166 132.455 12.7901 131.671 12.7875 130.852V122.848C12.7901 122.029 13.1166 121.245 13.6955 120.666C14.2745 120.087 15.0589 119.76 15.8777 119.758H54.1251C54.9439 119.76 55.7283 120.087 56.3072 120.666C56.8862 121.245 57.2126 122.029 57.2153 122.848V130.852C57.218 131.258 57.1399 131.662 56.9856 132.038C56.8312 132.414 56.6037 132.756 56.3162 133.043C56.0287 133.33 55.687 133.558 55.3109 133.712C54.9347 133.867 54.5317 133.945 54.1251 133.942Z" stroke="#B8BED8" stroke-width="1.8" stroke-linecap="round" stroke-linejoin="round"/>
<path d="M16.5869 122.088H17.0428" stroke="#B8BED8" stroke-width="1.8" stroke-linecap="round" stroke-linejoin="round"/>
<path d="M50.0217 130.092H20.0317C20.0317 129.42 20.2985 128.776 20.7736 128.301C21.2486 127.826 21.8928 127.559 22.5646 127.559H47.4381C47.775 127.552 48.1098 127.613 48.423 127.737C48.7362 127.861 49.0214 128.047 49.262 128.283C49.5026 128.519 49.6937 128.8 49.8242 129.111C49.9546 129.421 50.0218 129.755 50.0217 130.092Z" stroke="#B8BED8" stroke-width="1.8" stroke-linecap="round" stroke-linejoin="round"/>
<path d="M45.8171 108.917H24.2364V119.808H45.8171V108.917Z" stroke="#B8BED8" stroke-width="1.8" stroke-linecap="round" stroke-linejoin="round"/>
</g>
<path d="M209.192 156.536L189.232 148.937C188.959 148.83 188.725 148.641 188.562 148.396C188.399 148.152 188.315 147.863 188.32 147.569L220.337 142.909C220.337 142.909 224.288 149.545 223.883 149.697C223.478 149.849 209.192 156.536 209.192 156.536Z" fill="#22272E"/>
<path d="M188.32 147.62L209.698 155.117L221.958 149.19C221.958 149.19 219.273 143.162 218.969 143.213C218.665 143.263 188.32 147.62 188.32 147.62Z" fill="#63687A"/>
<path d="M208.787 155.269L215.778 125.583C215.952 124.885 216.347 124.262 216.903 123.805C217.46 123.349 218.149 123.084 218.868 123.05L250.935 122.189C251.128 122.185 251.319 122.226 251.493 122.31C251.668 122.393 251.82 122.516 251.938 122.668C252.056 122.821 252.137 122.999 252.174 123.189C252.211 123.378 252.203 123.574 252.151 123.76L245.616 146.556C245.454 147.112 245.149 147.616 244.731 148.016C244.313 148.416 243.797 148.699 243.235 148.836L210.306 156.739C210.1 156.801 209.881 156.807 209.672 156.756C209.462 156.705 209.27 156.599 209.116 156.45C208.961 156.3 208.849 156.112 208.791 155.904C208.733 155.697 208.731 155.478 208.787 155.269Z" fill="#22272E"/>
<path d="M235.487 137.557C235.957 135.945 235.511 134.397 234.49 134.1C233.469 133.802 232.261 134.867 231.791 136.479C231.321 138.09 231.767 139.638 232.788 139.936C233.809 140.233 235.017 139.168 235.487 137.557Z" fill="#63687A"/>
<path d="M259.749 107.194L186.395 103.091C185.953 103.066 185.521 102.953 185.123 102.757C184.726 102.561 184.373 102.287 184.084 101.951C183.796 101.615 183.578 101.224 183.444 100.802C183.31 100.38 183.263 99.9349 183.305 99.4941L189.587 35.4106C189.693 34.3903 190.15 33.4386 190.88 32.7179C191.61 31.9972 192.567 31.5523 193.589 31.4592L270.489 25.5828C270.976 25.5423 271.466 25.612 271.922 25.7866C272.379 25.9612 272.79 26.2363 273.126 26.5914C273.462 26.9466 273.713 27.3727 273.862 27.8383C274.01 28.3039 274.052 28.7969 273.985 29.2809L264.359 103.395C264.203 104.489 263.643 105.485 262.791 106.188C261.938 106.891 260.853 107.25 259.749 107.194Z" fill="#63687A"/>
<path d="M257.723 107.194L184.014 103.091C183.571 103.07 183.136 102.96 182.737 102.765C182.337 102.571 181.982 102.296 181.693 101.96C181.403 101.623 181.186 101.23 181.054 100.806C180.922 100.382 180.877 99.9357 180.924 99.494L187.206 35.1066C187.306 34.0755 187.768 33.1131 188.51 32.3899C189.252 31.6667 190.225 31.2293 191.259 31.1552L268.513 25.2281C269.002 25.1911 269.492 25.2626 269.95 25.4376C270.407 25.6126 270.82 25.8867 271.159 26.2402C271.498 26.5937 271.755 27.0179 271.91 27.4823C272.066 27.9467 272.117 28.4398 272.06 28.9262L262.384 103.395C262.2 104.486 261.626 105.473 260.768 106.172C259.911 106.871 258.829 107.234 257.723 107.194Z" fill="#22272E"/>
<path d="M256.355 75.4311L255.291 83.7898L244.856 83.5871L245.818 75.3804L256.355 75.4311Z" fill="white"/>
<path d="M235.382 75.3297L234.42 83.3845L223.782 83.2325L224.643 75.3297H235.382Z" fill="#F4C2C9"/>
<path d="M244.856 83.5872L243.843 91.7432L233.457 91.3886L234.42 83.3845L244.856 83.5872Z" fill="#B0B8D7"/>
<path d="M202.961 39.1086L194.298 39.6152C194.151 39.6139 194.01 39.5548 193.906 39.4505C193.801 39.3463 193.742 39.2053 193.741 39.058L193.893 37.5889C193.924 37.385 194.019 37.1964 194.165 37.0506C194.311 36.9048 194.5 36.8094 194.703 36.7783L203.417 36.2211C203.492 36.2131 203.568 36.222 203.639 36.2472C203.71 36.2724 203.775 36.3132 203.828 36.3666C203.882 36.42 203.923 36.4847 203.948 36.556C203.973 36.6272 203.982 36.7032 203.974 36.7783L203.822 38.2981C203.788 38.5094 203.685 38.7036 203.53 38.8502C203.374 38.9969 203.174 39.0878 202.961 39.1086Z" fill="#63687A"/>
<path d="M208.432 56.5859L193.133 57.0418C192.984 57.0425 192.837 57.012 192.701 56.9523C192.565 56.8927 192.443 56.8051 192.343 56.6953C192.242 56.5855 192.166 56.456 192.119 56.315C192.072 56.174 192.055 56.0247 192.069 55.8767L192.88 47.8726C192.913 47.5394 193.064 47.2288 193.305 46.9967C193.546 46.7646 193.863 46.6261 194.197 46.6061L209.597 45.8462C209.748 45.8369 209.899 45.8615 210.04 45.9183C210.18 45.9751 210.306 46.0626 210.408 46.1743C210.51 46.2861 210.586 46.4193 210.629 46.5641C210.673 46.709 210.684 46.8618 210.661 47.0114L209.749 55.3194C209.724 55.6558 209.576 55.9711 209.333 56.2049C209.09 56.4386 208.769 56.5743 208.432 56.5859Z" fill="#B0B8D7"/>
<path d="M232.039 55.8768L215.271 56.3834C215.122 56.384 214.975 56.3535 214.839 56.2939C214.703 56.2342 214.581 56.1466 214.48 56.0368C214.38 55.9271 214.304 55.7975 214.257 55.6565C214.21 55.5155 214.193 55.3662 214.207 55.2182L215.119 46.7582C215.152 46.4249 215.303 46.1144 215.544 45.8823C215.786 45.6502 216.102 45.5117 216.436 45.4917L233.356 44.6812C233.507 44.6718 233.658 44.6965 233.799 44.7532C233.939 44.81 234.065 44.8975 234.167 45.0093C234.269 45.121 234.345 45.2542 234.388 45.3991C234.432 45.5439 234.443 45.6967 234.42 45.8463L233.407 54.6103C233.362 54.9478 233.201 55.2592 232.952 55.4905C232.702 55.7217 232.379 55.8584 232.039 55.8768Z" fill="#FFE779"/>
<path d="M257.723 55.1169L239.233 55.6741C239.083 55.6789 238.934 55.6512 238.795 55.5929C238.657 55.5346 238.534 55.4471 238.432 55.3364C238.331 55.2257 238.255 55.0944 238.21 54.9516C238.164 54.8088 238.15 54.6578 238.169 54.509L239.233 45.593C239.274 45.2632 239.428 44.9575 239.667 44.727C239.907 44.4966 240.218 44.3552 240.55 44.3266L259.141 43.4147C259.293 43.4054 259.444 43.43 259.584 43.4868C259.724 43.5436 259.85 43.631 259.952 43.7428C260.054 43.8546 260.13 43.9878 260.174 44.1326C260.217 44.2775 260.228 44.4303 260.205 44.5799L259.04 53.8504C259.007 54.1837 258.856 54.4942 258.615 54.7263C258.373 54.9584 258.057 55.0969 257.723 55.1169Z" fill="#F4C2C9"/>
<path d="M212.333 98.7341L250.732 100.456C251.401 100.475 252.054 100.248 252.567 99.8192C253.08 99.3899 253.418 98.7878 253.518 98.1262L257.774 64.59C257.824 64.2114 257.792 63.8263 257.68 63.4612C257.567 63.0962 257.377 62.76 257.121 62.4758C256.866 62.1916 256.552 61.9662 256.201 61.8152C255.85 61.6642 255.471 61.5912 255.089 61.6012L215.828 62.361C215.177 62.3776 214.553 62.6269 214.07 63.0637C213.587 63.5004 213.276 64.0958 213.194 64.742L209.8 95.7959C209.761 96.1574 209.798 96.5229 209.906 96.8699C210.014 97.2169 210.193 97.5381 210.43 97.8134C210.667 98.0888 210.959 98.3125 211.286 98.4709C211.613 98.6292 211.969 98.7188 212.333 98.7341Z" stroke="#63687A" stroke-width="1.8" stroke-linecap="round" stroke-linejoin="round"/>
<path d="M212.839 67.4776L257.419 67.0217" stroke="#63687A" stroke-width="1.8" stroke-linecap="round" stroke-linejoin="round"/>
<path d="M225.555 67.6803L221.958 99.1395" stroke="#63687A" stroke-width="1.8" stroke-linecap="round" stroke-linejoin="round"/>
<path d="M236.294 67.5789L232.495 99.646" stroke="#63687A" stroke-width="1.8" stroke-linecap="round" stroke-linejoin="round"/>
<path d="M246.781 67.5283L242.829 100.102" stroke="#63687A" stroke-width="1.8" stroke-linecap="round" stroke-linejoin="round"/>
<path d="M224.693 75.3297L256.355 75.431" stroke="#63687A" stroke-width="1.8" stroke-linecap="round" stroke-linejoin="round"/>
<path d="M223.782 83.2325L255.291 83.7898" stroke="#63687A" stroke-width="1.8" stroke-linecap="round" stroke-linejoin="round"/>
<path d="M222.87 91.0847L254.228 92.0472" stroke="#63687A" stroke-width="1.8" stroke-linecap="round" stroke-linejoin="round"/>
<path d="M258.027 34.1441C257.992 34.4703 257.856 34.7774 257.638 35.0226C257.42 35.2678 257.131 35.4388 256.811 35.5119C256.203 35.5625 255.798 35.0053 255.899 34.296C255.934 33.9698 256.07 33.6627 256.288 33.4175C256.506 33.1723 256.795 33.0013 257.115 32.9283C257.262 32.9298 257.407 32.9651 257.538 33.0315C257.669 33.0979 257.783 33.1936 257.871 33.3112C257.959 33.4287 258.019 33.565 258.046 33.7094C258.073 33.8539 258.067 34.0026 258.027 34.1441Z" fill="#63687A"/>
<path d="M253.062 34.4987C253.044 34.8252 252.913 35.1353 252.691 35.3756C252.469 35.6159 252.171 35.7716 251.847 35.8158C251.239 35.8664 250.833 35.3092 250.935 34.6C250.953 34.2734 251.084 33.9633 251.306 33.723C251.528 33.4827 251.827 33.327 252.151 33.2828C252.758 33.2322 253.164 33.7894 253.062 34.4987Z" fill="#63687A"/>
<path d="M248.199 34.8026C248.172 35.1262 248.038 35.4314 247.817 35.6699C247.597 35.9085 247.304 36.0668 246.983 36.1198C246.426 36.1704 246.021 35.6132 246.072 34.9546C246.099 34.6311 246.233 34.3259 246.453 34.0873C246.674 33.8487 246.967 33.6904 247.287 33.6375C247.895 33.5362 248.25 34.0934 248.199 34.8026Z" fill="#63687A"/>
<path d="M102.2 96.9611L54.9356 100.71C53.4665 100.811 52.1494 99.494 52.0481 97.7716L49.2619 54.0024C49.1605 52.28 50.427 50.7095 51.8961 50.8615L97.4384 55.4208C98.1668 55.5015 98.8439 55.8343 99.3528 56.3617C99.8616 56.889 100.17 57.5776 100.225 58.3084L103.923 94.8334C103.964 95.0884 103.95 95.3491 103.884 95.5987C103.817 95.8482 103.699 96.0809 103.536 96.2816C103.374 96.4823 103.171 96.6466 102.941 96.7636C102.711 96.8807 102.458 96.948 102.2 96.9611Z" fill="#F8AB5D"/>
<path d="M104.48 96.5558L56.658 100.355C55.1383 100.457 53.8211 99.1394 53.7198 97.417L50.9842 53.3944C50.8829 51.6214 52.2001 50.0509 53.6692 50.2029L99.7687 54.7115C100.503 54.7897 101.187 55.1203 101.705 55.647C102.222 56.1736 102.541 56.8637 102.606 57.5991L106.354 94.3268C106.385 94.8673 106.208 95.3991 105.86 95.8134C105.511 96.2278 105.018 96.4933 104.48 96.5558Z" fill="#FFE779"/>
<path d="M72.9196 91.4392L61.9772 91.9458C61.577 91.9368 61.1957 91.7738 60.9126 91.4907C60.6295 91.2076 60.4665 90.8263 60.4575 90.426L58.4311 60.6893C58.3805 59.8787 58.9884 59.1189 59.6976 59.1695L70.4879 59.9294C70.8493 59.9704 71.1831 60.1426 71.4259 60.4134C71.6687 60.6842 71.8037 61.0348 71.8051 61.3985L74.0847 89.9701C74.1154 90.3176 74.0117 90.6636 73.795 90.9369C73.5782 91.2102 73.2649 91.39 72.9196 91.4392Z" fill="#22272E"/>
<path d="M73.8821 90.9833L62.8891 91.5405C62.4889 91.5315 62.1075 91.3685 61.8244 91.0854C61.5414 90.8023 61.3783 90.421 61.3693 90.0208L59.343 60.1827C59.2923 59.3721 59.9002 58.6123 60.6094 58.6629L71.4504 59.4228C71.8118 59.4638 72.1456 59.636 72.3884 59.9068C72.6312 60.1776 72.7662 60.5282 72.7676 60.8919L75.0472 89.5648C75.0694 89.905 74.9613 90.2409 74.745 90.5043C74.5286 90.7677 74.2201 90.939 73.8821 90.9833Z" fill="#6D7AAF"/>
<path d="M64.9154 60.9426L66.5871 61.0439" stroke="#22272E" stroke-width="1.8" stroke-linecap="round" stroke-linejoin="round"/>
<path d="M67.499 61.0946H67.651" stroke="#22272E" stroke-width="1.8" stroke-linecap="round" stroke-linejoin="round"/>
<path d="M59.4949 62.513L72.9702 63.2729" stroke="#22272E" stroke-width="1.8" stroke-linecap="round" stroke-linejoin="round"/>
<path d="M61.2173 87.6905L74.8446 87.2346" stroke="#22272E" stroke-width="1.8" stroke-linecap="round" stroke-linejoin="round"/>
<path d="M95.9187 61.4491L85.2803 60.6386C85.13 60.6226 84.9781 60.6405 84.8356 60.6909C84.6932 60.7412 84.5638 60.8228 84.4569 60.9297C84.35 61.0365 84.2685 61.1659 84.2181 61.3084C84.1677 61.4509 84.1499 61.6028 84.1658 61.7531L84.5204 65.9071C84.5404 66.1645 84.655 66.4052 84.8421 66.583C85.0292 66.7608 85.2756 66.8629 85.5336 66.8696L96.172 67.2749C96.3253 67.2847 96.4788 67.2608 96.6219 67.205C96.765 67.1491 96.8942 67.0627 97.0003 66.9517C97.1065 66.8407 97.1871 66.7078 97.2366 66.5624C97.286 66.4169 97.303 66.2625 97.2865 66.1098L96.9318 62.361C96.8766 62.1236 96.7499 61.9088 96.5687 61.7457C96.3875 61.5826 96.1606 61.4791 95.9187 61.4491Z" fill="#6D7AAF"/>
<path d="M87.8132 72.0875C87.8236 72.2566 87.7979 72.4258 87.738 72.5842C87.678 72.7425 87.585 72.8863 87.4653 73.0061C87.3456 73.1258 87.2018 73.2188 87.0434 73.2787C86.8851 73.3387 86.7158 73.3644 86.5468 73.354C86.1765 73.3573 85.8177 73.2253 85.5379 72.9828C85.258 72.7403 85.0764 72.4039 85.027 72.0369C85.0183 71.8639 85.0469 71.6911 85.1107 71.5301C85.1746 71.3691 85.2722 71.2236 85.3971 71.1036C85.5219 70.9836 85.6711 70.8917 85.8344 70.8342C85.9978 70.7767 86.1716 70.755 86.3441 70.7704C86.7057 70.7793 87.0522 70.9167 87.3215 71.1582C87.5908 71.3996 87.7651 71.7291 87.8132 72.0875Z" fill="#6D7AAF"/>
<path d="M90.1436 72.1382L97.3878 72.2395" stroke="#63687A" stroke-width="1.8" stroke-linecap="round" stroke-linejoin="round"/>
<path d="M88.2185 76.5455C88.226 76.7162 88.1988 76.8867 88.1385 77.0465C88.0782 77.2064 87.986 77.3524 87.8676 77.4755C87.7492 77.5987 87.6069 77.6965 87.4495 77.7631C87.2922 77.8296 87.1229 77.8635 86.952 77.8626C86.5892 77.8677 86.2366 77.7428 85.9579 77.5105C85.6791 77.2783 85.4927 76.9539 85.4323 76.5962C85.4219 76.4205 85.4489 76.2446 85.5115 76.0802C85.574 75.9157 85.6707 75.7663 85.7951 75.6419C85.9195 75.5175 86.0689 75.4208 86.2334 75.3583C86.3979 75.2957 86.5737 75.2687 86.7494 75.279C87.1057 75.2778 87.4506 75.4052 87.7205 75.6379C87.9904 75.8705 88.1672 76.1928 88.2185 76.5455Z" fill="#6D7AAF"/>
<path d="M90.5488 76.4949L97.7424 76.3936" stroke="#63687A" stroke-width="1.8" stroke-linecap="round" stroke-linejoin="round"/>
<path d="M88.6238 80.9528C88.6313 81.1236 88.6041 81.294 88.5438 81.4539C88.4835 81.6138 88.3913 81.7597 88.2729 81.8829C88.1544 82.0061 88.0122 82.1039 87.8548 82.1704C87.6974 82.237 87.5282 82.2708 87.3573 82.27C86.9964 82.3006 86.6376 82.1916 86.3548 81.9653C86.072 81.7391 85.8869 81.4129 85.8375 81.0542C85.8272 80.8785 85.8542 80.7026 85.9168 80.5382C85.9793 80.3737 86.076 80.2243 86.2004 80.0999C86.3248 79.9755 86.4742 79.8788 86.6387 79.8163C86.8031 79.7537 86.979 79.7267 87.1547 79.737C87.5063 79.7232 87.8507 79.8396 88.1218 80.0639C88.3929 80.2883 88.5716 80.6048 88.6238 80.9528Z" fill="#6D7AAF"/>
<path d="M90.9034 80.8515L98.097 80.5476" stroke="#63687A" stroke-width="1.8" stroke-linecap="round" stroke-linejoin="round"/>
<path d="M80.5184 129.231C79.8598 129.231 82.798 122.24 85.8375 123.202C88.8771 124.165 84.3684 129.281 80.5184 129.231Z" fill="#6D7AAF"/>
<path d="M80.873 130.193C80.873 130.193 77.5802 126.039 74.2873 127.002C70.9945 127.964 75.0979 132.625 80.873 130.193Z" fill="#6D7AAF"/>
<path d="M79.9104 126.039C79.9104 126.039 84.8243 117.579 82.7473 115.553C79.0492 111.956 74.3886 122.594 79.9104 126.039Z" fill="#6D7AAF"/>
<path d="M88.1172 145.29L80.9236 146.911C79.9444 147.131 78.919 146.997 78.0289 146.533C77.1388 146.07 76.4415 145.306 76.0604 144.378L72.7675 136.475C72.6148 136.115 72.5431 135.725 72.5575 135.334C72.5719 134.943 72.672 134.56 72.8509 134.212C73.0297 133.865 73.2828 133.56 73.5923 133.321C73.9018 133.081 74.2601 132.913 74.6419 132.828L87.7119 129.889C88.092 129.802 88.4868 129.799 88.868 129.882C89.2492 129.965 89.6074 130.13 89.9171 130.368C90.2268 130.605 90.4804 130.907 90.6596 131.254C90.8389 131.6 90.9394 131.982 90.9541 132.372L91.3593 140.882C91.4556 141.887 91.1782 142.892 90.58 143.705C89.9819 144.518 89.1051 145.082 88.1172 145.29Z" fill="#22272E"/>
<path d="M81.3289 131.966C81.3289 131.966 79.0492 125.026 79.9104 121.784" stroke="black" stroke-width="1.8" stroke-linecap="round" stroke-linejoin="round"/>
<path d="M106.962 160.639C106.962 160.639 106.658 164.135 105.848 166.212C105.037 168.289 103.619 170.822 104.075 174.317C104.531 177.813 107.874 182.929 109.191 182.777C110.508 182.625 109.799 180.396 109.799 180.396C109.799 180.396 111.116 182.271 112.383 181.713C113.649 181.156 111.927 177.103 111.927 177.103C111.927 177.103 113.497 179.636 114.916 179.332C116.334 179.028 113.497 175.026 113.497 175.026C113.497 175.026 115.372 177.103 115.878 176.799C116.385 176.495 116.841 176.647 115.878 174.266C114.916 171.885 116.486 164.135 116.435 162.362C116.385 160.589 109.495 159.018 106.962 160.639Z" fill="#F4C2C9"/>
<path d="M125.757 167.681L135.635 188.35C135.729 188.542 135.784 188.752 135.796 188.966C135.809 189.18 135.779 189.394 135.708 189.597C135.638 189.799 135.528 189.986 135.385 190.146C135.242 190.305 135.069 190.435 134.875 190.528L105.544 205.32C105.34 205.427 105.116 205.489 104.886 205.503C104.656 205.517 104.426 205.482 104.211 205.401C103.996 205.32 103.8 205.194 103.637 205.031C103.474 204.869 103.347 204.674 103.264 204.459L92.2712 176.191C92.1887 175.973 92.1538 175.739 92.1691 175.505C92.1843 175.272 92.2493 175.044 92.3596 174.838C92.47 174.632 92.6231 174.451 92.8088 174.309C92.9945 174.167 93.2085 174.066 93.4364 174.013L123.882 166.82C124.246 166.715 124.635 166.744 124.979 166.902C125.323 167.06 125.599 167.337 125.757 167.681Z" fill="#FFE779"/>
<path d="M111.826 190.731L113.447 194.631C113.499 194.748 113.527 194.873 113.53 195C113.533 195.128 113.51 195.254 113.462 195.372C113.415 195.491 113.345 195.598 113.255 195.688C113.165 195.779 113.058 195.85 112.94 195.898L108.786 197.772C108.667 197.831 108.537 197.864 108.405 197.87C108.273 197.875 108.141 197.854 108.017 197.806C107.893 197.759 107.781 197.686 107.686 197.593C107.592 197.5 107.518 197.389 107.469 197.266L105.797 193.162C105.75 193.043 105.727 192.915 105.729 192.786C105.731 192.657 105.759 192.53 105.811 192.413C105.863 192.295 105.938 192.189 106.031 192.1C106.124 192.011 106.234 191.942 106.354 191.896L110.508 190.224C110.752 190.135 111.02 190.138 111.262 190.231C111.504 190.324 111.704 190.501 111.826 190.731Z" fill="#6D7AAF"/>
<path d="M103.568 187.64L99.4141 177.357" stroke="#63687A" stroke-width="1.8" stroke-linecap="round" stroke-linejoin="round"/>
<path d="M106.658 186.526L102.504 176.495" stroke="#63687A" stroke-width="1.8" stroke-linecap="round" stroke-linejoin="round"/>
<path d="M121.096 186.982L122.616 190.427C122.668 190.543 122.697 190.668 122.699 190.795C122.702 190.923 122.679 191.049 122.632 191.168C122.584 191.286 122.514 191.393 122.424 191.484C122.334 191.574 122.227 191.645 122.109 191.693L118.867 193.162C118.625 193.266 118.352 193.27 118.106 193.176C117.86 193.081 117.661 192.895 117.55 192.656L115.98 189.059C115.876 188.817 115.871 188.543 115.966 188.298C116.06 188.052 116.247 187.852 116.486 187.742L119.779 186.425C120.029 186.346 120.299 186.359 120.54 186.461C120.781 186.563 120.978 186.748 121.096 186.982Z" fill="#F4C2C9"/>
<path d="M113.801 183.942L109.749 174.52" stroke="#63687A" stroke-width="1.8" stroke-linecap="round" stroke-linejoin="round"/>
<path d="M116.435 182.98L112.383 173.811" stroke="#63687A" stroke-width="1.8" stroke-linecap="round" stroke-linejoin="round"/>
<path d="M128.695 182.929L130.924 187.691L126.618 189.667L124.338 184.702L128.695 182.929Z" stroke="black" stroke-width="1.8" stroke-linecap="round" stroke-linejoin="round"/>
<path d="M122.565 180.802L118.614 172.139" stroke="#63687A" stroke-width="1.8" stroke-linecap="round" stroke-linejoin="round"/>
<path d="M124.794 179.991L120.893 171.531" stroke="#63687A" stroke-width="1.8" stroke-linecap="round" stroke-linejoin="round"/>
<path d="M116.841 161.804C116.96 163.364 117.232 164.908 117.651 166.414C118.264 169.009 118.637 171.654 118.766 174.317C118.816 175.685 116.739 175.229 115.574 173.101C114.409 170.974 113.852 170.366 112.839 169.809C112.219 169.52 111.67 169.097 111.232 168.572C110.795 168.046 110.478 167.431 110.306 166.769C109.698 164.895 115.118 159.727 116.841 161.804Z" fill="#F4C2C9"/>
<path d="M133.406 77.8121C130.519 77.8121 122.717 78.9266 116.03 93.8709C110.458 106.282 107.216 113.223 106.405 118.846C105.595 124.469 104.936 137.893 105.493 147.721C106.05 157.549 106.506 161.703 106.506 161.703C106.506 161.703 111.066 164.692 117.094 161.703C117.094 161.703 118.665 149.646 119.88 142.554C121.096 135.462 121.552 128.319 121.248 125.127C121.248 125.127 129.202 111.146 132.748 105.573C136.395 100.001 149.718 77.8121 133.406 77.8121Z" fill="#6D7AAF"/>
<path d="M106.202 157.904C107.984 158.746 109.931 159.183 111.902 159.183C113.872 159.183 115.819 158.746 117.601 157.904" stroke="black" stroke-width="1.8" stroke-linecap="round" stroke-linejoin="round"/>
<path d="M106.608 117.478C106.897 116.744 107.379 116.103 108.003 115.621C108.628 115.139 109.371 114.836 110.154 114.742C113.599 114.236 115.524 117.731 114.713 121.885C113.903 126.039 110.762 128.116 108.229 127.66C107.719 127.573 107.24 127.354 106.84 127.025C106.441 126.697 106.134 126.269 105.949 125.786" stroke="black" stroke-width="1.8" stroke-linecap="round" stroke-linejoin="round"/>
<path d="M172.262 276.496C172.379 275.496 172.7 274.53 173.206 273.659C173.711 272.787 174.39 272.029 175.2 271.43C177.935 269.505 181.076 273.051 173.933 275.939" stroke="#63687A" stroke-width="1.8" stroke-linecap="round" stroke-linejoin="round"/>
<path d="M174.946 275.534C174.946 275.534 177.885 274.166 179.404 275.888C180.924 277.611 176.618 278.776 174.339 277.256" stroke="#63687A" stroke-width="1.8" stroke-linecap="round" stroke-linejoin="round"/>
<path d="M128.29 276.496C128.29 276.496 132.596 271.481 136.344 271.43C140.093 271.38 135.838 275.584 131.127 277.053" stroke="#63687A" stroke-width="1.8" stroke-linecap="round" stroke-linejoin="round"/>
<path d="M131.532 276.496C131.532 276.496 136.8 274.47 137.459 276.496C138.117 278.522 131.886 277.965 131.886 277.965" stroke="#63687A" stroke-width="1.8" stroke-linecap="round" stroke-linejoin="round"/>
<path d="M159.597 263.325C159.597 263.325 159.394 272.342 159.597 274.824C159.799 277.307 164.359 278.877 168.006 277.712C171.654 276.547 171.755 274.166 171.755 274.166C171.755 274.166 172.566 263.274 172.566 261.197C172.566 259.12 159.648 259.221 159.597 263.325Z" fill="#F4C2C9"/>
<path d="M159.597 263.325C159.597 263.325 159.546 265.503 159.546 268.036C163.65 269.606 168.665 269.1 172.211 268.492C172.414 265.452 172.616 262.16 172.616 261.096C172.566 259.069 159.648 259.221 159.597 263.325Z" fill="#22272E"/>
<path d="M159.496 273.305C159.496 273.305 158.786 273.203 158.077 278.573C157.368 283.943 156.811 287.185 158.938 287.59C161.066 287.996 181.279 287.59 183.457 287.59C185.635 287.59 187.105 286.425 187.003 285.007C186.902 283.588 181.431 281.359 178.898 279.333C176.365 277.307 172.667 274.875 172.262 273.507C171.552 271.228 170.134 270.366 168.918 273.305C167.956 275.584 165.423 275.837 162.282 275.432C161.663 275.381 161.071 275.153 160.577 274.776C160.084 274.399 159.708 273.888 159.496 273.305Z" fill="#22272E"/>
<path d="M179.658 279.89C179.658 279.89 175.453 280.802 176.061 286.02" stroke="#63687A" stroke-width="1.8" stroke-linecap="round" stroke-linejoin="round"/>
<path d="M118.31 261.602C118.31 261.602 117.195 272.798 117.297 274.318C117.398 275.838 122.261 276.293 125.402 275.888C128.543 275.483 128.948 274.52 128.948 274.52C128.948 274.52 131.431 264.034 131.431 261.653C131.431 259.272 119.323 258.664 118.31 261.602Z" fill="#F4C2C9"/>
<path d="M118.31 261.602C118.31 261.602 118.107 263.578 117.905 266.01C122.008 267.935 126.213 268.087 130.519 267.732C131.025 265.199 131.481 262.666 131.481 261.653C131.532 259.221 119.323 258.664 118.31 261.602Z" fill="#22272E"/>
<path d="M117.347 271.43C116.828 273.086 116.439 274.78 116.182 276.496C115.878 278.877 113.7 286.679 115.169 287.793C116.638 288.908 137.662 287.793 139.485 287.793C141.309 287.793 143.589 286.679 143.335 284.703C143.082 282.727 139.181 281.917 136.344 279.941C134.054 278.221 131.887 276.342 129.86 274.318C129.86 274.318 130.468 271.278 129.961 270.417C129.455 269.556 127.884 273.001 126.77 273.406C125.655 273.811 123.274 274.166 119.475 273.406C118.969 273.313 118.5 273.078 118.124 272.728C117.747 272.378 117.478 271.928 117.347 271.43Z" fill="#22272E"/>
<path d="M136.344 279.89C136.344 279.89 132.798 281.106 132.342 286.02" stroke="#63687A" stroke-width="1.8" stroke-linecap="round" stroke-linejoin="round"/>
<path d="M171.299 138.299C171.299 138.299 173.072 144.428 174.085 157.144C175.098 169.859 176.466 193.061 176.871 197.62C177.277 202.18 177.277 214.287 176.061 228.927C174.845 243.568 175.453 255.675 175.858 258.462C176.264 261.248 174.288 263.629 172.312 264.389C170.337 265.149 161.421 265.199 159.597 264.389C159.597 264.389 155.24 262.008 155.848 257.854C156.456 253.7 156.659 245.341 154.683 229.89C152.707 214.439 154.683 203.294 154.683 203.294C154.683 203.294 152.403 196.303 149.82 189.059C148.908 186.475 147.945 183.841 147.084 181.46C146.204 178.944 145.154 176.49 143.943 174.115C141.36 169.758 139.384 150.71 142.373 140.781C145.311 130.953 166.334 130.953 171.299 138.299Z" fill="#22272E"/>
<path d="M124.896 137.691C124.896 137.691 119.728 151.571 121.147 167.428C122.565 183.284 125.503 201.724 124.896 203.142C124.288 204.561 122.109 211.653 119.931 227.509C117.753 243.365 112.991 255.473 114.156 258.462C115.321 261.45 118.614 263.021 119.475 263.223C120.336 263.426 129.455 264.389 131.633 264.034C133.812 263.679 137.206 260.083 137.206 255.929C137.206 251.775 137.611 242.859 141.765 228.573C145.919 214.287 147.388 210.082 148.857 203.547C150.326 197.012 151.694 162.362 151.694 162.362C151.694 162.362 155.392 145.087 143.639 141.541C131.886 137.893 124.896 137.691 124.896 137.691Z" fill="#22272E"/>
<path d="M136.192 173.507C136.192 173.507 144.45 172.189 147.439 174.317" stroke="#63687A" stroke-width="1.8" stroke-linecap="round" stroke-linejoin="round"/>
<path d="M124.592 150.204C124.592 150.204 129.607 151.977 138.219 152.838C138.219 152.838 137.307 161.754 136.75 163.628C136.192 165.503 132.393 167.124 129.556 167.124C126.922 167.124 124.034 164.236 123.426 162.108C122.667 159.221 124.592 150.204 124.592 150.204Z" stroke="#63687A" stroke-width="1.8" stroke-linecap="round" stroke-linejoin="round"/>
<path d="M147.945 152.939C147.945 152.939 156.456 153.851 162.788 151.521C162.788 151.521 163.751 161.095 163.599 162.666C163.447 164.236 159.901 167.174 157.267 167.782C155.038 168.289 151.39 166.617 149.668 165.097C147.945 163.578 147.945 152.939 147.945 152.939Z" stroke="#63687A" stroke-width="1.8" stroke-linecap="round" stroke-linejoin="round"/>
<path d="M174.592 164.641C174.592 164.641 170.59 162.21 170.185 151.47" stroke="#63687A" stroke-width="1.8" stroke-linecap="round" stroke-linejoin="round"/>
<path d="M149.769 189.11C148.857 186.526 147.895 183.892 147.033 181.511C146.153 178.994 145.104 176.54 143.893 174.165" stroke="#63687A" stroke-width="1.8" stroke-linecap="round" stroke-linejoin="round"/>
<path d="M129.404 202.585C129.404 202.585 135.534 201.217 139.232 202.585" stroke="#63687A" stroke-width="1.8" stroke-linecap="round" stroke-linejoin="round"/>
<path d="M154.632 203.345C156.606 202.618 158.725 202.375 160.813 202.635" stroke="#63687A" stroke-width="1.8" stroke-linecap="round" stroke-linejoin="round"/>
<path d="M120.134 264.997C120.134 264.997 119.931 266.77 119.931 267.175" stroke="#63687A" stroke-width="1.8" stroke-linecap="round" stroke-linejoin="round"/>
<path d="M124.034 265.858C124.034 265.858 123.933 267.732 123.832 268.087" stroke="#63687A" stroke-width="1.8" stroke-linecap="round" stroke-linejoin="round"/>
<path d="M128.999 266.06C128.999 266.06 128.746 267.833 128.695 268.087" stroke="#63687A" stroke-width="1.8" stroke-linecap="round" stroke-linejoin="round"/>
<path d="M161.471 266.618V268.999" stroke="#63687A" stroke-width="1.8" stroke-linecap="round" stroke-linejoin="round"/>
<path d="M166.031 266.77C165.978 267.602 165.876 268.431 165.727 269.252" stroke="#63687A" stroke-width="1.8" stroke-linecap="round" stroke-linejoin="round"/>
<path d="M170.64 266.77C170.64 266.77 170.539 268.289 170.488 268.948" stroke="#63687A" stroke-width="1.8" stroke-linecap="round" stroke-linejoin="round"/>
<path d="M159.901 61.3478C161.915 61.3478 163.548 59.3746 163.548 56.9405C163.548 54.5064 161.915 52.5332 159.901 52.5332C157.886 52.5332 156.253 54.5064 156.253 56.9405C156.253 59.3746 157.886 61.3478 159.901 61.3478Z" stroke="black" stroke-width="1.8" stroke-linecap="round" stroke-linejoin="round"/>
<path d="M159.85 47.0115C159.85 47.0115 161.167 49.3418 160.762 54.357C160.357 59.3722 161.471 63.5262 160.863 66.8191C160.626 68.0522 160.065 69.1998 159.237 70.1437C158.409 71.0875 157.344 71.7935 156.152 72.1889C154.784 72.5942 147.692 73.5567 144.197 68.8961C140.701 64.2355 137.51 50.5069 143.183 47.8727C148.857 45.2384 157.469 44.3265 159.85 47.0115Z" fill="#F4C2C9"/>
<path d="M160.813 66.8191C161.471 63.4756 160.255 59.4229 160.711 54.357C161.167 49.2911 159.799 47.0114 159.799 47.0114C157.419 44.3265 148.857 45.289 143.133 47.9233C138.827 49.899 139.637 58.2577 141.765 64.1848C145.868 68.7441 151.745 71.6317 158.026 70.6691C158.247 70.6723 158.467 70.6553 158.685 70.6185C159.81 69.6341 160.561 68.2924 160.813 66.8191Z" fill="#F4C2C9"/>
<path d="M141.816 64.1848C142.391 65.872 143.192 67.4738 144.197 68.9467C147.692 73.6073 154.734 72.5941 156.152 72.2395C157.107 71.9115 157.985 71.3946 158.736 70.7198C158.432 70.6691 153.062 74.0632 141.816 64.1848Z" fill="#E26E85"/>
<path d="M157.469 56.8899L163.548 56.6872" stroke="black" stroke-width="1.8" stroke-linecap="round" stroke-linejoin="round"/>
<path d="M150.225 69.2507C150.225 69.2507 152.859 70.2132 154.43 71.9356C154.43 71.9356 153.923 74.8738 154.126 76.3429C154.328 77.812 152.201 80.9529 147.591 80.6996C142.981 80.4463 139.029 76.9508 139.029 76.9508C139.029 76.9508 139.587 70.5678 140.346 68.6934C141.106 66.8191 150.225 69.2507 150.225 69.2507Z" fill="#F4C2C9"/>
<path d="M153.062 70.7198C153.473 71.0153 153.798 71.4153 154.003 71.8784C154.208 72.3415 154.285 72.851 154.227 73.3541C154.095 74.3277 154.061 75.312 154.126 76.2923" stroke="#E26E85" stroke-width="1.8" stroke-linecap="round" stroke-linejoin="round"/>
<path d="M157.115 57.1939C157.81 56.6515 158.323 55.9089 158.584 55.0662C158.938 53.7491 159.141 52.7359 159.141 52.7359C159.621 53.1615 160.169 53.5039 160.762 53.7491C161.724 54.1037 164.207 51.4695 164.561 47.8727C164.916 44.2759 163.244 40.5271 159.141 38.9567C157.57 38.3488 155.189 38.2475 152.809 38.3995C149.475 38.6297 146.253 39.6922 143.437 41.4897C142.757 41.9098 141.998 42.1857 141.208 42.3002C138.269 42.7055 136.446 43.8706 134.723 47.974C133.001 52.0774 132.798 55.2182 135.129 60.1321C137.459 65.046 138.168 65.35 138.523 67.3763C138.877 69.4027 138.421 71.6824 140.042 71.3277C144.5 70.3146 149.06 71.581 150.124 70.9225C151.187 70.2639 154.734 63.9822 155.139 60.9427C155.544 57.9031 156.456 56.8393 157.115 57.1939Z" fill="#22272E"/>
<path d="M157.773 57.4979C157.773 57.4979 156.709 54.661 154.683 55.5222C151.947 56.6873 153.619 61.4999 156.253 62.3104" fill="#F4C2C9"/>
<path d="M154.784 58.0044C154.708 57.7741 154.708 57.5254 154.784 57.2951C154.833 57.1552 154.921 57.0321 155.038 56.9405C155.135 56.8437 155.26 56.7776 155.395 56.7506C155.53 56.7236 155.67 56.7368 155.797 56.7886C155.902 56.8265 155.991 56.8977 156.051 56.9912C156.101 57.0418 156.152 57.1432 156.203 57.1938C156.253 57.2445 156.253 57.3458 156.304 57.3965C156.383 57.6065 156.418 57.8308 156.405 58.055C156.456 58.4603 156.405 58.8656 156.456 59.1189C156.507 59.3722 156.709 59.5748 157.165 59.6761C157.08 59.7601 156.975 59.8223 156.861 59.8576C156.746 59.8928 156.625 59.9001 156.507 59.8787C156.364 59.8534 156.228 59.8001 156.106 59.7218C155.985 59.6436 155.88 59.5419 155.797 59.4228C155.611 59.0077 155.508 58.5603 155.493 58.1057C155.493 57.903 155.443 57.7004 155.443 57.5991V57.4471H155.493C155.443 57.3965 155.342 57.3965 155.19 57.4978C155.013 57.6293 154.874 57.8037 154.784 58.0044Z" fill="black"/>
<path d="M138.573 76.343C138.573 76.343 139.029 73.1008 139.333 72.5435C139.637 71.9863 147.236 71.429 151.593 72.5435C155.949 73.658 155.544 77.3561 155.544 77.3561C155.544 77.3561 147.692 76.4443 138.573 76.343Z" fill="#6D7AAF"/>
<path d="M123.426 88.1465C124.288 83.2832 126.111 75.735 143.69 75.6844C158.685 75.6337 165.625 77.8627 169.273 80.649C172.92 83.4352 173.325 90.7807 172.16 102.28C170.995 113.78 170.792 120.619 171.451 127.762C172.11 134.905 174.997 137.995 171.147 141.845C162.938 144.261 154.425 145.489 145.868 145.492C131.684 145.492 124.642 141.541 124.338 140.426C124.034 139.312 122.667 138.957 123.933 136.07C125.199 133.182 126.061 123 125.25 116.87C124.44 110.74 121.299 100.355 123.426 88.1465Z" fill="#FFE779"/>
<mask id="mask1_348_5603" style="mask-type:luminance" maskUnits="userSpaceOnUse" x="122" y="75" width="52" height="71">
<path d="M123.426 88.1465C124.288 83.2832 126.111 75.735 143.69 75.6844C158.685 75.6337 165.625 77.8627 169.273 80.649C172.92 83.4352 173.325 90.7807 172.16 102.28C170.995 113.78 170.792 120.619 171.451 127.762C172.11 134.905 174.997 137.995 171.147 141.845C162.938 144.261 154.425 145.489 145.868 145.492C131.684 145.492 124.642 141.541 124.338 140.426C124.034 139.312 122.667 138.957 123.933 136.07C125.199 133.182 126.061 123 125.25 116.87C124.794 113.273 123.477 108.207 122.92 102.179C122.494 97.4989 122.664 92.7837 123.426 88.1465Z" fill="white"/>
</mask>
<g mask="url(#mask1_348_5603)">
<path d="M127.386 144.833L125.577 146.678L127.422 148.486L129.23 146.641L127.386 144.833Z" fill="#F8AB5D"/>
<path d="M127.296 136.434L125.488 138.279L127.333 140.088L129.141 138.243L127.296 136.434Z" fill="#F8AB5D"/>
<path d="M127.167 127.996L125.359 129.841L127.204 131.65L129.012 129.805L127.167 127.996Z" fill="#F8AB5D"/>
<path d="M127.113 119.563L125.305 121.408L127.15 123.217L128.958 121.372L127.113 119.563Z" fill="#F8AB5D"/>
<path d="M127.019 111.165L125.21 113.01L127.055 114.818L128.864 112.973L127.019 111.165Z" fill="#F8AB5D"/>
<path d="M134.923 144.756L133.115 146.601L134.96 148.41L136.768 146.565L134.923 144.756Z" fill="#F8AB5D"/>
<path d="M134.864 136.323L133.055 138.168L134.9 139.977L136.709 138.132L134.864 136.323Z" fill="#F8AB5D"/>
<path d="M134.779 127.928L132.97 129.773L134.815 131.582L136.624 129.737L134.779 127.928Z" fill="#F8AB5D"/>
<path d="M134.689 119.53L132.881 121.375L134.726 123.184L136.534 121.339L134.689 119.53Z" fill="#F8AB5D"/>
<path d="M134.63 111.092L132.822 112.937L134.667 114.745L136.475 112.9L134.63 111.092Z" fill="#F8AB5D"/>
<path d="M142.535 144.688L140.726 146.533L142.571 148.342L144.38 146.497L142.535 144.688Z" fill="#F8AB5D"/>
<path d="M142.44 136.29L140.632 138.135L142.477 139.944L144.285 138.099L142.44 136.29Z" fill="#F8AB5D"/>
<path d="M142.351 127.817L140.543 129.662L142.388 131.471L144.196 129.626L142.351 127.817Z" fill="#F8AB5D"/>
<path d="M142.257 119.419L140.449 121.264L142.293 123.072L144.102 121.227L142.257 119.419Z" fill="#F8AB5D"/>
<path d="M142.172 111.024L140.363 112.869L142.208 114.678L144.017 112.833L142.172 111.024Z" fill="#F8AB5D"/>
<path d="M150.071 144.616L148.262 146.46L150.107 148.269L151.916 146.424L150.071 144.616Z" fill="#F8AB5D"/>
<path d="M150.017 136.182L148.208 138.027L150.053 139.836L151.862 137.991L150.017 136.182Z" fill="#F8AB5D"/>
<path d="M149.923 127.784L148.114 129.629L149.959 131.438L151.768 129.593L149.923 127.784Z" fill="#F8AB5D"/>
<path d="M149.833 119.381L148.025 121.226L149.87 123.034L151.678 121.189L149.833 119.381Z" fill="#F8AB5D"/>
<path d="M149.779 110.947L147.971 112.792L149.816 114.601L151.624 112.756L149.779 110.947Z" fill="#F8AB5D"/>
<path d="M157.686 144.544L155.877 146.389L157.722 148.198L159.531 146.353L157.686 144.544Z" fill="#F8AB5D"/>
<path d="M157.597 136.141L155.788 137.986L157.633 139.794L159.442 137.949L157.597 136.141Z" fill="#F8AB5D"/>
<path d="M157.502 127.673L155.694 129.518L157.539 131.326L159.347 129.481L157.502 127.673Z" fill="#F8AB5D"/>
<path d="M157.413 119.274L155.605 121.119L157.45 122.928L159.258 121.083L157.413 119.274Z" fill="#F8AB5D"/>
<path d="M157.319 110.876L155.511 112.721L157.356 114.53L159.164 112.685L157.319 110.876Z" fill="#F8AB5D"/>
<path d="M165.258 144.433L163.45 146.278L165.295 148.086L167.103 146.241L165.258 144.433Z" fill="#F8AB5D"/>
<path d="M165.164 136.034L163.356 137.879L165.201 139.688L167.009 137.843L165.164 136.034Z" fill="#F8AB5D"/>
<path d="M165.079 127.64L163.27 129.485L165.115 131.293L166.924 129.448L165.079 127.64Z" fill="#F8AB5D"/>
<path d="M165.02 119.201L163.211 121.046L165.056 122.855L166.865 121.01L165.02 119.201Z" fill="#F8AB5D"/>
<path d="M164.93 110.803L163.122 112.648L164.967 114.457L166.775 112.612L164.93 110.803Z" fill="#F8AB5D"/>
<path d="M172.83 144.4L171.021 146.245L172.866 148.053L174.675 146.208L172.83 144.4Z" fill="#F8AB5D"/>
<path d="M172.776 135.962L170.967 137.806L172.812 139.615L174.62 137.77L172.776 135.962Z" fill="#F8AB5D"/>
<path d="M172.646 127.528L170.838 129.373L172.683 131.182L174.491 129.337L172.646 127.528Z" fill="#F8AB5D"/>
<path d="M172.557 119.13L170.749 120.975L172.594 122.784L174.402 120.939L172.557 119.13Z" fill="#F8AB5D"/>
<path d="M172.503 110.692L170.695 112.537L172.54 114.345L174.348 112.5L172.503 110.692Z" fill="#F8AB5D"/>
<path d="M126.93 102.766L125.121 104.611L126.966 106.42L128.775 104.575L126.93 102.766Z" fill="#F8AB5D"/>
<path d="M126.876 94.3281L125.067 96.1731L126.912 97.9817L128.721 96.1367L126.876 94.3281Z" fill="#F8AB5D"/>
<path d="M126.782 85.9298L124.973 87.7748L126.818 89.5834L128.627 87.7385L126.782 85.9298Z" fill="#F8AB5D"/>
<path d="M126.692 77.5316L124.884 79.3765L126.729 81.1851L128.537 79.3402L126.692 77.5316Z" fill="#F8AB5D"/>
<path d="M134.506 102.659L132.698 104.503L134.543 106.312L136.351 104.467L134.506 102.659Z" fill="#F8AB5D"/>
<path d="M134.412 94.2603L132.603 96.1052L134.448 97.9138L136.257 96.0689L134.412 94.2603Z" fill="#F8AB5D"/>
<path d="M134.358 85.822L132.549 87.6669L134.394 89.4756L136.203 87.6306L134.358 85.822Z" fill="#F8AB5D"/>
<path d="M134.264 77.4237L132.455 79.2687L134.3 81.0773L136.109 79.2323L134.264 77.4237Z" fill="#F8AB5D"/>
<path d="M142.112 102.586L140.304 104.431L142.149 106.239L143.957 104.394L142.112 102.586Z" fill="#F8AB5D"/>
<path d="M142.023 94.1874L140.215 96.0323L142.06 97.841L143.868 95.996L142.023 94.1874Z" fill="#F8AB5D"/>
<path d="M141.934 85.7891L140.126 87.6341L141.971 89.4427L143.779 87.5977L141.934 85.7891Z" fill="#F8AB5D"/>
<path d="M141.875 77.3559L140.066 79.2009L141.911 81.0095L143.72 79.1645L141.875 77.3559Z" fill="#F8AB5D"/>
<path d="M149.689 102.546L147.88 104.391L149.725 106.199L151.534 104.354L149.689 102.546Z" fill="#F8AB5D"/>
<path d="M149.596 94.0811L147.787 95.926L149.632 97.7346L151.441 95.8897L149.596 94.0811Z" fill="#F8AB5D"/>
<path d="M149.506 85.6812L147.697 87.5262L149.542 89.3348L151.35 87.4899L149.506 85.6812Z" fill="#F8AB5D"/>
<path d="M149.416 77.283L147.608 79.128L149.453 80.9366L151.261 79.0916L149.416 77.283Z" fill="#F8AB5D"/>
<path d="M157.265 102.438L155.456 104.283L157.301 106.091L159.11 104.246L157.265 102.438Z" fill="#F8AB5D"/>
<path d="M157.171 94.0395L155.362 95.8845L157.207 97.6931L159.016 95.8481L157.171 94.0395Z" fill="#F8AB5D"/>
<path d="M157.082 85.6412L155.273 87.4862L157.118 89.2948L158.927 87.4499L157.082 85.6412Z" fill="#F8AB5D"/>
<path d="M157.028 77.208L155.219 79.053L157.064 80.8616L158.873 79.0166L157.028 77.208Z" fill="#F8AB5D"/>
<path d="M164.836 102.405L163.028 104.25L164.873 106.058L166.681 104.214L164.836 102.405Z" fill="#F8AB5D"/>
<path d="M164.747 93.9316L162.939 95.7766L164.784 97.5852L166.592 95.7403L164.747 93.9316Z" fill="#F8AB5D"/>
<path d="M164.658 85.5334L162.849 87.3784L164.694 89.187L166.503 87.342L164.658 85.5334Z" fill="#F8AB5D"/>
<path d="M164.564 77.1351L162.755 78.9801L164.6 80.7887L166.409 78.9437L164.564 77.1351Z" fill="#F8AB5D"/>
<path d="M172.413 102.297L170.604 104.142L172.449 105.951L174.258 104.106L172.413 102.297Z" fill="#F8AB5D"/>
<path d="M172.324 93.8988L170.515 95.7437L172.36 97.5524L174.168 95.7074L172.324 93.8988Z" fill="#F8AB5D"/>
<path d="M172.264 85.4655L170.456 87.3105L172.301 89.1191L174.109 87.2742L172.264 85.4655Z" fill="#F8AB5D"/>
<path d="M172.175 77.0673L170.367 78.9123L172.212 80.7209L174.02 78.8759L172.175 77.0673Z" fill="#F8AB5D"/>
</g>
<path d="M192.17 75.735C192.17 75.735 193.336 71.9356 193.184 70.5678C193.032 69.2 191.917 66.1605 191.411 65.046C190.904 63.9315 191.309 60.7906 191.208 59.2202C191.107 57.6498 192.93 58.0551 193.437 59.6255C193.668 60.4462 194.046 61.2184 194.551 61.9051C194.551 61.9051 196.527 57.3458 196.831 56.0794C197.135 54.8129 197.946 50.7602 199.161 49.7977C200.377 48.8352 200.833 49.8483 200.175 52.5839C199.902 53.5913 199.766 54.6306 199.769 55.6741C199.769 55.8261 201.238 56.0794 201.846 56.9406C202.073 57.4748 202.226 58.0371 202.302 58.6123C202.726 58.6182 203.142 58.7222 203.518 58.9163C203.873 59.1189 204.278 59.7775 204.633 60.0814C204.994 60.4158 205.317 60.7896 205.595 61.1959C206.051 61.8545 206.406 63.1716 205.038 68.7441C204.278 71.7836 202.91 72.8474 201.897 79.9397C200.732 87.0319 191.157 80.2436 192.17 75.735Z" fill="#F4C2C9"/>
<path d="M192.981 72.3408C192.677 73.9113 192.17 75.6843 192.17 75.6843C191.157 80.1929 200.732 86.9812 201.796 79.889C202.049 78.0653 202.353 76.5962 202.606 75.431C200.124 72.8474 196.831 71.3783 192.981 72.3408Z" fill="#63687A"/>
<path d="M200.323 76.763C201.461 76.224 201.908 74.7827 201.321 73.5437C200.734 72.3048 199.336 71.7375 198.198 72.2765C197.06 72.8156 196.613 74.2569 197.2 75.4958C197.787 76.7347 199.186 77.3021 200.323 76.763Z" fill="white"/>
<path d="M167.753 79.6864C167.753 79.6864 171.755 79.6864 177.429 87.3359C183.103 94.9854 184.268 96.9611 184.268 96.9611C185.277 93.4925 186.46 90.0771 187.814 86.728C189.107 83.4051 190.19 80.0042 191.056 76.5455C191.165 76.0905 191.398 75.6744 191.728 75.3436C192.059 75.0127 192.475 74.78 192.93 74.6712C195.007 74.2152 198.756 74.1646 201.948 78.8252C202.301 79.3632 202.445 80.0119 202.353 80.6489C201.846 83.5871 200.377 92.655 199.161 101.47C197.692 112.159 196.882 121.176 189.638 122.088C184.42 122.746 176.821 115.907 171.502 110.588C169.425 108.511 167.702 106.637 166.638 105.522C163.953 102.787 159.749 97.4676 159.749 89.8182C159.749 81.4088 165.98 79.1798 167.753 79.6864Z" fill="#6D7AAF"/>
<path d="M171.502 110.639C169.425 108.562 167.702 106.688 166.638 105.573C163.953 102.837 159.749 97.5183 159.749 89.8688" stroke="#F8AB5D" stroke-width="1.8" stroke-linecap="round" stroke-linejoin="round"/>
<path d="M184.268 96.9104C184.268 96.9104 190.803 105.421 192.373 109.525" stroke="black" stroke-width="1.8" stroke-linecap="round" stroke-linejoin="round"/>
<path d="M186.395 121.632C186.041 121.379 185.635 120.872 185.686 119.808C185.787 117.883 187.713 114.793 191.36 114.033C194.45 113.375 196.021 114.337 196.325 115.35" stroke="black" stroke-width="1.8" stroke-linecap="round" stroke-linejoin="round"/>
<path d="M190.651 78.0653C190.651 78.0653 197.135 75.2284 201.948 82.9792" stroke="black" stroke-width="1.8" stroke-linecap="round" stroke-linejoin="round"/>
<path d="M199.668 55.6235C199.668 55.6235 199.567 57.3459 199.516 57.6498C199.465 57.9538 199.009 59.8282 198.959 60.5374" stroke="#E26E85" stroke-width="1.8" stroke-linecap="round" stroke-linejoin="round"/>
<path d="M202.201 58.5617V60.0308C202.155 60.6099 202.07 61.1853 201.948 61.7532" stroke="#E26E85" stroke-width="1.8" stroke-linecap="round" stroke-linejoin="round"/>
<path d="M204.379 60.132C204.467 60.5831 204.518 61.0405 204.531 61.4998C204.487 62.163 204.403 62.8228 204.278 63.4755" stroke="#E26E85" stroke-width="1.8" stroke-linecap="round" stroke-linejoin="round"/>
<path d="M194.501 61.8545C194.334 62.2706 194.113 62.6625 193.842 63.0197" stroke="#E26E85" stroke-width="1.8" stroke-linecap="round" stroke-linejoin="round"/>
<path d="M168.867 6.28176C168.867 6.28176 165.777 18.5919 170.337 26.8999C170.419 27.0568 170.532 27.1958 170.669 27.3089C170.805 27.4219 170.963 27.5068 171.132 27.5586C171.302 27.6104 171.48 27.6281 171.656 27.6107C171.833 27.5933 172.004 27.5411 172.16 27.4572L178.341 24.0124L175.858 5.3699L168.867 6.28176Z" fill="#6D7AAF"/>
<path d="M170.235 6.53496C170.235 6.53496 167.297 18.7438 174.389 27.6597C174.601 27.9126 174.895 28.0821 175.22 28.1378C175.545 28.1935 175.879 28.1318 176.162 27.9637L183.913 23.303L177.53 4.66058C177.479 4.71124 171.248 5.0152 170.235 6.53496Z" fill="#FFE779"/>
<path d="M168.867 6.2817L171.806 6.8896L188.371 0.506589L185.23 0L168.867 6.2817Z" fill="#B0B8D7"/>
<path d="M188.371 0.506592C188.371 0.506592 188.624 8.61201 198.351 14.7417C198.548 14.8595 198.712 15.0264 198.825 15.2262C198.938 15.426 198.998 15.6518 198.998 15.8816C198.998 16.1113 198.938 16.3371 198.825 16.5369C198.712 16.7367 198.548 16.9037 198.351 17.0214L182.849 26.1906C182.652 26.3102 182.428 26.3777 182.197 26.3865C181.967 26.3954 181.738 26.3454 181.532 26.2413C171.654 21.0234 171.806 6.83895 171.806 6.83895L188.371 0.506592Z" fill="#6D7AAF"/>
<path d="M184.116 10.7396C183.987 10.5801 183.833 10.4431 183.66 10.3344C183.414 10.2249 183.144 10.1825 182.877 10.2115C182.609 10.2406 182.355 10.34 182.138 10.4997C181.922 10.6593 181.752 10.8735 181.645 11.1203C181.539 11.3672 181.5 11.6379 181.532 11.9048C181.626 12.5207 181.814 13.1187 182.089 13.6779C182.204 13.3094 182.414 12.9775 182.697 12.7153C183.015 12.4275 183.373 12.1885 183.761 12.0061C184.629 11.5946 185.605 11.4704 186.547 11.6515C187.441 11.8292 188.237 12.3352 188.776 13.07C189.05 13.4357 189.245 13.8539 189.349 14.2984C189.454 14.7429 189.466 15.2042 189.384 15.6536C189.232 16.6161 188.523 17.4773 187.155 18.1865C186.519 18.5359 185.804 18.7191 185.078 18.7191C184.352 18.7191 183.638 18.5359 183.001 18.1865C181.918 17.5445 181.053 16.5913 180.519 15.4509C180.181 14.8756 179.909 14.2638 179.708 13.6272C179.438 12.9174 179.351 12.1507 179.455 11.3982C179.537 10.8576 179.764 10.3496 180.114 9.9291C180.527 9.45683 181.048 9.09179 181.633 8.86527C182.439 8.48822 183.34 8.36457 184.217 8.51066C184.987 8.63137 185.678 9.04985 186.142 9.67581C185.332 10.1317 184.926 10.3344 184.116 10.7396ZM184.673 16.9707C185.193 17.1143 185.746 17.0786 186.243 16.8694C186.454 16.7768 186.641 16.6375 186.791 16.462C186.94 16.2864 187.047 16.0793 187.105 15.8562C187.139 15.6241 187.126 15.3872 187.065 15.1606C187.004 14.9339 186.897 14.7223 186.75 14.5391C186.476 14.0914 186.041 13.7653 185.534 13.6272C185.08 13.5071 184.598 13.5428 184.166 13.7285C183.823 13.8646 183.536 14.1151 183.356 14.4377C183.235 14.6883 183.185 14.9673 183.212 15.2442C183.239 15.5211 183.341 15.7854 183.508 16.0082C183.771 16.4563 184.183 16.7972 184.673 16.9707Z" fill="#FFE779"/>
<path d="M117.905 37.133H134.622L136.344 38.2475C136.47 38.3268 136.615 38.3708 136.763 38.3747C136.912 38.3786 137.059 38.3423 137.189 38.2697C137.318 38.1971 137.426 38.0908 137.5 37.9621C137.575 37.8333 137.613 37.6869 137.611 37.5383V25.7348C137.613 25.4481 137.558 25.164 137.449 24.8988C137.34 24.6336 137.18 24.3926 136.977 24.1899C136.775 23.9873 136.534 23.8269 136.269 23.7181C136.003 23.6094 135.719 23.5544 135.433 23.5564H117.905C117.618 23.5544 117.334 23.6094 117.069 23.7181C116.803 23.8269 116.562 23.9873 116.36 24.1899C116.157 24.3926 115.997 24.6336 115.888 24.8988C115.779 25.164 115.724 25.4481 115.726 25.7348V34.9547C115.724 35.2413 115.779 35.5255 115.888 35.7907C115.997 36.0559 116.157 36.2968 116.36 36.4995C116.562 36.7022 116.803 36.8625 117.069 36.9713C117.334 37.0801 117.618 37.135 117.905 37.133Z" fill="#F4C2C9"/>
<path d="M120.691 28.2676L121.552 29.1288L123.224 27.4571" stroke="#22272E" stroke-width="1.8" stroke-linecap="round" stroke-linejoin="round"/>
<path d="M125.807 28.521H131.684" stroke="#22272E" stroke-width="1.8" stroke-linecap="round" stroke-linejoin="round"/>
<path d="M120.691 32.371L121.552 33.2322L123.224 31.5605" stroke="#22272E" stroke-width="1.8" stroke-linecap="round" stroke-linejoin="round"/>
<path d="M125.807 32.6243H131.684" stroke="#22272E" stroke-width="1.8" stroke-linecap="round" stroke-linejoin="round"/>
<path d="M196.223 183.841L194.703 185.462C194.643 185.522 194.596 185.593 194.563 185.671C194.531 185.749 194.514 185.833 194.514 185.918C194.514 186.003 194.531 186.087 194.563 186.165C194.596 186.243 194.643 186.314 194.703 186.374C194.806 186.498 194.953 186.578 195.114 186.597C195.274 186.616 195.436 186.572 195.565 186.475L197.338 185.411L196.223 183.841Z" fill="#22272E"/>
<path d="M209.749 187.792L210.154 189.971C210.181 190.138 210.143 190.309 210.049 190.45C209.956 190.59 209.812 190.691 209.648 190.731C209.5 190.777 209.34 190.766 209.199 190.7C209.059 190.635 208.948 190.519 208.888 190.376L207.976 188.502L209.749 187.792Z" fill="#22272E"/>
<path d="M204.785 189.667C210.352 189.667 214.866 185.153 214.866 179.586C214.866 174.018 210.352 169.505 204.785 169.505C199.217 169.505 194.703 174.018 194.703 179.586C194.703 185.153 199.217 189.667 204.785 189.667Z" fill="#6D7AAF"/>
<path d="M204.785 186.07C208.366 186.07 211.269 183.167 211.269 179.586C211.269 176.004 208.366 173.101 204.785 173.101C201.203 173.101 198.3 176.004 198.3 179.586C198.3 183.167 201.203 186.07 204.785 186.07Z" fill="#FFE779"/>
<path d="M206.608 181.916L204.785 179.586L205.747 176.344" stroke="#63687A" stroke-width="1.8" stroke-linecap="round" stroke-linejoin="round"/>
<path d="M198.351 169.859C198.284 169.882 198.214 169.892 198.144 169.886C198.074 169.88 198.005 169.86 197.943 169.827C197.881 169.794 197.827 169.748 197.784 169.692C197.741 169.637 197.709 169.573 197.692 169.505C197.588 168.844 197.712 168.169 198.043 167.588C198.375 167.008 198.894 166.558 199.516 166.313C200.143 166.068 200.836 166.05 201.475 166.263C202.113 166.476 202.657 166.906 203.011 167.478C203.045 167.541 203.065 167.61 203.071 167.68C203.076 167.751 203.067 167.822 203.043 167.889C203.019 167.956 202.981 168.017 202.932 168.069C202.883 168.12 202.824 168.16 202.758 168.187L198.351 169.859Z" fill="#6D7AAF"/>
<path d="M215.423 174.824C215.463 174.886 215.517 174.937 215.581 174.975C215.645 175.012 215.716 175.034 215.79 175.039C215.864 175.044 215.938 175.032 216.006 175.003C216.074 174.974 216.135 174.93 216.183 174.874C216.631 174.371 216.891 173.728 216.919 173.054C216.946 172.381 216.739 171.718 216.332 171.181C215.926 170.643 215.345 170.262 214.69 170.105C214.035 169.947 213.345 170.021 212.738 170.315C212.673 170.351 212.617 170.4 212.574 170.459C212.53 170.519 212.5 170.587 212.485 170.66C212.471 170.732 212.472 170.807 212.49 170.879C212.507 170.95 212.54 171.017 212.586 171.075L215.423 174.824Z" fill="#6D7AAF"/>
<path d="M209.344 168.745L206.71 167.985C206.605 167.957 206.508 167.908 206.422 167.842C206.337 167.775 206.267 167.692 206.215 167.597C206.163 167.503 206.13 167.398 206.12 167.291C206.109 167.183 206.12 167.075 206.152 166.972C206.18 166.867 206.229 166.77 206.296 166.685C206.362 166.599 206.445 166.529 206.54 166.477C206.635 166.425 206.739 166.392 206.846 166.382C206.954 166.371 207.062 166.382 207.166 166.414L209.8 167.174C209.904 167.202 210.002 167.251 210.087 167.317C210.172 167.384 210.243 167.467 210.295 167.562C210.347 167.657 210.379 167.761 210.39 167.868C210.401 167.976 210.389 168.084 210.357 168.187C210.334 168.295 210.288 168.396 210.223 168.484C210.157 168.572 210.074 168.645 209.978 168.697C209.882 168.75 209.775 168.782 209.666 168.79C209.557 168.798 209.447 168.783 209.344 168.745Z" fill="#6D7AAF"/>
<path d="M207.206 167.661L206.485 170.142L208.383 170.693L209.103 168.212L207.206 167.661Z" fill="#6D7AAF"/>
</svg>
