<svg width="173" height="210" viewBox="0 0 173 210" fill="none" xmlns="http://www.w3.org/2000/svg">
<path d="M84.0953 209.466L13.472 205.117C12.2293 205.05 11.0153 204.718 9.91111 204.144C8.80689 203.569 7.83784 202.766 7.06861 201.788C6.29938 200.81 5.74767 199.679 5.45031 198.47C5.15295 197.262 5.11677 196.004 5.34419 194.78L32.2546 43.9779C32.7128 41.4653 33.9733 39.169 35.8469 37.4334C37.7206 35.6978 40.1065 34.6164 42.6468 34.3515L113.587 27.4871C114.935 27.3567 116.294 27.5377 117.561 28.0163C118.827 28.4948 119.967 29.2581 120.892 30.2472C121.816 31.2362 122.501 32.4246 122.893 33.7204C123.285 35.0163 123.375 36.385 123.154 37.7207L96.3526 199.62C95.9114 202.497 94.4078 205.104 92.1386 206.927C89.8695 208.75 86.9996 209.655 84.0953 209.466Z" fill="#F8AB5D"/>
<path d="M80.2283 208.984L9.59949 204.642C8.35679 204.574 7.14282 204.242 6.03861 203.668C4.9344 203.094 3.96534 202.291 3.19611 201.312C2.42688 200.334 1.87518 199.203 1.57781 197.994C1.28045 196.786 1.24427 195.528 1.47169 194.304L28.3821 43.5021C28.8403 40.9895 30.1008 38.6932 31.9744 36.9576C33.8481 35.2219 36.234 34.1405 38.7743 33.8756L109.737 27.0113C111.085 26.8836 112.445 27.0678 113.712 27.5494C114.978 28.031 116.117 28.7973 117.04 29.789C117.963 30.7807 118.645 31.9713 119.035 33.2688C119.424 34.5664 119.511 35.9361 119.287 37.2722L92.4856 199.199C92.0169 202.059 90.5038 204.642 88.2394 206.45C85.975 208.258 83.1204 209.161 80.2283 208.984Z" fill="#FFE779"/>
<mask id="mask0_348_5890" style="mask-type:luminance" maskUnits="userSpaceOnUse" x="1" y="26" width="119" height="184">
<path d="M80.2283 208.984L9.59949 204.642C8.35679 204.574 7.14282 204.242 6.03861 203.668C4.9344 203.094 3.96534 202.291 3.19611 201.312C2.42688 200.334 1.87518 199.203 1.57781 197.994C1.28045 196.786 1.24427 195.528 1.47169 194.304L28.3821 43.5021C28.8403 40.9895 30.1008 38.6932 31.9744 36.9576C33.8481 35.2219 36.234 34.1405 38.7743 33.8756L109.737 27.0113C111.085 26.8836 112.445 27.0678 113.712 27.5494C114.978 28.031 116.117 28.7973 117.04 29.789C117.963 30.7807 118.645 31.9713 119.035 33.2688C119.424 34.5664 119.511 35.9361 119.287 37.2722L92.4856 199.199C92.0169 202.059 90.5038 204.642 88.2394 206.45C85.975 208.258 83.1204 209.161 80.2283 208.984Z" fill="white"/>
</mask>
<g mask="url(#mask0_348_5890)">
<path d="M151.404 123.757L42.6631 125.65C41.9999 125.661 41.3424 125.525 40.7379 125.252C40.1334 124.979 39.5969 124.575 39.167 124.07C38.7371 123.565 38.4245 122.971 38.2516 122.33C38.0787 121.69 38.0499 121.019 38.1671 120.366L46.1363 74.9686C46.3636 73.7168 46.9967 72.5747 47.9378 71.7186C48.8789 70.8625 50.0757 70.34 51.3434 70.232L158.662 63.0504C159.521 62.9927 160.382 63.13 161.181 63.452C161.979 63.7741 162.695 64.2725 163.273 64.9101C163.852 65.5477 164.279 66.3079 164.522 67.1338C164.766 67.9598 164.819 68.83 164.679 69.6795L156.775 119.021C156.63 120.337 155.999 121.552 155.005 122.428C154.012 123.303 152.728 123.778 151.404 123.757Z" fill="#F8AB5D"/>
</g>
<mask id="mask1_348_5890" style="mask-type:luminance" maskUnits="userSpaceOnUse" x="1" y="26" width="119" height="184">
<path d="M80.2283 208.984L9.59949 204.642C8.35679 204.574 7.14282 204.242 6.03861 203.668C4.9344 203.094 3.96534 202.291 3.19611 201.312C2.42688 200.334 1.87518 199.203 1.57781 197.994C1.28045 196.786 1.24427 195.528 1.47169 194.304L28.3821 43.5021C28.8403 40.9895 30.1008 38.6932 31.9744 36.9576C33.8481 35.2219 36.234 34.1405 38.7743 33.8756L109.737 27.0113C111.085 26.8836 112.445 27.0678 113.712 27.5494C114.978 28.031 116.117 28.7973 117.04 29.789C117.963 30.7807 118.645 31.9713 119.035 33.2688C119.424 34.5664 119.511 35.9361 119.287 37.2722L92.4856 199.199C92.0169 202.059 90.5038 204.642 88.2394 206.45C85.975 208.258 83.1204 209.161 80.2283 208.984Z" fill="white"/>
</mask>
<g mask="url(#mask1_348_5890)">
<path d="M139.409 196.886L30.6684 192.155C30.0288 192.12 29.4037 191.951 28.8336 191.659C28.2636 191.367 27.7614 190.958 27.3595 190.459C26.9577 189.96 26.6653 189.383 26.5013 188.764C26.3373 188.144 26.3053 187.498 26.4075 186.865L34.6119 140.374C34.8477 139.056 35.5365 137.862 36.5591 136.998C37.5818 136.134 38.8741 135.655 40.2128 135.643L147.69 134.773C148.52 134.771 149.341 134.949 150.096 135.295C150.85 135.641 151.521 136.146 152.061 136.776C152.602 137.407 152.999 138.147 153.225 138.945C153.452 139.744 153.502 140.582 153.373 141.402L145.322 192.144C145.083 193.519 144.351 194.76 143.262 195.633C142.174 196.506 140.803 196.952 139.409 196.886Z" fill="#F8AB5D"/>
</g>
<path d="M26.7248 52.5816L117.947 45.318" stroke="#F8AB5D" stroke-width="2.6" stroke-linecap="round" stroke-linejoin="round"/>
<path d="M73.1233 41.6096L65.3127 42.3207C64.6017 42.4027 64.2188 41.8503 64.2844 41.0572C64.3512 40.6842 64.5306 40.3406 64.7985 40.0726C65.0665 39.8047 65.4101 39.6253 65.7831 39.5585L73.5991 38.8475C74.3102 38.7709 74.7806 39.3233 74.622 40.111C74.5449 40.4794 74.3621 40.8174 74.0959 41.0835C73.8297 41.3497 73.4917 41.5325 73.1233 41.6096Z" fill="#22272E"/>
<path d="M78.3303 41.1392C77.6193 41.2158 77.1489 40.6634 77.3075 39.8758C77.3728 39.5021 77.5517 39.1577 77.8199 38.8895C78.0881 38.6213 78.4325 38.4423 78.8062 38.3771C79.5172 38.295 79.9876 38.8475 79.829 39.6406C79.7905 40.0249 79.6202 40.3842 79.3471 40.6573C79.0739 40.9305 78.7147 41.1008 78.3303 41.1392Z" fill="#22272E"/>
<path d="M166.238 46.5049L136.155 48.7912C135.906 48.818 135.655 48.7861 135.421 48.6981C135.187 48.61 134.977 48.4682 134.807 48.284C134.638 48.0999 134.515 47.8787 134.446 47.638C134.378 47.3974 134.368 47.1442 134.415 46.8987L137.413 28.6686C137.495 28.1311 137.756 27.6369 138.152 27.265C138.549 26.8931 139.059 26.6651 139.601 26.6175L169.35 23.4615C169.642 23.4299 169.938 23.4652 170.215 23.5648C170.492 23.6645 170.743 23.8257 170.949 24.0365C171.154 24.2472 171.309 24.502 171.401 24.7814C171.494 25.0608 171.522 25.3576 171.483 25.6494L168.562 44.4319C168.426 44.9701 168.132 45.4553 167.718 45.8247C167.303 46.1942 166.788 46.4311 166.238 46.5049Z" stroke="#6D7AAF" stroke-width="2.6" stroke-linecap="round" stroke-linejoin="round"/>
<path d="M138.228 27.0933L151.306 35.5329C151.656 35.7657 152.067 35.89 152.487 35.89C152.907 35.89 153.318 35.7657 153.668 35.5329L170.717 23.8553" stroke="#6D7AAF" stroke-width="2.6" stroke-linecap="round" stroke-linejoin="round"/>
<path d="M30.5918 80.5914L5.89113 81.9369L2.25932 84.2997C2.07175 84.4245 1.85121 84.4905 1.62592 84.4893C1.40064 84.488 1.18085 84.4196 0.994668 84.2927C0.808489 84.1659 0.66439 83.9863 0.580806 83.7771C0.497221 83.5679 0.477953 83.3385 0.525464 83.1183L4.39246 61.6556C4.53917 60.8188 4.96006 60.0545 5.58885 59.4832C6.21765 58.9118 7.01862 58.5658 7.86565 58.4997L33.5727 56.5252C33.9653 56.489 34.361 56.5438 34.729 56.6853C35.0969 56.8268 35.4274 57.0513 35.6945 57.3412C35.9617 57.6311 36.1585 57.9787 36.2695 58.3571C36.3806 58.7354 36.4029 59.1342 36.3349 59.5225L33.0203 78.3051C32.9353 78.9053 32.6485 79.4587 32.2071 79.8742C31.7657 80.2898 31.196 80.5427 30.5918 80.5914Z" fill="#6D7AAF"/>
<path d="M9.20569 64.8116L30.0393 63.3129" stroke="#22272E" stroke-width="2.6" stroke-linecap="round" stroke-linejoin="round"/>
<path d="M8.25946 70.0952L29.0931 68.6786" stroke="#22272E" stroke-width="2.6" stroke-linecap="round" stroke-linejoin="round"/>
<path d="M7.31323 75.3078L18.2032 74.6733" stroke="#22272E" stroke-width="2.6" stroke-linecap="round" stroke-linejoin="round"/>
<path d="M145.563 118.944L36.8271 120.858C36.1637 120.87 35.5061 120.734 34.9014 120.461C34.2967 120.187 33.7599 119.784 33.3297 119.279C32.8994 118.774 32.5862 118.18 32.4126 117.539C32.239 116.899 32.2093 116.228 32.3256 115.575L40.2948 70.1772C40.5224 68.9246 41.1562 67.7818 42.0985 66.9256C43.0407 66.0694 44.2387 65.5475 45.5074 65.4406L152.826 58.259C153.685 58.2013 154.546 58.3386 155.345 58.6606C156.143 58.9827 156.859 59.4812 157.437 60.1187C158.016 60.7563 158.443 61.5165 158.686 62.3425C158.93 63.1684 158.983 64.0386 158.843 64.8881L150.95 114.207C150.793 115.522 150.156 116.732 149.162 117.606C148.168 118.48 146.886 118.956 145.563 118.944Z" fill="#22272E"/>
<path d="M64.9955 84.617C64.4485 87.855 61.6043 90.6335 58.6836 90.7703C55.7628 90.907 53.8703 88.4074 54.4228 85.1694C54.9752 81.9314 57.8139 79.1529 60.7347 79.0161C63.6554 78.8794 65.5479 81.3844 64.9955 84.617Z" fill="#FFE779"/>
<path d="M62.9444 105.374L50.0033 105.768C49.5908 105.785 49.1797 105.709 48.8003 105.546C48.4209 105.383 48.0827 105.137 47.8105 104.827C47.5383 104.517 47.339 104.149 47.2273 103.752C47.1155 103.354 47.0941 102.937 47.1646 102.53L47.3998 101.108C48.4226 95.2717 53.4765 90.2999 58.7601 90.1686C64.0492 89.9334 67.599 94.588 66.5762 100.506L66.2589 102.557C66.0989 103.329 65.686 104.025 65.0855 104.535C64.4851 105.045 63.7316 105.341 62.9444 105.374Z" fill="#FFE779"/>
<path d="M133.885 85.1694L82.356 87.5377C82.1017 87.5577 81.8462 87.5181 81.6099 87.422C81.3736 87.326 81.163 87.1762 80.9947 86.9846C80.8264 86.7929 80.7051 86.5647 80.6404 86.3179C80.5757 86.0712 80.5694 85.8128 80.6221 85.5632L81.1691 82.09C81.271 81.5225 81.5592 81.0052 81.9882 80.6198C82.4171 80.2345 82.9622 80.0031 83.5374 79.9623L135.143 77.2768C135.397 77.2568 135.653 77.2964 135.889 77.3925C136.125 77.4885 136.336 77.6383 136.504 77.8299C136.673 78.0216 136.794 78.2499 136.858 78.4966C136.923 78.7433 136.929 79.0017 136.877 79.2513L136.248 83.0417C136.171 83.6194 135.891 84.1509 135.458 84.5408C135.025 84.9308 134.467 85.1536 133.885 85.1694Z" fill="#6D7AAF"/>
<path d="M81.8035 96.847L82.5912 99.2973L85.0415 99.6911L82.9084 101.819L82.7498 104.581L80.6987 103.476L78.1717 104.74L78.9648 101.977L77.5427 100.008L80.1462 99.3739L81.8035 96.847Z" fill="#FFE779"/>
<path d="M93.6397 96.4532L94.5094 98.8981L96.9543 99.2974L94.8266 101.425L94.7446 104.187L92.5349 103.082L90.0134 104.346L90.801 101.584L89.3789 99.5326L91.9824 98.9801L93.6397 96.4532Z" fill="#FFE779"/>
<path d="M105.793 95.9828L106.663 98.4277L109.184 98.8981L106.975 101.031L106.898 103.87L104.688 102.688L102.085 104.029L102.872 101.19L101.374 99.1387L104.136 98.5043L105.793 95.9828Z" fill="#FFE779"/>
<path d="M118.182 95.5069L119.051 98.0339L121.655 98.4277L119.445 100.637L119.369 103.476L117.077 102.295L114.397 103.635L115.261 100.714L113.686 98.7449L116.448 98.1104L118.182 95.5069Z" fill="#FFE779"/>
<path d="M130.888 95.0311L131.757 97.558L134.437 98.0339L132.151 100.162L132.069 103.082L129.701 101.901L127.021 103.241L127.89 100.32L126.31 98.2691L129.072 97.6401L130.888 95.0311Z" fill="#FFE779"/>
<path d="M133.491 192.094L24.8323 187.281C24.1921 187.248 23.5661 187.08 22.9952 186.789C22.4243 186.497 21.9214 186.088 21.5193 185.589C21.1171 185.09 20.8248 184.512 20.6615 183.892C20.4982 183.272 20.4675 182.625 20.5715 181.992L28.7759 135.501C29.0115 134.182 29.7001 132.988 30.7226 132.123C31.7452 131.258 33.0376 130.777 34.3767 130.764L141.854 129.894C142.685 129.891 143.506 130.068 144.261 130.414C145.016 130.76 145.687 131.265 146.227 131.896C146.768 132.526 147.165 133.266 147.391 134.065C147.617 134.865 147.667 135.703 147.537 136.523L139.491 187.281C139.25 188.677 138.507 189.937 137.402 190.823C136.297 191.71 134.906 192.162 133.491 192.094Z" fill="#22272E"/>
<path d="M53.3999 151.773C52.853 155.087 50.0088 157.789 47.0115 157.691C44.0141 157.592 42.1982 154.956 42.7507 151.614C43.3031 148.272 46.1418 145.696 49.0626 145.696C51.9833 145.696 54.0289 148.458 53.3999 151.773Z" fill="#FFE779"/>
<path d="M51.1082 173.077L38.1672 172.683C37.7722 172.663 37.3856 172.561 37.0319 172.384C36.6783 172.207 36.3653 171.958 36.1128 171.654C35.8603 171.35 35.6738 170.996 35.5652 170.616C35.4565 170.235 35.4281 169.837 35.4816 169.445L35.7988 167.804C36.8271 161.787 41.8755 157.067 47.1646 157.149C52.4483 157.226 55.998 162.198 54.8932 168.274L54.5814 170.249C54.4375 171.058 54.0077 171.789 53.3702 172.308C52.7327 172.827 51.9299 173.1 51.1082 173.077Z" fill="#FFE779"/>
<path d="M122.131 156.662L70.5963 155.951C70.3536 155.946 70.1148 155.888 69.8961 155.783C69.6774 155.677 69.4839 155.526 69.3284 155.34C69.173 155.153 69.0592 154.936 68.9949 154.701C68.9306 154.467 68.9171 154.222 68.9555 153.982L69.5845 150.35C69.6824 149.753 69.9909 149.209 70.4544 148.819C70.9178 148.429 71.5056 148.217 72.1114 148.223L123.717 148.617C123.96 148.622 124.198 148.68 124.417 148.785C124.636 148.891 124.829 149.042 124.985 149.228C125.14 149.415 125.254 149.632 125.318 149.867C125.383 150.101 125.396 150.346 125.358 150.586L124.729 154.535C124.594 155.128 124.265 155.659 123.795 156.044C123.324 156.43 122.739 156.647 122.131 156.662Z" fill="#6D7AAF"/>
<path d="M70.126 165.501L70.9136 168.028L73.3585 168.581L71.2308 170.632L71.1542 173.47L69.0211 172.13L66.4941 173.312L67.2818 170.473L65.9417 168.422L68.4687 167.946L70.126 165.501Z" fill="#FFE779"/>
<path d="M82.0387 165.736L82.8318 168.263L85.3533 168.892L83.1436 170.949L83.067 173.788L80.8573 172.524L78.3303 173.711L79.1234 170.867L77.7013 168.657L80.3869 168.263L82.0387 165.736Z" fill="#FFE779"/>
<path d="M94.1921 166.054L94.9797 168.581L97.5887 169.21L95.379 171.261L95.2204 174.181L93.0107 172.841L90.4072 174.023L91.2714 171.184L89.7727 168.974L92.4583 168.581L94.1921 166.054Z" fill="#FFE779"/>
<path d="M106.581 166.289L107.45 168.892L110.054 169.527L107.768 171.66L107.686 174.575L105.399 173.235L102.714 174.417L103.583 171.501L102.085 169.292L104.847 168.816L106.581 166.289Z" fill="#63687A"/>
<path d="M119.21 166.606L120.156 169.21L122.76 169.844L120.474 171.972L120.391 174.969L118.105 173.552L115.343 174.816L116.207 171.813L114.632 169.685L117.471 169.21L119.21 166.606Z" fill="#63687A"/>
<path d="M131.615 10.2032C131.193 9.73622 130.643 9.40467 130.033 9.25046C129.423 9.09624 128.78 9.1263 128.187 9.33682C127.594 9.54734 127.077 9.92889 126.701 10.4333C126.325 10.9376 126.106 11.5422 126.073 12.1706C126.041 12.799 126.195 13.423 126.516 13.9638C126.838 14.5047 127.313 14.9381 127.881 15.2092C128.448 15.4804 129.084 15.5772 129.707 15.4874C130.33 15.3976 130.912 15.1252 131.38 14.7047C131.695 14.4269 131.951 14.0891 132.133 13.7112C132.316 13.3332 132.421 12.9226 132.443 12.5034C132.465 12.0842 132.403 11.6648 132.261 11.2699C132.119 10.8749 131.899 10.5123 131.615 10.2032Z" fill="#22272E"/>
<path d="M127.338 2.78649L126.791 2.15748C126.347 1.66648 125.81 1.26844 125.211 0.98641C124.612 0.704381 123.963 0.54397 123.302 0.514465C122.641 0.48496 121.98 0.586947 121.358 0.814521C120.737 1.0421 120.166 1.39073 119.68 1.84025C119.189 2.28421 118.791 2.82135 118.509 3.42048C118.227 4.0196 118.067 4.66877 118.038 5.3303C118.009 5.99182 118.112 6.65251 118.34 7.27402C118.568 7.89552 118.918 8.46545 119.369 8.95071L119.916 9.58518C120.558 10.306 121.018 11.1708 121.256 12.1067C121.414 12.8177 121.649 13.6874 121.885 14.475C121.984 14.8696 122.183 15.232 122.463 15.5271C122.743 15.8222 123.094 16.04 123.483 16.1594C123.872 16.2788 124.285 16.2957 124.683 16.2085C125.08 16.1214 125.448 15.9331 125.752 15.6619L129.301 12.4239L132.857 9.19137C133.159 8.91939 133.385 8.57347 133.512 8.18764C133.64 7.80181 133.665 7.38937 133.585 6.9909C133.505 6.59242 133.323 6.22165 133.056 5.91506C132.789 5.60847 132.447 5.37662 132.064 5.24233C131.276 4.93056 130.488 4.69537 129.777 4.45471C128.877 4.03751 128.053 3.47377 127.338 2.78649Z" fill="#6D7AAF"/>
</svg>
