<svg width="128" height="208" viewBox="0 0 128 208" fill="none" xmlns="http://www.w3.org/2000/svg">
<path d="M100.463 207.376L15.7518 202.136C14.358 202.045 12.9961 201.678 11.7453 201.056C10.4945 200.434 9.37965 199.57 8.46558 198.514C7.55151 197.458 6.85639 196.23 6.42061 194.903C5.98483 193.576 5.81704 192.176 5.92702 190.783L18.8085 16.9931C19.0534 14.085 20.3342 11.3615 22.4178 9.31796C24.5013 7.27446 27.2492 6.04681 30.1615 5.85836L116.838 0.618442C118.34 0.540362 119.841 0.78233 121.242 1.32827C122.643 1.87421 123.912 2.71168 124.965 3.78517C126.017 4.85866 126.83 6.14365 127.349 7.55499C127.867 8.96633 128.08 10.4718 127.973 11.9715L113.563 196.241C113.226 199.424 111.678 202.355 109.24 204.428C106.801 206.501 103.659 207.556 100.463 207.376Z" fill="#22272E"/>
<path d="M94.5692 207.376L9.85754 202.136C8.46367 202.045 7.10184 201.678 5.85102 201.056C4.60021 200.434 3.48536 199.57 2.57129 198.514C1.65722 197.458 0.962105 196.23 0.526321 194.903C0.0905381 193.576 -0.0772434 192.176 0.0327357 190.783L12.9142 16.9931C13.1592 14.085 14.4399 11.3615 16.5235 9.31796C18.6071 7.27446 21.355 6.04681 24.2673 5.85836L110.944 0.618442C112.445 0.540362 113.947 0.78233 115.348 1.32827C116.749 1.87421 118.017 2.71168 119.07 3.78517C120.123 4.85866 120.936 6.14365 121.455 7.55499C121.973 8.96633 122.186 10.4718 122.079 11.9715L107.669 196.241C107.332 199.424 105.784 202.355 103.346 204.428C100.907 206.501 97.7646 207.556 94.5692 207.376Z" fill="#22272E"/>
<path d="M68.5876 20.9243L52.4312 21.7976C52.1395 21.8169 51.847 21.7737 51.5734 21.6708C51.2998 21.5679 51.0512 21.4077 50.8445 21.201C50.6378 20.9943 50.4776 20.7458 50.3747 20.4721C50.2718 20.1985 50.2286 19.906 50.2479 19.6143C50.2536 18.9791 50.5085 18.3716 50.9576 17.9224C51.4068 17.4732 52.0144 17.2184 52.6496 17.2127L68.8059 16.3394C69.0976 16.3201 69.39 16.3633 69.6636 16.4662C69.9373 16.5691 70.1858 16.7293 70.3925 16.936C70.5993 17.1427 70.7594 17.3912 70.8623 17.6649C70.9652 17.9385 71.0084 18.231 70.9891 18.5227C70.9834 19.1579 70.7286 19.7654 70.2794 20.2146C69.8303 20.6637 69.2228 20.9186 68.5876 20.9243Z" fill="#63687A"/>
<path d="M77.9756 20.4859H77.539C77.2473 20.5052 76.9548 20.462 76.6812 20.3591C76.4075 20.2562 76.159 20.096 75.9523 19.8893C75.7455 19.6826 75.5854 19.4341 75.4825 19.1605C75.3796 18.8868 75.3364 18.5943 75.3557 18.3026C75.4381 17.6365 75.7407 17.017 76.2153 16.5423C76.6899 16.0677 77.3095 15.7652 77.9756 15.6827H78.4123C78.704 15.6634 78.9965 15.7066 79.2701 15.8095C79.5437 15.9124 79.7923 16.0726 79.999 16.2793C80.2057 16.486 80.3659 16.7345 80.4688 17.0082C80.5717 17.2818 80.6149 17.5743 80.5956 17.866C80.5132 18.5321 80.2106 19.1517 79.736 19.6263C79.2613 20.1009 78.6418 20.4035 77.9756 20.4859Z" fill="#63687A"/>
<path d="M52.6503 49.9609L31.0357 50.616C30.5082 50.6232 29.9853 50.5172 29.5023 50.3051C29.0192 50.0931 28.5872 49.78 28.2354 49.3869C27.8836 48.9937 27.6203 48.5297 27.463 48.0261C27.3058 47.5225 27.2585 46.9912 27.3241 46.4677C27.4387 45.3487 27.9356 44.3035 28.731 43.5081C29.5264 42.7127 30.5716 42.2158 31.6906 42.1011L53.3053 41.2278C53.8328 41.2205 54.3556 41.3266 54.8387 41.5386C55.3217 41.7506 55.7538 42.0637 56.1055 42.4569C56.4573 42.85 56.7206 43.3141 56.8778 43.8176C57.035 44.3212 57.0825 44.8526 57.0169 45.3761C56.9876 46.5458 56.5244 47.6629 55.7174 48.5102C54.9104 49.3576 53.8173 49.8746 52.6503 49.9609Z" fill="#63687A"/>
<path d="M46.9727 125.066L25.5765 124.847C25.0602 124.82 24.5544 124.69 24.0882 124.466C23.622 124.243 23.2045 123.929 22.8597 123.544C22.5149 123.158 22.2496 122.709 22.0789 122.221C21.9082 121.732 21.8354 121.216 21.8649 120.699C21.9866 119.604 22.4916 118.587 23.2906 117.828C24.0897 117.069 25.1313 116.616 26.2315 116.551L47.6277 116.769C48.15 116.779 48.6648 116.896 49.1396 117.114C49.6145 117.332 50.0394 117.645 50.3877 118.034C50.7361 118.424 51.0004 118.881 51.1641 119.377C51.3278 119.873 51.3875 120.397 51.3393 120.918C51.2581 122.028 50.7657 123.069 49.9582 123.836C49.1508 124.603 48.0862 125.042 46.9727 125.066Z" fill="#63687A"/>
<path d="M42.3887 185.762L20.9924 184.671C20.4593 184.635 19.9386 184.493 19.4613 184.253C18.9841 184.012 18.5599 183.679 18.2139 183.272C17.8678 182.865 17.6069 182.392 17.4466 181.882C17.2863 181.373 17.23 180.836 17.2808 180.304C17.3261 179.238 17.7845 178.232 18.5588 177.499C19.3331 176.765 20.3625 176.362 21.429 176.374L42.8253 177.248C43.365 177.264 43.8951 177.394 44.3817 177.628C44.8682 177.862 45.3002 178.196 45.6499 178.607C45.9996 179.019 46.2592 179.499 46.412 180.017C46.5647 180.535 46.6073 181.079 46.5368 181.614C46.5368 182.714 46.0999 183.769 45.3219 184.547C44.544 185.325 43.4888 185.762 42.3887 185.762Z" fill="#63687A"/>
<path d="M92.1672 98.2113L28.415 98.4297C27.7744 98.4326 27.1402 98.3012 26.5534 98.044C25.9666 97.7868 25.4403 97.4094 25.0083 96.9363C24.5763 96.4631 24.2483 95.9048 24.0454 95.2971C23.8425 94.6894 23.7691 94.0459 23.8302 93.4081L25.7951 65.6803C25.8763 64.5695 26.3688 63.529 27.1763 62.7619C27.9837 61.9948 29.0481 61.5563 30.1616 61.5321L94.1322 59.7854C94.7728 59.7825 95.407 59.9139 95.9938 60.1711C96.5806 60.4284 97.1069 60.8057 97.5389 61.2788C97.9709 61.752 98.2989 62.3104 98.5018 62.9181C98.7047 63.5258 98.778 64.1693 98.717 64.807L96.5337 93.8448C96.5337 95.0029 96.0736 96.1135 95.2547 96.9324C94.4358 97.7513 93.3252 98.2113 92.1672 98.2113Z" fill="#B0B8D7"/>
<path d="M45.4452 162.401L23.6123 161.528C22.9881 161.507 22.3749 161.358 21.8109 161.09C21.2469 160.822 20.7442 160.44 20.3344 159.969C19.9246 159.498 19.6164 158.947 19.4291 158.351C19.2417 157.755 19.1793 157.127 19.2457 156.506L20.5558 139.913C20.5837 139.34 20.7245 138.777 20.9702 138.258C21.2159 137.739 21.5616 137.273 21.9875 136.888C22.4134 136.502 22.9112 136.205 23.4522 136.012C23.9933 135.82 24.567 135.736 25.1406 135.765L47.1919 136.202C48.4622 136.269 49.6549 136.834 50.5127 137.773C51.3705 138.713 51.8244 139.952 51.7768 141.223L50.4669 158.253C50.2678 159.432 49.6508 160.5 48.7287 161.262C47.8065 162.024 46.6409 162.428 45.4452 162.401Z" fill="#FFE779"/>
<path d="M86.9273 163.711L63.5662 162.837C62.942 162.817 62.3287 162.668 61.7647 162.4C61.2006 162.131 60.698 161.75 60.2882 161.278C59.8783 160.807 59.5701 160.256 59.3828 159.661C59.1955 159.065 59.1332 158.437 59.1996 157.816L60.5095 140.568C60.5375 139.994 60.6784 139.432 60.9241 138.912C61.1698 138.393 61.5155 137.928 61.9414 137.542C62.3673 137.157 62.8649 136.86 63.406 136.667C63.947 136.474 64.5208 136.39 65.0944 136.419L88.674 136.856C89.9443 136.924 91.137 137.489 91.9948 138.428C92.8525 139.367 93.3065 140.606 93.2589 141.878L91.9489 159.562C91.7586 160.746 91.1439 161.819 90.2198 162.583C89.2957 163.346 88.1253 163.747 86.9273 163.711Z" fill="#F4C2C9"/>
</svg>
