<svg width="248" height="156" viewBox="0 0 248 156" fill="none" xmlns="http://www.w3.org/2000/svg">
<path d="M146.856 37.4707C146.856 37.4707 144.716 39.6109 148.692 55.8399C152.668 72.0689 161.706 84.4637 161.706 84.4637C165.247 81.1053 167.856 76.8855 169.279 72.2168C170.701 67.5482 170.887 62.5903 169.82 57.8279C166.432 40.9701 146.856 37.4707 146.856 37.4707Z" fill="#22272E"/>
<path d="M149.133 85.2295C149.133 85.2295 146.09 86.1474 138.878 93.6483C131.667 101.149 121.128 104.973 108.571 110.638C96.0137 116.303 89.8924 89.9714 93.1078 76.6586C96.1507 63.3407 109.945 54.1561 109.945 54.1561L136.713 57.8279C136.713 57.8279 145.593 47.2639 149.113 54.151C152.501 61.0433 152.196 76.5014 149.133 85.2295Z" fill="#F4C2C9"/>
<path d="M126.174 134.058L34.9422 155.029C33.996 155.251 33.0154 155.284 32.0566 155.126C31.0977 154.968 30.1794 154.622 29.3544 154.109C28.5294 153.595 27.8139 152.924 27.2489 152.133C26.6839 151.343 26.2805 150.448 26.0619 149.501L0.196995 37.4707C-0.0258015 36.5259 -0.0599998 35.5465 0.0963595 34.5884C0.252719 33.6304 0.596563 32.7127 1.10819 31.8877C1.61982 31.0628 2.28919 30.3469 3.07793 29.7811C3.86668 29.2153 4.75932 28.8107 5.7047 28.5904L96.9368 7.61958C97.8816 7.39761 98.8609 7.36419 99.8186 7.52123C100.776 7.67827 101.694 8.0227 102.518 8.53478C103.342 9.04685 104.058 9.71653 104.623 10.5055C105.188 11.2944 105.592 12.1871 105.812 13.1324L131.53 125.158C131.786 126.094 131.849 127.073 131.716 128.035C131.583 128.997 131.256 129.922 130.756 130.754C130.255 131.586 129.591 132.307 128.804 132.875C128.016 133.443 127.122 133.846 126.174 134.058Z" fill="#22272E"/>
<path d="M87.7521 39.7631L28.3592 53.3903C27.8962 53.4981 27.4163 53.5118 26.948 53.4306C26.4796 53.3494 26.0324 53.175 25.6327 52.9177C25.233 52.6604 24.8891 52.3254 24.6213 51.9327C24.3535 51.5399 24.1673 51.0974 24.0737 50.6314C23.9659 50.1688 23.952 49.6893 24.0329 49.2212C24.1138 48.7531 24.2878 48.306 24.5446 47.9064C24.8014 47.5068 25.1357 47.1628 25.5279 46.8947C25.92 46.6267 26.362 46.4401 26.8276 46.3459L86.2205 32.7238C86.6831 32.6159 87.1627 32.6021 87.6307 32.6829C88.0988 32.7638 88.5459 32.9378 88.9455 33.1946C89.3451 33.4514 89.6891 33.7858 89.9572 34.1779C90.2252 34.5701 90.4118 35.012 90.506 35.4776C90.6434 36.4043 90.4401 37.3493 89.9337 38.1374C89.4272 38.9255 88.6521 39.5031 87.7521 39.7631Z" fill="#FFE779"/>
<path d="M28.2072 69.1527L94.6394 53.8468" stroke="#63687A" stroke-width="5.43" stroke-linecap="round" stroke-linejoin="round"/>
<path d="M30.8087 80.3304L97.2409 65.0193" stroke="#63687A" stroke-width="5.43" stroke-linecap="round" stroke-linejoin="round"/>
<path d="M70.4533 124.412L45.9627 130.077C45.5001 130.185 45.0206 130.199 44.5525 130.118C44.0844 130.037 43.6374 129.863 43.2377 129.606C42.8381 129.35 42.4941 129.015 42.2261 128.623C41.958 128.231 41.7714 127.789 41.6773 127.323L36.0124 102.843C35.9046 102.38 35.8909 101.9 35.9721 101.432C36.0533 100.963 36.2277 100.516 36.485 100.116C36.7423 99.7168 37.0773 99.3728 37.47 99.105C37.8627 98.8373 38.3052 98.6511 38.7713 98.5575L63.2618 92.8976C63.7244 92.7898 64.2039 92.776 64.672 92.8568C65.1401 92.9377 65.5872 93.1117 65.9868 93.3685C66.3864 93.6253 66.7304 93.9596 66.9985 94.3518C67.2665 94.744 67.4531 95.1859 67.5472 95.6515L73.2122 120.142C73.3433 121.067 73.1364 122.008 72.6296 122.792C72.1228 123.576 71.3501 124.152 70.4533 124.412Z" fill="#FFE779"/>
<path d="M76.5796 89.6671L101.527 83.85" stroke="#63687A" stroke-width="5.43" stroke-linecap="round" stroke-linejoin="round"/>
<path d="M79.3335 101.758L104.438 96.0927" stroke="#63687A" stroke-width="5.43" stroke-linecap="round" stroke-linejoin="round"/>
<path d="M82.0874 114.005L97.2412 110.486" stroke="#63687A" stroke-width="5.43" stroke-linecap="round" stroke-linejoin="round"/>
<path d="M68.4654 17.7221L36.0125 25.2482C35.4843 25.3587 34.9369 25.3352 34.4201 25.1801C33.9033 25.0249 33.4334 24.743 33.0534 24.3599C32.6733 23.9769 32.3951 23.5048 32.2441 22.9868C32.093 22.4687 32.074 21.9212 32.1886 21.3939L32.4929 19.8724C32.6352 19.2778 32.9394 18.7341 33.3718 18.3018C33.8042 17.8694 34.3478 17.5652 34.9424 17.4228L66.0158 10.2212C66.5981 10.0783 67.209 10.1029 67.7779 10.2923C68.3468 10.4816 68.8506 10.828 69.2312 11.2913L70.1491 12.5186C71.6807 14.5067 70.7831 17.2656 68.4654 17.7221Z" fill="#6D7AAF"/>
<path d="M138.879 48.4912C138.879 48.4912 135.05 50.4792 127.721 48.4912C120.393 46.5031 119.15 44.6622 111.492 42.6741C103.834 40.6861 93.2752 42.8263 91.4393 46.0416C89.6034 49.257 94.4822 51.245 101.075 52.0108C107.668 52.7766 110.711 65.3287 121.28 70.0706C138.879 77.8808 154.489 53.9989 138.879 48.4912Z" fill="#F4C2C9"/>
<path d="M91.4239 46.0416C89.588 49.257 94.4668 51.245 101.06 52.0108C107.653 52.7766 110.696 65.3287 121.265 70.0706C124.514 71.5787 128.161 72.0087 131.672 71.2979" stroke="#E26E85" stroke-width="5.43" stroke-linecap="round" stroke-linejoin="round"/>
<path d="M150.513 41.4468C150.513 41.4468 142.398 46.6553 138.879 48.4912C138.879 48.4912 145.766 55.2262 148.514 67.3168C151.263 79.4074 149.128 85.2295 149.128 85.2295C149.128 85.2295 158.161 84.3065 162.598 81.0962C162.598 81.0962 166.884 74.0518 163.364 60.2775C159.844 46.5032 150.513 41.4468 150.513 41.4468Z" fill="white"/>
<path d="M246.639 22.7734C245.237 18.0899 242.742 13.8067 239.359 10.2771C235.977 6.74755 231.803 4.07271 227.184 2.4732C222.564 0.873694 217.63 0.395359 212.789 1.07765C207.948 1.75993 203.339 3.58329 199.341 6.39734C189.239 13.4367 178.675 20.3238 170.256 24.9186L146.856 37.6229C146.856 37.6229 160.174 50.7835 162.167 65.3287C164.16 79.8739 161.705 84.6006 161.705 84.6006C161.705 84.6006 198.292 75.5682 230.587 59.8008C244.209 52.9136 251.097 37.2983 246.659 22.7784L246.639 22.7734Z" fill="#6D7AAF"/>
<path d="M158.622 73.428C158.621 73.0651 158.513 72.7107 158.31 72.4094C158.108 72.1082 157.821 71.8736 157.485 71.7355C157.15 71.5973 156.781 71.5617 156.425 71.6331C156.069 71.7045 155.743 71.8797 155.486 72.1367C155.23 72.3936 155.056 72.7208 154.985 73.0768C154.915 73.4328 154.951 73.8016 155.091 74.1368C155.23 74.472 155.465 74.7584 155.767 74.9599C156.069 75.1614 156.423 75.269 156.786 75.269C157.03 75.2783 157.274 75.237 157.501 75.1477C157.728 75.0584 157.934 74.923 158.107 74.7501C158.279 74.5772 158.414 74.3705 158.503 74.1429C158.591 73.9154 158.632 73.672 158.622 73.428Z" fill="#22272E"/>
</svg>
