<svg width="20" height="20" viewBox="0 0 20 20" fill="none" xmlns="http://www.w3.org/2000/svg">
<path d="M10 1.66663C5.40001 1.66663 1.66667 5.39996 1.66667 9.99996C1.66667 14.6 5.40001 18.3333 10 18.3333C14.6 18.3333 18.3333 14.6 18.3333 9.99996C18.3333 5.39996 14.6 1.66663 10 1.66663ZM13.4583 10.6916L12.0167 11.175C11.6167 11.3083 11.3083 11.6166 11.175 12.0166L10.6917 13.4583C10.2833 14.7 8.53334 14.675 8.15 13.4333L6.525 8.19996C6.20834 7.15829 7.16667 6.19996 8.19167 6.51663L13.4333 8.14163C14.675 8.53329 14.6917 10.2833 13.4583 10.6916Z" fill="#676E89"/>
</svg>
