<svg width="24" height="25" viewBox="0 0 24 25" fill="none" xmlns="http://www.w3.org/2000/svg">
<path d="M12 2.5C6.49 2.5 2 6.99 2 12.5C2 18.01 6.49 22.5 12 22.5C17.51 22.5 22 18.01 22 12.5C22 6.99 17.51 2.5 12 2.5ZM16.78 10.2L11.11 15.87C10.9694 16.0105 10.7788 16.0893 10.58 16.0893C10.3812 16.0893 10.1906 16.0105 10.05 15.87L7.22 13.04C7.08052 12.8989 7.0023 12.7084 7.0023 12.51C7.0023 12.3116 7.08052 12.1211 7.22 11.98C7.51 11.69 7.99 11.69 8.28 11.98L10.58 14.28L15.72 9.14C16.01 8.85 16.49 8.85 16.78 9.14C17.07 9.43 17.07 9.9 16.78 10.2Z" fill="#113CE8"/>
</svg>
