<svg width="16" height="17" viewBox="0 0 16 17" fill="none" xmlns="http://www.w3.org/2000/svg">
<path d="M7.99998 1.77783C4.32665 1.77783 1.33331 4.77117 1.33331 8.4445C1.33331 12.1178 4.32665 15.1112 7.99998 15.1112C11.6733 15.1112 14.6666 12.1178 14.6666 8.4445C14.6666 4.77117 11.6733 1.77783 7.99998 1.77783ZM11.1866 6.91116L7.40665 10.6912C7.3129 10.7848 7.18581 10.8374 7.05331 10.8374C6.92081 10.8374 6.79373 10.7848 6.69998 10.6912L4.81331 8.8045C4.72033 8.71041 4.66818 8.58345 4.66818 8.45117C4.66818 8.31888 4.72033 8.19192 4.81331 8.09783C5.00665 7.9045 5.32665 7.9045 5.51998 8.09783L7.05331 9.63116L10.48 6.2045C10.6733 6.01117 10.9933 6.01117 11.1866 6.2045C11.38 6.39783 11.38 6.71116 11.1866 6.91116Z" fill="black"/>
</svg>
