<svg width="16" height="16" viewBox="0 0 16 16" fill="none" xmlns="http://www.w3.org/2000/svg">
<path d="M14.6667 7.16663C14.94 7.16663 15.1667 6.93996 15.1667 6.66663V5.99996C15.1667 3.05996 14.2733 2.16663 11.3333 2.16663H7.16668V3.66663C7.16668 3.93996 6.94001 4.16663 6.66668 4.16663C6.39334 4.16663 6.16668 3.93996 6.16668 3.66663V2.16663H4.66668C1.72668 2.16663 0.833344 3.05996 0.833344 5.99996V6.33329C0.833344 6.60663 1.06001 6.83329 1.33334 6.83329C1.97334 6.83329 2.50001 7.35996 2.50001 7.99996C2.50001 8.63996 1.97334 9.16663 1.33334 9.16663C1.06001 9.16663 0.833344 9.39329 0.833344 9.66663V9.99996C0.833344 12.94 1.72668 13.8333 4.66668 13.8333H6.16668V12.3333C6.16668 12.06 6.39334 11.8333 6.66668 11.8333C6.94001 11.8333 7.16668 12.06 7.16668 12.3333V13.8333H11.3333C14.2733 13.8333 15.1667 12.94 15.1667 9.99996C15.1667 9.72663 14.94 9.49996 14.6667 9.49996C14.0267 9.49996 13.5 8.97329 13.5 8.33329C13.5 7.69329 14.0267 7.16663 14.6667 7.16663ZM7.16668 9.44663C7.16668 9.71996 6.94001 9.94663 6.66668 9.94663C6.39334 9.94663 6.16668 9.71996 6.16668 9.44663V6.55329C6.16668 6.27996 6.39334 6.05329 6.66668 6.05329C6.94001 6.05329 7.16668 6.27996 7.16668 6.55329V9.44663Z" fill="#E81111"/>
</svg>
