<svg width="16" height="16" viewBox="0 0 16 16" fill="none" xmlns="http://www.w3.org/2000/svg">
<path d="M7.99994 8.00004C8.884 8.00004 9.73184 7.64885 10.357 7.02373C10.9821 6.39861 11.3333 5.55076 11.3333 4.66671C11.3333 3.78265 10.9821 2.93481 10.357 2.30968C9.73184 1.68456 8.884 1.33337 7.99994 1.33337C7.11589 1.33337 6.26804 1.68456 5.64292 2.30968C5.0178 2.93481 4.66661 3.78265 4.66661 4.66671C4.66661 5.55076 5.0178 6.39861 5.64292 7.02373C6.26804 7.64885 7.11589 8.00004 7.99994 8.00004ZM7.99994 9.66671C4.65994 9.66671 1.93994 11.9067 1.93994 14.6667C1.93994 14.8534 2.08661 15 2.27327 15H13.7266C13.9133 15 14.0599 14.8534 14.0599 14.6667C14.0599 11.9067 11.3399 9.66671 7.99994 9.66671Z" fill="black"/>
</svg>
